{
.appVersion = "3436";
.formatVersion = 3;
axes = (
{
name = Weight;
tag = wght;
}
);
classes = (
{
automatic = 1;
code = "Acaron Ebreve Etilde Ezh Ezhcaron Gcaron Gstroke Hcaron IJ Ibreve Itilde Kcaron Ldot Obreve Oslashacute Scircumflex Ubreve Ucaron Utilde A Aacute Abreve Acircumflex Adieresis Agrave Amacron Aogonek Aring Atilde AE B C Cacute Ccaron Ccedilla Cdotaccent D Dcaron Dcroat Eth E Eacute Ecaron Ecircumflex Edieresis Edotaccent Egrave Emacron Eogonek F G Gbreve Gcommaaccent Gdotaccent H Hbar I Iacute Icircumflex Idieresis Idotaccent Igrave Imacron Iogonek J K Kcommaaccent L Lacute Lcaron Lcommaaccent Lslash M N Nacute Ncaron Ncommaaccent Ntilde Eng O Oacute Ocircumflex Odieresis Ograve Ohungarumlaut Omacron Oslash Otilde OE P Thorn Q R Racute Rcaron Rcommaaccent S Sacute Scaron Scedilla Scommaaccent Germandbls T Tbar Tcaron Tcedilla Tcommaaccent U Uacute Ucircumflex Udieresis Ugrave Uhungarumlaut Umacron Uogonek Uring V W Wacute Wcircumflex Wdieresis Wgrave X Y Yacute Ycircumflex Ydieresis Ygrave Z Zacute Zcaron Zdotaccent Delta Omega";
name = Uppercase;
},
{
automatic = 1;

glyphs = (
{
glyphname = Ezh;
lastChange = "2026-01-08 23:02:18 +0000";
layers = (
{
anchors = (
{
name = bottom;
pos = (315,0);
},
{
name = top;
pos = (315,720);
}
);
hints = (
{
horizontal = 1;
origin = (0,28);
target = (0,21);
type = Stem;
},
{
horizontal = 1;
origin = (0,15);
target = (0,5);
type = Stem;
},
{
horizontal = 1;
origin = (0,9);
target = (0,11);
type = Stem;
},
{
origin = (0,25);
target = (0,24);
type = Stem;
},
{
origin = (0,14);
target = (0,6);
type = Stem;
},
{
origin = (0,18);
target = (0,2);
type = Stem;
},
{
origin = (0,8);
target = (0,12);
type = Stem;
}
);
layerId = "05246BF3-0764-4143-87C4-5D2B296D3790";
shapes = (
{
closed = 1;
nodes = (
(465,-10,o),
(570,75,o),
(570,205,cs),
(570,371,o),
(469,415,o),
(349,415,c),
(349,425,l),
(540,655,l),
(540,720,l),
(120,720,l),
(120,640,l),
(415,640,l),
(415,630,l),
(245,425,l),
(245,345,l),
(315,345,ls),
(414,345,o),
(480,315,o),
(480,205,cs),
(480,125,o),
(425,70,o),
(315,70,cs),
(205,70,o),
(150,125,o),
(150,205,c),
(60,205,l),
(60,75,o),
(165,-10,o),
(315,-10,cs)
);
}
);
width = 630;
},
{
anchors = (
{
name = bottom;
pos = (335,0);
},
{
name = top;
pos = (335,720);
}
);
hints = (
{
horizontal = 1;
origin = (0,28);
target = (0,21);
type = Stem;
},
{
horizontal = 1;
origin = (0,15);
target = (0,5);
type = Stem;
},
{
horizontal = 1;
origin = (0,9);
target = (0,11);
type = Stem;
},
{
origin = (0,25);
target = (0,24);
type = Stem;
},
{
origin = (0,14);
target = (0,6);
type = Stem;
},
{
origin = (0,18);
target = (0,2);
type = Stem;
},
{
origin = (0,8);
target = (0,12);
type = Stem;
}
);
layerId = "B51EB05F-9FBB-4087-814F-400611B2D4B0";
shapes = (
{
closed = 1;
nodes = (
(495,-10,o),
(620,65,o),
(620,205,cs),
(620,361,o),
(539,427,o),
(409,427,c),
(409,437,l),
(572,620,l),
(572,720,l),
(120,720,l),
(120,610,l),
(385,610,l),
(385,600,l),
(235,440,l),
(235,330,l),
(335,330,ls),
(445,330,o),
(470,275,o),
(470,205,cs),
(470,145,o),
(435,100,o),
(335,100,cs),
(235,100,o),
(200,140,o),
(200,220,c),
(50,220,l),
(50,80,o),
(175,-10,o),
(335,-10,cs)
);
}
);
width = 670;
}
);
unicode = 439;
},
{
glyphname = Gstroke;
lastChange = "2026-01-08 23:02:18 +0000";
layers = (
{
hints = (
{
horizontal = 1;
origin = (0,3);
target = (0,2);
type = Stem;
},
{
origin = (0,3);
target = (0,1);
type = Stem;
}
);
layerId = "05246BF3-0764-4143-87C4-5D2B296D3790";
shapes = (
{
closed = 1;
nodes = (
(710,165,l),
(710,225,l),
(470,225,l),
(470,165,l)
);
},
{
ref = G;
}
);
width = 730;
},
{
hints = (
{
horizontal = 1;
origin = (0,3);
target = (0,2);
type = Stem;
},
{
origin = (0,3);
target = (0,1);
type = Stem;
}
);
layerId = "B51EB05F-9FBB-4087-814F-400611B2D4B0";
shapes = (
{
closed = 1;
nodes = (
(720,155,l),
(720,235,l),
(420,235,l),
(420,155,l)
);
},
{
ref = G;
}
);
width = 720;
}
);
unicode = 484;
},
{
glyphname = A;
kernLeft = A;
kernRight = A;
lastChange = "2026-01-08 23:02:18 +0000";
layers = (
{
anchors = (
{
name = bottom;
pos = (570,0);
},
{
name = ogonek;
pos = (618,10);
},
{
name = top;
pos = (342,720);
}
);
hints = (
{
horizontal = 1;
origin = (0,7);
target = up;
type = BottomGhost;
},
{
horizontal = 1;
origin = (1,3);
target = (0,1);
type = Stem;
},
{
horizontal = 1;
origin = (0,6);
target = down;
type = TopGhost;
},
{
horizontal = 1;
origin = (0,6);
target = (1,0);
type = Stem;
}
);
layerId = "05246BF3-0764-4143-87C4-5D2B296D3790";
shapes = (
{
closed = 1;
nodes = (
(114,0,l),
(192,210,l),
(492,210,l),
(570,0,l),
(664,0,l),
(389,720,l),
(295,720,l),
(20,0,l)
);
},
{
closed = 1;
nodes = (
(340,612,l),
(344,612,l),
(463,290,l),
(221,290,l)
);
}
);
width = 684;
},
{
anchors = (
{
name = bottom;
pos = (564,0);
},
{
name = ogonek;
pos = (608,10);
},
{
name = top;
pos = (362,720);
}
);
hints = (
{
horizontal = 1;
origin = (0,7);
target = up;
type = BottomGhost;
},
{
horizontal = 1;
origin = (1,3);
target = (0,1);
type = Stem;
},
{
horizontal = 1;
origin = (0,6);
target = (1,0);
type = Stem;
}
);
layerId = "B51EB05F-9FBB-4087-814F-400611B2D4B0";
shapes = (
{
closed = 1;
nodes = (
(160,0,l),
(230,195,l),
(494,195,l),
(564,0,l),
(714,0,l),
(439,720,l),
(285,720,l),
(10,0,l)
);
},
{
closed = 1;
nodes = (
(357,548,l),
(367,548,l),
(451,315,l),
(273,315,l)
);
}
);
width = 724;
}
);
subCategory = Uppercase;
unicode = 65;
},
{
glyphname = Aogonek;
kernLeft = A;
kernRight = A;
lastChange = "2026-01-08 23:02:18 +0000";
layers = (
{
anchors = (
{
name = top;
pos = (342,720);
}
);
hints = (
{
horizontal = 1;
origin = (0,6);
target = up;
type = BottomGhost;
},
{
horizontal = 1;
origin = (1,3);
target = (0,8);
type = Stem;
},
{
horizontal = 1;
origin = (0,5);
target = down;
type = TopGhost;
},
{
horizontal = 1;
origin = (0,5);
target = (1,0);
type = Stem;
},
{
horizontal = 1;
place = (-195,71);
type = Stem;
},
{
place = (478,86);
type = Stem;
}
);
layerId = "05246BF3-0764-4143-87C4-5D2B296D3790";
shapes = (
{
closed = 1;
nodes = (
(644,-121,l),
(536,-143,o),
(554,-67,o),
(664,0,c),
(389,720,l),
(295,720,l),
(20,0,l),
(114,0,l),
(192,210,l),
(492,210,l),
(570,0,l),
(422,-80,o),
(476,-224,o),
(644,-191,c)
);
},
{
closed = 1;
nodes = (
(340,612,l),
(344,612,l),
(463,290,l),
(221,290,l)
);
}
);
width = 684;
},
{
anchors = (
{
name = top;
pos = (362,720);
}
);
hints = (
{
horizontal = 1;
origin = (0,6);
target = up;
type = BottomGhost;
},
{
horizontal = 1;
origin = (1,3);
target = (0,8);
type = Stem;
},
{
horizontal = 1;
origin = (0,5);
target = (1,0);
type = Stem;
},
{
horizontal = 1;
place = (-198,88);
type = Stem;
},
{
place = (481,146);
type = Stem;
}
);
layerId = "B51EB05F-9FBB-4087-814F-400611B2D4B0";
shapes = (
{
closed = 1;
nodes = (
(708,-105,l),
(600,-127,o),
(604,-67,o),
(714,0,c),
(439,720,l),
(285,720,l),
(10,0,l),
(160,0,l),
(230,195,l),
(494,195,l),
(564,0,l),
(405,-86,o),
(492,-233,o),
(708,-190,c)
);
},
{
closed = 1;
nodes = (
(357,548,l),
(367,548,l),
(451,315,l),
(273,315,l)
);
}
);
width = 724;
}
);
subCategory = Uppercase;
unicode = 260;
},
{
glyphname = AE;
kernLeft = A;
kernRight = E;
lastChange = "2026-01-08 23:02:18 +0000";
layers = (
{
hints = (
{
horizontal = 1;
origin = (0,15);
target = (0,6);
type = Stem;
},
{
horizontal = 1;
origin = (0,1);
target = (1,3);
type = Stem;
},
{
horizontal = 1;
origin = (0,7);
target = (0,10);
type = Stem;
},
{
horizontal = 1;
origin = (0,14);
target = (1,0);
type = Stem;
},
{
origin = (0,3);
target = (0,5);
type = Stem;
}
);
layerId = "05246BF3-0764-4143-87C4-5D2B296D3790";
shapes = (
{
closed = 1;
nodes = (
(114,0,l),
(194,210,l),
(484,210,l),
(484,0,l),
(929,0,l),
(929,80,l),
(574,80,l),
(574,330,l),
(879,330,l),
(879,410,l),
(574,410,l),
(574,640,l),
(929,640,l),
(929,720,l),
(295,720,l),
(20,0,l)
);
},
{
closed = 1;
nodes = (
(358,640,l),
(484,640,l),
(484,290,l),
(225,290,l)
);
}
);
width = 999;
},
{
hints = (
{
horizontal = 1;
place = (0,120);
type = Stem;
},
{
horizontal = 1;
place = (310,120);
type = Stem;
},
{
horizontal = 1;
place = (720,120);
type = Stem;
},
{
horizontal = 1;
place = (195,120);
type = Stem;
},
{
place = (470,150);
type = Stem;
}
);
layerId = "B51EB05F-9FBB-4087-814F-400611B2D4B0";
shapes = (
{
closed = 1;
nodes = (
(150,0,l),
(224,195,l),
(469,195,l),
(469,0,l),
(929,0,l),
(929,120,l),
(619,120,l),
(619,310,l),
(879,310,l),
(879,430,l),
(619,430,l),
(619,600,l),
(929,600,l),
(929,720,l),
(275,720,l),
(0,0,l)
);
},
{
closed = 1;
nodes = (
(379,600,l),
(469,600,l),
(469,315,l),
(270,315,l)
);
}
);
width = 989;
}
);
subCategory = Uppercase;
unicode = 198;
},
{
glyphname = B;
kernLeft = I;
kernRight = B;
lastChange = "2026-01-08 23:02:18 +0000";
layers = (
{
anchors = (
{
name = bottom;
pos = (320,0);
},
{
name = top;
pos = (320,700);
}
);
hints = (
{
horizontal = 1;
origin = (0,15);
target = (1,8);
type = Stem;
},
{
horizontal = 1;
origin = (1,0);
target = (2,8);
type = Stem;
},
{
horizontal = 1;
origin = (0,14);
target = (2,0);
type = Stem;
},
{
origin = (0,15);
target = (0,0);
type = Stem;
},
{
origin = (1,4);
target = (0,3);
type = Stem;
},
{
origin = (2,4);
target = (0,10);
type = Stem;
}
);
layerId = "05246BF3-0764-4143-87C4-5D2B296D3790";
shapes = (
{
closed = 1;
nodes = (
(355,0,ls),
(525,0,o),
(605,78,o),
(605,208,cs),
(605,298,o),
(552,363,o),
(454,380,c),
(454,390,l),
(516,410,o),
(555,450,o),
(555,532,cs),
(555,652,o),
(475,720,o),
(325,720,cs),
(90,720,l),
(90,0,l)
);
},
{
closed = 1;
nodes = (
(180,340,l),
(355,340,ls),
(445,340,o),
(515,308,o),
(515,208,cs),
(515,108,o),
(445,80,o),
(355,80,cs),
(180,80,l)
);
},
{
closed = 1;
nodes = (
(180,640,l),
(325,640,ls),
(405,640,o),
(465,622,o),
(465,532,cs),
(465,442,o),
(415,420,o),
(325,420,cs),
(180,420,l)
);
}
);
width = 645;
},
{
anchors = (
{
name = bottom;
pos = (320,0);
},
{
name = top;
pos = (320,700);
}
);
hints = (
{
horizontal = 1;
origin = (0,15);
target = (1,8);
type = Stem;
},
{
horizontal = 1;
origin = (1,0);
target = (2,8);
type = Stem;
},
{
horizontal = 1;
origin = (0,14);
target = (2,0);
type = Stem;
},
{
origin = (0,15);
target = (0,0);
type = Stem;
},
{
origin = (1,4);
target = (0,3);
type = Stem;
},
{
origin = (2,4);
target = (0,10);
type = Stem;
}
);
layerId = "B51EB05F-9FBB-4087-814F-400611B2D4B0";
shapes = (
{
closed = 1;
nodes = (
(345,0,ls),
(550,0,o),
(625,78,o),
(625,218,cs),
(625,313,o),
(547,368,o),
(454,380,c),
(454,390,l),
(516,405,o),
(575,440,o),
(575,522,cs),
(575,662,o),
(485,720,o),
(315,720,cs),
(70,720,l),
(70,0,l)
);
},
{
closed = 1;
nodes = (
(200,320,l),
(345,320,ls),
(410,320,o),
(475,303,o),
(475,218,cs),
(475,133,o),
(420,120,o),
(345,120,cs),
(200,120,l)
);
},
{
closed = 1;
nodes = (
(200,600,l),
(315,600,ls),
(370,600,o),
(425,607,o),
(425,522,cs),
(425,457,o),
(390,440,o),
(315,440,cs),
(200,440,l)
);
}
);
width = 665;
}
);
subCategory = Uppercase;
unicode = 66;
},
{
glyphname = C;
kernLeft = C;
kernRight = C;
lastChange = "2026-01-08 23:02:18 +0000";
layers = (
{
anchors = (
{
name = bottom;
pos = (375,0);
},
{
name = top;
pos = (375,730);
}
);
hints = (
{
horizontal = 1;
origin = (0,6);
target = (0,25);
type = Stem;
},
{
horizontal = 1;
origin = (0,19);
target = (0,12);
type = Stem;
},
{
origin = (0,22);
target = (0,9);
type = Stem;
}
);
layerId = "05246BF3-0764-4143-87C4-5D2B296D3790";
shapes = (
{
closed = 1;
nodes = (
(535,-10,o),
(624,79,o),
(660,205,c),
(568,205,l),
(539,120,o),
(476,70,o),
(375,70,cs),
(215,70,o),
(150,200,o),
(150,360,cs),
(150,520,o),
(215,650,o),
(375,650,cs),
(476,650,o),
(539,600,o),
(568,515,c),
(660,515,l),
(624,641,o),
(535,730,o),
(375,730,cs),
(155,730,o),
(60,560,o),
(60,360,cs),
(60,160,o),
(155,-10,o),
(375,-10,cs)
);
}
);
width = 710;
},
{
anchors = (
{
name = bottom;
pos = (365,0);
},
{
name = top;
pos = (365,730);
}
);
hints = (
{
horizontal = 1;
origin = (0,6);
target = (0,25);
type = Stem;
},
{
horizontal = 1;
origin = (0,19);
target = (0,12);
type = Stem;
},
{
origin = (0,22);
target = (0,9);
type = Stem;
}
);
layerId = "B51EB05F-9FBB-4087-814F-400611B2D4B0";
shapes = (
{
closed = 1;
nodes = (
(539,-10,o),
(630,83,o),
(665,225,c),
(513,225,l),
(492,153,o),
(454,110,o),
(365,110,cs),
(225,110,o),
(190,230,o),
(190,360,cs),
(190,490,o),
(225,610,o),
(365,610,cs),
(454,610,o),
(492,567,o),
(513,495,c),
(665,495,l),
(630,637,o),
(539,730,o),
(365,730,cs),
(140,730,o),
(40,575,o),
(40,360,cs),
(40,145,o),
(140,-10,o),
(365,-10,cs)
);
}
);
width = 695;
}
);
subCategory = Uppercase;
unicode = 67;
},
{
glyphname = D;
kernLeft = I;
kernRight = O;
lastChange = "2026-01-08 23:02:18 +0000";
layers = (
{
anchors = (
{
name = bottom;
pos = (354,0);
},
{
name = center;
pos = (354,350);
},
{
name = top;
pos = (354,700);
}
);
hints = (
{
horizontal = 1;
origin = (0,8);
target = (1,8);
type = Stem;
},
{
horizontal = 1;
origin = (0,7);
target = (1,0);
type = Stem;
},
{
origin = (0,8);
target = (0,0);
type = Stem;
},
{
origin = (1,4);
target = (0,3);
type = Stem;
}
);
layerId = "05246BF3-0764-4143-87C4-5D2B296D3790";
shapes = (
{
closed = 1;
nodes = (
(318,0,ls),
(551,0,o),
(653,167,o),
(653,360,cs),
(653,553,o),
(551,720,o),
(318,720,cs),
(90,720,l),
(90,0,l)
);
},
{
closed = 1;
nodes = (
(180,640,l),
(318,640,ls),
(500,640,o),
(563,512,o),
(563,360,cs),
(563,208,o),
(500,80,o),
(318,80,cs),
(180,80,l)
);
}
);
width = 713;
},
{
anchors = (
{
name = bottom;
pos = (364,0);
},
{
name = center;
pos = (364,350);
},
{
name = top;
pos = (364,700);
}
);
hints = (
{
horizontal = 1;
origin = (0,8);
target = (1,8);
type = Stem;
},
{
horizontal = 1;
origin = (0,7);
target = (1,0);
type = Stem;
},
{
origin = (0,8);
target = (0,0);
type = Stem;
},
{
origin = (1,4);
target = (0,3);
type = Stem;
}
);
layerId = "B51EB05F-9FBB-4087-814F-400611B2D4B0";
shapes = (
{
closed = 1;
nodes = (
(318,0,ls),
(571,0,o),
(673,137,o),
(673,360,cs),
(673,583,o),
(571,720,o),
(318,720,cs),
(70,720,l),
(70,0,l)
);
},
{
closed = 1;
nodes = (
(220,600,l),
(318,600,ls),
(470,600,o),
(523,492,o),
(523,360,cs),
(523,228,o),
(470,120,o),
(318,120,cs),
(220,120,l)
);
}
);
width = 713;
}
);
subCategory = Uppercase;
unicode = 68;
},
{
glyphname = Dcaron;
kernLeft = I;
kernRight = O;
lastChange = "2026-01-08 23:02:18 +0000";
layers = (
{
anchors = (
{
name = top;
pos = (354,880);
}
);
hints = (
{
horizontal = 1;
origin = (0,4);
target = (0,7);
type = Stem;
},
{
horizontal = 1;
origin = (0,7);
target = (0,6);
type = Stem;
}
);
layerId = "05246BF3-0764-4143-87C4-5D2B296D3790";
shapes = (
{
closed = 1;
nodes = (
(394,770,l),
(504,910,l),
(424,910,l),
(359,823,l),
(349,823,l),
(284,910,l),
(204,910,l),
(314,770,l)
);
},
{
ref = D;
}
);
width = 713;
},
{
anchors = (
{
name = top;
pos = (364,870);
}
);
hints = (
{
horizontal = 1;
origin = (0,7);
target = (0,4);
type = Stem;
},
{
horizontal = 1;
origin = (0,6);
target = (0,7);
type = Stem;
},
{
origin = (0,6);
target = (0,1);
type = Stem;
}
);
layerId = "B51EB05F-9FBB-4087-814F-400611B2D4B0";
shapes = (
{
closed = 1;
nodes = (
(424,760,l),
(534,900,l),
(414,900,l),
(369,839,l),
(359,839,l),
(314,900,l),
(194,900,l),
(304,760,l)
);
},
{
ref = D;
}
);
width = 713;
}
);
subCategory = Uppercase;
unicode = 270;
},
{
glyphname = Eth;
kernLeft = B;
kernRight = D;
lastChange = "2026-01-08 23:02:18 +0000";
layers = (
{
hints = (
{
horizontal = 1;
origin = (0,3);
target = (0,2);
type = Stem;
}
);
layerId = "05246BF3-0764-4143-87C4-5D2B296D3790";
shapes = (
{
closed = 1;
nodes = (
(350,335,l),
(350,405,l),
(30,405,l),
(30,335,l)
);
},
{
pos = (7,0);
ref = D;
}
);
width = 720;
},
{
hints = (
{
horizontal = 1;
origin = (0,3);
target = (0,2);
type = Stem;
},
{
origin = (0,3);
target = (0,0);
type = Stem;
}
);
layerId = "B51EB05F-9FBB-4087-814F-400611B2D4B0";
shapes = (
{
closed = 1;
nodes = (
(395,315,l),
(395,425,l),
(15,425,l),
(15,315,l)
);
},
{
pos = (12,0);
ref = D;
}
);
width = 735;
}
);
subCategory = Uppercase;
unicode = 208;
},
{
glyphname = E;
kernLeft = I;
kernRight = E;
lastChange = "2026-01-08 23:02:18 +0000";
layers = (
{
anchors = (
{
name = bottom;
pos = (303,0);
},
{
name = ogonek;
pos = (545,10);
},
{
name = top;
pos = (303,720);
},
{
name = topleft;
pos = (20,720);
}
);
hints = (
{
horizontal = 1;
origin = (0,11);
target = (0,2);
type = Stem;
},
{
horizontal = 1;
origin = (0,3);
target = (0,6);
type = Stem;
},
{
horizontal = 1;
origin = (0,10);
target = (0,7);
type = Stem;
},
{
origin = (0,11);
target = (0,1);
type = Stem;
}
);
layerId = "05246BF3-0764-4143-87C4-5D2B296D3790";
shapes = (
{
closed = 1;
nodes = (
(535,0,l),
(535,80,l),
(180,80,l),
(180,340,l),
(485,340,l),
(485,420,l),
(180,420,l),
(180,640,l),
(535,640,l),
(535,720,l),
(90,720,l),
(90,0,l)
);
}
);
width = 605;
},
{
anchors = (
{
name = bottom;
pos = (298,0);
},
{
name = ogonek;
pos = (536,10);
},
{
name = top;
pos = (298,720);
},
{
name = topleft;
pos = (20,720);
}
);
hints = (
{
horizontal = 1;
origin = (0,11);
target = (0,2);
type = Stem;
},
{
horizontal = 1;
origin = (0,3);
target = (0,6);
type = Stem;
},
{
horizontal = 1;
origin = (0,10);
target = (0,7);
type = Stem;
},
{
origin = (0,11);
target = (0,1);
type = Stem;
}
);
layerId = "B51EB05F-9FBB-4087-814F-400611B2D4B0";
shapes = (
{
closed = 1;
nodes = (
(545,0,l),
(545,120,l),
(220,120,l),
(220,320,l),
(495,320,l),
(495,440,l),
(220,440,l),
(220,600,l),
(545,600,l),
(545,720,l),
(70,720,l),
(70,0,l)
);
}
);
width = 595;
}
);
subCategory = Uppercase;
unicode = 69;
},
{
glyphname = Eogonek;
kernLeft = B;
kernRight = E;
lastChange = "2026-01-08 23:02:18 +0000";
layers = (
{
anchors = (
{
name = top;
pos = (312,720);
}
);
hints = (
{
horizontal = 1;
origin = (0,14);
target = (0,5);
type = Stem;
},
{
horizontal = 1;
origin = (0,6);
target = (0,9);
type = Stem;
},
{
horizontal = 1;
origin = (0,13);
target = (0,10);
type = Stem;
},
{
origin = (0,14);
target = (0,5);
type = Stem;
},
{
horizontal = 1;
place = (-195,71);
type = Stem;
},
{
place = (359,86);
type = Stem;
}
);
layerId = "05246BF3-0764-4143-87C4-5D2B296D3790";
shapes = (
{
closed = 1;
nodes = (
(519,-121,l),
(411,-143,o),
(425,-67,o),
(535,0,c),
(535,80,l),
(180,80,l),
(180,340,l),
(485,340,l),
(485,420,l),
(180,420,l),
(180,640,l),
(535,640,l),
(535,720,l),
(90,720,l),
(90,0,l),
(445,0,l),
(297,-80,o),
(351,-224,o),
(519,-191,c)
);
}
);
width = 605;
},
{
anchors = (
{
name = top;
pos = (307,720);
}
);
hints = (
{
horizontal = 1;
origin = (0,14);
target = (0,5);
type = Stem;
},
{
horizontal = 1;
origin = (0,6);
target = (0,9);
type = Stem;
},
{
horizontal = 1;
origin = (0,13);
target = (0,10);
type = Stem;
},
{
origin = (0,14);
target = (0,5);
type = Stem;
},
{
horizontal = 1;
place = (-198,88);
type = Stem;
},
{
place = (314,146);
type = Stem;
}
);
layerId = "B51EB05F-9FBB-4087-814F-400611B2D4B0";
shapes = (
{
closed = 1;
nodes = (
(539,-105,l),
(431,-127,o),
(435,-67,o),
(545,0,c),
(545,120,l),
(220,120,l),
(220,320,l),
(495,320,l),
(495,440,l),
(220,440,l),
(220,600,l),
(545,600,l),
(545,720,l),
(70,720,l),
(70,0,l),
(395,0,l),
(236,-86,o),
(323,-233,o),
(539,-190,c)
);
}
);
width = 595;
}
);
subCategory = Uppercase;
unicode = 280;
},
{
glyphname = F;
kernLeft = I;
kernRight = F;
lastChange = "2026-01-08 23:02:18 +0000";
layers = (
{
anchors = (
{
name = bottom;
pos = (270,0);
},
{
name = top;
pos = (270,700);
}
);
hints = (
{
horizontal = 1;
origin = (0,9);
target = up;
type = BottomGhost;
},
{
horizontal = 1;
origin = (0,1);
target = (0,4);
type = Stem;
},
{
horizontal = 1;
origin = (0,8);
target = (0,5);
type = Stem;
},
{
origin = (0,9);
target = (0,0);
type = Stem;
}
);
layerId = "05246BF3-0764-4143-87C4-5D2B296D3790";
shapes = (
{
closed = 1;
nodes = (
(180,0,l),
(180,340,l),
(485,340,l),
(485,420,l),
(180,420,l),
(180,640,l),
(535,640,l),
(535,720,l),
(90,720,l),
(90,0,l)
);
}
);
width = 595;
},
{
anchors = (
{
name = bottom;
pos = (280,0);
},
{
name = top;
pos = (280,700);
}
);
hints = (
{
horizontal = 1;
origin = (0,9);
target = up;
type = BottomGhost;
},
{
horizontal = 1;
origin = (0,1);
target = (0,4);
type = Stem;
},
{
horizontal = 1;
origin = (0,8);
target = (0,5);
type = Stem;
},
{
origin = (0,9);
target = (0,0);
type = Stem;
}
);
layerId = "B51EB05F-9FBB-4087-814F-400611B2D4B0";
shapes = (
{
closed = 1;
nodes = (
(220,0,l),
(220,320,l),
(495,320,l),
(495,440,l),
(220,440,l),
(220,600,l),
(545,600,l),
(545,720,l),
(70,720,l),
(70,0,l)
);
}
);
width = 585;
}
);
subCategory = Uppercase;
unicode = 70;
},
{
glyphname = G;
kernLeft = C;
kernRight = G;
lastChange = "2026-01-08 23:02:18 +0000";
layers = (
{
anchors = (
{
name = bottom;
pos = (375,0);
},
{
name = top;
pos = (375,730);
}
);
hints = (
{
horizontal = 1;
origin = (0,9);
target = (0,28);
type = Stem;
},
{
horizontal = 1;
origin = (0,4);
target = (0,5);
type = Stem;
},
{
horizontal = 1;
origin = (0,22);
target = (0,15);
type = Stem;
},
{
origin = (0,25);
target = (0,12);
type = Stem;
},
{
origin = (0,6);
target = (0,2);
type = Stem;
}
);
layerId = "05246BF3-0764-4143-87C4-5D2B296D3790";
shapes = (
{
closed = 1;
nodes = (
(585,-10,o),
(666,105,o),
(670,275,cs),
(670,355,l),
(400,355,l),
(400,275,l),
(580,275,l),
(576,125,o),
(525,70,o),
(375,70,cs),
(215,70,o),
(150,200,o),
(150,360,cs),
(150,520,o),
(215,650,o),
(375,650,cs),
(476,650,o),
(539,600,o),
(568,515,c),
(660,515,l),
(624,641,o),
(535,730,o),
(375,730,cs),
(155,730,o),
(60,560,o),
(60,360,cs),
(60,160,o),
(155,-10,o),
(375,-10,cs)
);
}
);
width = 730;
},
{
anchors = (
{
name = bottom;
pos = (365,0);
},
{
name = top;
pos = (365,730);
}
);
hints = (
{
horizontal = 1;
origin = (0,9);
target = (0,28);
type = Stem;
},
{
horizontal = 1;
origin = (0,4);
target = (0,5);
type = Stem;
},
{
horizontal = 1;
origin = (0,22);
target = (0,15);
type = Stem;
},
{
origin = (0,25);
target = (0,12);
type = Stem;
},
{
origin = (0,6);
target = (0,2);
type = Stem;
}
);
layerId = "B51EB05F-9FBB-4087-814F-400611B2D4B0";
shapes = (
{
closed = 1;
nodes = (
(575,-10,o),
(670,75,o),
(670,265,cs),
(670,375,l),
(360,375,l),
(360,265,l),
(520,265,l),
(520,145,o),
(485,110,o),
(365,110,cs),
(225,110,o),
(190,230,o),
(190,360,cs),
(190,490,o),
(225,610,o),
(365,610,cs),
(454,610,o),
(492,567,o),
(513,495,c),
(665,495,l),
(630,637,o),
(539,730,o),
(365,730,cs),
(140,730,o),
(40,575,o),
(40,360,cs),
(40,145,o),
(140,-10,o),
(365,-10,cs)
);
}
);
width = 710;
}
);
subCategory = Uppercase;
unicode = 71;
},
{
glyphname = H;
kernLeft = I;
kernRight = I;
lastChange = "2026-01-08 23:02:18 +0000";
layers = (
{
anchors = (
{
name = bottom;
pos = (358,0);
},
{
name = center;
pos = (358,350);
},
{
name = top;
pos = (358,700);
},
{
name = topleft;
pos = (40,700);
}
);
hints = (
{
horizontal = 1;
origin = (0,11);
target = up;
type = BottomGhost;
},
{
horizontal = 1;
origin = (0,1);
target = (0,8);
type = Stem;
},
{
horizontal = 1;
origin = (0,10);
target = down;
type = TopGhost;
},
{
origin = (0,11);
target = (0,0);
type = Stem;
},
{
origin = (0,3);
target = (0,4);
type = Stem;
}
);
layerId = "05246BF3-0764-4143-87C4-5D2B296D3790";
shapes = (
{
closed = 1;
nodes = (
(180,0,l),
(180,330,l),
(535,330,l),
(535,0,l),
(625,0,l),
(625,720,l),
(535,720,l),
(535,410,l),
(180,410,l),
(180,720,l),
(90,720,l),
(90,0,l)
);
}
);
width = 715;
},
{
anchors = (
{
name = bottom;
pos = (368,0);
},
{
name = center;
pos = (368,350);
},
{
name = top;
pos = (368,700);
},
{
name = topleft;
pos = (50,700);
}
);
hints = (
{
horizontal = 1;
origin = (0,11);
target = up;
type = BottomGhost;
},
{
horizontal = 1;
origin = (0,1);
target = (0,8);
type = Stem;
},
{
horizontal = 1;
origin = (0,10);
target = down;
type = TopGhost;
},
{
origin = (0,11);
target = (0,0);
type = Stem;
},
{
origin = (0,3);
target = (0,4);
type = Stem;
}
);
layerId = "B51EB05F-9FBB-4087-814F-400611B2D4B0";
shapes = (
{
closed = 1;
nodes = (
(220,0,l),
(220,310,l),
(515,310,l),
(515,0,l),
(665,0,l),
(665,720,l),
(515,720,l),
(515,430,l),
(220,430,l),
(220,720,l),
(70,720,l),
(70,0,l)
);
}
);
width = 735;
}
);
subCategory = Uppercase;
unicode = 72;
},
{
glyphname = Hbar;
kernLeft = I;
kernRight = I;
lastChange = "2026-01-08 23:02:18 +0000";
layers = (
{
hints = (
{
horizontal = 1;
origin = (0,19);
target = up;
type = BottomGhost;
},
{
horizontal = 1;
origin = (0,1);
target = (1,3);
type = Stem;
},
{
horizontal = 1;
origin = (0,17);
target = (0,16);
type = Stem;
},
{
horizontal = 1;
origin = (0,17);
target = (0,14);
type = Stem;
},
{
origin = (0,19);
target = (0,0);
type = Stem;
},
{
origin = (0,3);
target = (0,4);
type = Stem;
}
);
layerId = "05246BF3-0764-4143-87C4-5D2B296D3790";
shapes = (
{
closed = 1;
nodes = (
(180,0,l),
(180,330,l),
(535,330,l),
(535,0,l),
(625,0,l),
(625,520,l),
(695,520,l),
(695,600,l),
(625,600,l),
(625,720,l),
(535,720,l),
(535,600,l),
(180,600,l),
(180,720,l),
(90,720,l),
(90,600,l),
(20,600,l),
(20,520,l),
(90,520,l),
(90,0,l)
);
},
{
closed = 1;
nodes = (
(180,520,l),
(535,520,l),
(535,410,l),
(180,410,l)
);
}
);
width = 715;
},
{
hints = (
{
horizontal = 1;
origin = (0,19);
target = up;
type = BottomGhost;
},
{
horizontal = 1;
origin = (0,1);
target = (1,3);
type = Stem;
},
{
horizontal = 1;
origin = (0,17);
target = (0,16);
type = Stem;
},
{
horizontal = 1;
origin = (0,14);
target = (0,17);
type = Stem;
},
{
origin = (0,19);
target = (0,0);
type = Stem;
},
{
origin = (0,3);
target = (0,4);
type = Stem;
}
);
layerId = "B51EB05F-9FBB-4087-814F-400611B2D4B0";
shapes = (
{
closed = 1;
nodes = (
(220,0,l),
(220,310,l),
(515,310,l),
(515,0,l),
(665,0,l),
(665,505,l),
(735,505,l),
(735,615,l),
(665,615,l),
(665,720,l),
(515,720,l),
(515,615,l),
(220,615,l),
(220,720,l),
(70,720,l),
(70,615,l),
(0,615,l),
(0,505,l),
(70,505,l),
(70,0,l)
);
},
{
closed = 1;
nodes = (
(220,505,l),
(515,505,l),
(515,430,l),
(220,430,l)
);
}
);
width = 735;
}
);
subCategory = Uppercase;
unicode = 294;
},
{
glyphname = I;
kernLeft = I;
kernRight = I;
lastChange = "2026-01-08 23:02:18 +0000";
layers = (
{
anchors = (
{
name = bottom;
pos = (135,0);
},
{
name = ogonek;
pos = (243,10);
},
{
name = top;
pos = (135,720);
},
{
name = topleft;
pos = (20,720);
}
);
hints = (
{
horizontal = 1;
origin = (0,3);
target = up;
type = BottomGhost;
},
{
horizontal = 1;
origin = (0,2);
target = down;
type = TopGhost;
},
{
origin = (0,3);
target = (0,0);
type = Stem;
}
);
layerId = "05246BF3-0764-4143-87C4-5D2B296D3790";
shapes = (
{
closed = 1;
nodes = (
(180,0,l),
(180,720,l),
(90,720,l),
(90,0,l)
);
}
);
width = 270;
},
{
anchors = (
{
name = bottom;
pos = (145,0);
},
{
name = ogonek;
pos = (261,10);
},
{
name = top;
pos = (145,720);
},
{
name = topleft;
pos = (20,720);
}
);
hints = (
{
horizontal = 1;
origin = (0,3);
target = up;
type = BottomGhost;
},
{
horizontal = 1;
origin = (0,2);
target = down;
type = TopGhost;
},
{
origin = (0,3);
target = (0,0);
type = Stem;
}
);
layerId = "B51EB05F-9FBB-4087-814F-400611B2D4B0";
shapes = (
{
closed = 1;
nodes = (
(220,0,l),
(220,720,l),
(70,720,l),
(70,0,l)
);
}
);
width = 290;
}
);
subCategory = Uppercase;
unicode = 73;
},
{
glyphname = Iogonek;
lastChange = "2026-01-08 23:02:18 +0000";
layers = (
{
anchors = (
{
name = top;
pos = (136,720);
}
);
hints = (
{
horizontal = 1;
origin = (0,6);
target = up;
type = BottomGhost;
},
{
horizontal = 1;
origin = (0,5);
target = down;
type = TopGhost;
},
{
origin = (0,6);
target = (0,3);
type = Stem;
},
{
horizontal = 1;
place = (-195,71);
type = Stem;
},
{
place = (4,86);
type = Stem;
}
);
layerId = "05246BF3-0764-4143-87C4-5D2B296D3790";
shapes = (
{
closed = 1;
nodes = (
(170,-121,l),
(62,-143,o),
(76,-67,o),
(186,0,c),
(186,720,l),
(96,720,l),
(96,0,l),
(-52,-80,o),
(2,-224,o),
(170,-191,c)
);
}
);
width = 276;
},
{
anchors = (
{
name = top;
pos = (147,720);
}
);
hints = (
{
horizontal = 1;
origin = (0,6);
target = up;
type = BottomGhost;
},
{
horizontal = 1;
origin = (0,5);
target = down;
type = TopGhost;
},
{
origin = (0,6);
target = (0,3);
type = Stem;
},
{
horizontal = 1;
place = (-198,88);
type = Stem;
},
{
place = (-11,146);
type = Stem;
}
);
layerId = "B51EB05F-9FBB-4087-814F-400611B2D4B0";
shapes = (
{
closed = 1;
nodes = (
(216,-105,l),
(108,-127,o),
(112,-67,o),
(222,0,c),
(222,720,l),
(72,720,l),
(72,0,l),
(-87,-86,o),
(0,-233,o),
(216,-190,c)
);
}
);
width = 292;
}
);
subCategory = Uppercase;
unicode = 302;
},
{
glyphname = J;
kernLeft = J;
kernRight = J;
lastChange = "2026-01-08 23:02:18 +0000";
layers = (
{
anchors = (
{
name = bottom;
pos = (247,-10);
},
{
name = top;
pos = (418,720);
}
);
hints = (
{
horizontal = 1;
origin = (0,15);
target = (0,8);
type = Stem;
},
{
horizontal = 1;
origin = (0,4);
target = down;
type = TopGhost;
},
{
origin = (0,12);
target = (0,11);
type = Stem;
},
{
origin = (0,5);
target = (0,2);
type = Stem;
}
);
layerId = "05246BF3-0764-4143-87C4-5D2B296D3790";
shapes = (
{
closed = 1;
nodes = (
(367,-10,o),
(463,60,o),
(463,200,cs),
(463,720,l),
(373,720,l),
(373,200,ls),
(373,110,o),
(327,70,o),
(247,70,cs),
(167,70,o),
(120,110,o),
(120,200,c),
(30,200,l),
(30,60,o),
(127,-10,o),
(247,-10,cs)
);
}
);
width = 543;
},
{
anchors = (
{
name = bottom;
pos = (262,-10);
},
{
name = top;
pos = (430,720);
}
);
hints = (
{
horizontal = 1;
origin = (0,15);
target = (0,8);
type = Stem;
},
{
horizontal = 1;
origin = (0,4);
target = down;
type = TopGhost;
},
{
origin = (0,12);
target = (0,11);
type = Stem;
},
{
origin = (0,5);
target = (0,2);
type = Stem;
}
);
layerId = "B51EB05F-9FBB-4087-814F-400611B2D4B0";
shapes = (
{
closed = 1;
nodes = (
(402,-10,o),
(508,40,o),
(508,200,cs),
(508,720,l),
(358,720,l),
(358,200,ls),
(358,135,o),
(317,110,o),
(262,110,cs),
(197,110,o),
(165,140,o),
(165,225,c),
(15,225,l),
(15,55,o),
(112,-10,o),
(262,-10,cs)
);
}
);
width = 568;
}
);
subCategory = Uppercase;
unicode = 74;
},
{
glyphname = K;
kernLeft = I;
kernRight = K;
lastChange = "2026-01-14 21:42:57 +0000";
layers = (
{
anchors = (
{
name = bottom;
pos = (320,0);
},
{
name = top;
pos = (320,700);
}
);
hints = (
{
horizontal = 1;
origin = (0,11);
target = up;
type = BottomGhost;
},
{
horizontal = 1;
origin = (0,10);
target = down;
type = TopGhost;
},
{
origin = (0,11);
target = (0,0);
type = Stem;
}
);
layerId = "05246BF3-0764-4143-87C4-5D2B296D3790";
shapes = (
{
closed = 1;
nodes = (
(180,0,l),
(180,253,l),
(247,332,l),
(515,0,l),
(620,0,l),
(301,395,l),
(580,720,l),
(475,720,l),
(180,385,l),
(180,720,l),
(90,720,l),
(90,0,l)
);
}
);
width = 650;
},
{
anchors = (
{
name = bottom;
pos = (335,0);
},
{
name = top;
pos = (335,700);
}
);
hints = (
{
horizontal = 1;
origin = (0,11);
target = up;
type = BottomGhost;
},
{
horizontal = 1;
origin = (0,10);
target = down;
type = TopGhost;
},
{
origin = (0,11);
target = (0,0);
type = Stem;
}
);
layerId = "B51EB05F-9FBB-4087-814F-400611B2D4B0";
shapes = (
{
closed = 1;
nodes = (
(225,0,l),
(225,234,l),
(280,297,l),
(520,0,l),
(695,0,l),
(372,400,l),
(655,720,l),
(480,720,l),
(225,430,l),
(225,720,l),
(75,720,l),
(75,0,l)
);
}
);
width = 710;
}
);
subCategory = Uppercase;
unicode = 75;
},
{
glyphname = L;
kernLeft = I;
kernRight = L;
lastChange = "2026-01-08 23:02:18 +0000";
layers = (
{
anchors = (
{
name = bottom;
pos = (263,0);
},
{
name = center;
pos = (323,360);
},
{
name = top;
pos = (263,720);
},
{
name = topright;
pos = (505,720);
}
);
hints = (
{
horizontal = 1;
origin = (0,5);
target = (0,2);
type = Stem;
},
{
horizontal = 1;
origin = (0,4);
target = down;
type = TopGhost;
},
{
origin = (0,5);
target = (0,1);
type = Stem;
}
);
layerId = "05246BF3-0764-4143-87C4-5D2B296D3790";
shapes = (
{
closed = 1;
nodes = (
(495,0,l),
(495,80,l),
(180,80,l),
(180,720,l),
(90,720,l),
(90,0,l)
);
}
);
width = 525;
},
{
anchors = (
{
name = bottom;
pos = (278,0);
},
{
name = center;
pos = (368,360);
},
{
name = top;
pos = (278,720);
},
{
name = topright;
pos = (535,720);
}
);
hints = (
{
horizontal = 1;
origin = (0,5);
target = (0,2);
type = Stem;
},
{
horizontal = 1;
origin = (0,4);
target = down;
type = TopGhost;
},
{
origin = (0,5);
target = (0,1);
type = Stem;
}
);
layerId = "B51EB05F-9FBB-4087-814F-400611B2D4B0";
shapes = (
{
closed = 1;
nodes = (
(545,0,l),
(545,120,l),
(230,120,l),
(230,720,l),
(70,720,l),
(70,0,l)
);
}
);
width = 555;
}
);
subCategory = Uppercase;
unicode = 76;
},
{
glyphname = Lslash;
kernLeft = B;
kernRight = L;
lastChange = "2026-01-08 23:02:18 +0000";
layers = (
{
hints = (
{
horizontal = 1;
origin = (0,1);
target = down;
type = TopGhost;
}
);
layerId = "05246BF3-0764-4143-87C4-5D2B296D3790";
shapes = (
{
closed = 1;
nodes = (
(340,450,l),
(340,520,l),
(30,381,l),
(30,311,l)
);
},
{
pos = (7,0);
ref = L;
}
);
width = 532;
},
{
hints = (
{
horizontal = 1;
origin = (0,1);
target = down;
type = TopGhost;
},
{
origin = (0,3);
target = (0,0);
type = Stem;
}
);
layerId = "B51EB05F-9FBB-4087-814F-400611B2D4B0";
shapes = (
{
closed = 1;
nodes = (
(470,420,l),
(470,530,l),
(90,381,l),
(90,271,l)
);
},
{
pos = (87,0);
ref = L;
}
);
width = 662;
}
);
subCategory = Uppercase;
unicode = 321;
},
{
glyphname = M;
kernLeft = I;
kernRight = I;
lastChange = "2026-01-08 23:02:18 +0000";
layers = (
{
anchors = (
{
name = bottom;
pos = (455,0);
},
{
name = top;
pos = (455,700);
}
);
hints = (
{
horizontal = 1;
origin = (0,15);
target = up;
type = BottomGhost;
},
{
horizontal = 1;
origin = (0,14);
target = (0,1);
type = Stem;
},
{
horizontal = 1;
origin = (0,15);
target = (0,12);
type = Stem;
},
{
origin = (0,15);
target = (0,0);
type = Stem;
},
{
origin = (0,7);
target = (0,8);
type = Stem;
}
);
layerId = "05246BF3-0764-4143-87C4-5D2B296D3790";
shapes = (
{
closed = 1;
nodes = (
(180,0,l),
(180,568,l),
(190,568,l),
(405,0,l),
(505,0,l),
(720,568,l),
(730,568,l),
(730,0,l),
(820,0,l),
(820,720,l),
(690,720,l),
(457,131,l),
(453,131,l),
(220,720,l),
(90,720,l),
(90,0,l)
);
}
);
width = 910;
},
{
anchors = (
{
name = bottom;
pos = (455,0);
},
{
name = top;
pos = (455,700);
}
);
hints = (
{
horizontal = 1;
origin = (0,15);
target = up;
type = BottomGhost;
},
{
horizontal = 1;
origin = (0,14);
target = down;
type = TopGhost;
},
{
horizontal = 1;
origin = (0,14);
target = (0,1);
type = Stem;
},
{
origin = (0,15);
target = (0,0);
type = Stem;
},
{
origin = (0,7);
target = (0,8);
type = Stem;
}
);
layerId = "B51EB05F-9FBB-4087-814F-400611B2D4B0";
shapes = (
{
closed = 1;
nodes = (
(220,0,l),
(220,462,l),
(230,462,l),
(410,0,l),
(500,0,l),
(680,462,l),
(690,462,l),
(690,0,l),
(840,0,l),
(840,720,l),
(650,720,l),
(460,227,l),
(450,227,l),
(260,720,l),
(70,720,l),
(70,0,l)
);
}
);
width = 910;
}
);
subCategory = Uppercase;
unicode = 77;
},
{
glyphname = N;
kernLeft = I;
kernRight = I;
lastChange = "2026-01-08 23:02:18 +0000";
layers = (
{
anchors = (
{
name = bottom;
pos = (380,0);
},
{
name = top;
pos = (380,720);
}
);
hints = (
{
horizontal = 1;
origin = (0,11);
target = (0,8);
type = Stem;
},
{
horizontal = 1;
origin = (0,10);
target = (0,1);
type = Stem;
},
{
origin = (0,11);
target = (0,0);
type = Stem;
},
{
place = (590,85);
type = Stem;
}
);
layerId = "05246BF3-0764-4143-87C4-5D2B296D3790";
shapes = (
{
closed = 1;
nodes = (
(180,0,l),
(180,599,l),
(190,599,l),
(560,0,l),
(680,0,l),
(680,720,l),
(590,720,l),
(590,121,l),
(580,121,l),
(210,720,l),
(90,720,l),
(90,0,l)
);
}
);
width = 770;
},
{
anchors = (
{
name = bottom;
pos = (380,0);
},
{
name = top;
pos = (380,720);
}
);
hints = (
{
horizontal = 1;
origin = (0,11);
target = up;
type = BottomGhost;
},
{
horizontal = 1;
origin = (0,10);
target = down;
type = TopGhost;
},
{
origin = (0,11);
target = (0,0);
type = Stem;
},
{
origin = (0,4);
target = (0,4);
type = Stem;
}
);
layerId = "B51EB05F-9FBB-4087-814F-400611B2D4B0";
shapes = (
{
closed = 1;
nodes = (
(220,0,l),
(220,486,l),
(230,486,l),
(530,0,l),
(690,0,l),
(690,720,l),
(540,720,l),
(540,234,l),
(530,234,l),
(230,720,l),
(70,720,l),
(70,0,l)
);
}
);
width = 760;
}
);
subCategory = Uppercase;
unicode = 78;
},
{
glyphname = Eng;
lastChange = "2026-01-08 23:02:18 +0000";
layers = (
{
anchors = (
{
name = bottom;
pos = (380,0);
},
{
name = top;
pos = (380,720);
}
);
hints = (
{
horizontal = 1;
origin = (0,21);
target = (0,20);
type = Stem;
},
{
origin = (0,16);
target = (0,3);
type = Stem;
},
{
horizontal = 1;
origin = (0,10);
target = (0,7);
type = Stem;
},
{
horizontal = 1;
origin = (0,9);
target = (0,12);
type = Stem;
},
{
origin = (0,10);
target = (0,11);
type = Stem;
},
{
place = (590,85);
type = Stem;
}
);
layerId = "05246BF3-0764-4143-87C4-5D2B296D3790";
shapes = (
{
closed = 1;
nodes = (
(575,-200,ls),
(625,-200,o),
(680,-160,o),
(680,-90,cs),
(680,720,l),
(590,720,l),
(590,121,l),
(580,121,l),
(210,720,l),
(90,720,l),
(90,0,l),
(180,0,l),
(180,599,l),
(190,599,l),
(560,0,l),
(590,0,l),
(590,-90,ls),
(590,-120,o),
(566,-130,o),
(546,-130,cs),
(490,-130,l),
(490,-200,l)
);
}
);
width = 746;
},
{
anchors = (
{
name = bottom;
pos = (380,0);
},
{
name = top;
pos = (380,720);
}
);
hints = (
{
horizontal = 1;
place = (-200,110);
type = Stem;
},
{
place = (540,150);
type = Stem;
},
{
horizontal = 1;
origin = (0,10);
target = up;
type = BottomGhost;
},
{
horizontal = 1;
origin = (0,9);
target = down;
type = TopGhost;
},
{
origin = (0,10);
target = (0,11);
type = Stem;
},
{
origin = (0,15);
target = (0,4);
type = Stem;
}
);
layerId = "B51EB05F-9FBB-4087-814F-400611B2D4B0";
shapes = (
{
closed = 1;
nodes = (
(585,-200,ls),
(635,-200,o),
(690,-160,o),
(690,-90,cs),
(690,720,l),
(540,720,l),
(540,234,l),
(530,234,l),
(230,720,l),
(70,720,l),
(70,0,l),
(220,0,l),
(220,486,l),
(230,486,l),
(530,0,l),
(540,0,l),
(540,-60,ls),
(540,-90,o),
(516,-100,o),
(496,-100,cs),
(470,-100,l),
(470,-200,l)
);
}
);
width = 760;
}
);
subCategory = Uppercase;
unicode = 330;
},
{
glyphname = O;
kernLeft = C;
kernRight = O;
lastChange = "2026-01-08 23:02:18 +0000";
layers = (
{
anchors = (
{
name = bottom;
pos = (375,0);
},
{
name = center;
pos = (375,350);
},
{
name = ogonek;
pos = (647,10);
},
{
name = top;
pos = (375,730);
},
{
name = topleft;
pos = (55,700);
},
{
name = topright;
pos = (695,700);
}
);
hints = (
{
horizontal = 1;
origin = (0,11);
target = (1,11);
type = Stem;
},
{
horizontal = 1;
origin = (0,5);
target = (1,5);
type = Stem;
},
{
origin = (0,8);
target = (1,2);
type = Stem;
},
{
origin = (1,8);
target = (0,2);
type = Stem;
}
);
layerId = "05246BF3-0764-4143-87C4-5D2B296D3790";
shapes = (
{
closed = 1;
nodes = (
(595,-10,o),
(690,160,o),
(690,360,cs),
(690,560,o),
(595,730,o),
(375,730,cs),
(155,730,o),
(60,560,o),
(60,360,cs),
(60,160,o),
(155,-10,o),
(375,-10,cs)
);
},
{
closed = 1;
nodes = (
(215,70,o),
(150,200,o),
(150,360,cs),
(150,520,o),
(215,650,o),
(375,650,cs),
(535,650,o),
(600,520,o),
(600,360,cs),
(600,200,o),
(535,70,o),
(375,70,cs)
);
}
);
width = 750;
},
{
anchors = (
{
name = bottom;
pos = (365,0);
},
{
name = center;
pos = (365,350);
},
{
name = ogonek;
pos = (637,10);
},
{
name = top;
pos = (365,730);
},
{
name = topleft;
pos = (45,700);
},
{
name = topright;
pos = (685,700);
}
);
hints = (
{
horizontal = 1;
origin = (0,11);
target = (1,11);
type = Stem;
},
{
horizontal = 1;
origin = (0,5);
target = (1,5);
type = Stem;
},
{
origin = (0,8);
target = (1,2);
type = Stem;
},
{
origin = (1,8);
target = (0,2);
type = Stem;
}
);
layerId = "B51EB05F-9FBB-4087-814F-400611B2D4B0";
shapes = (
{
closed = 1;
nodes = (
(590,-10,o),
(690,145,o),
(690,360,cs),
(690,575,o),
(590,730,o),
(365,730,cs),
(140,730,o),
(40,575,o),
(40,360,cs),
(40,145,o),
(140,-10,o),
(365,-10,cs)
);
},
{
closed = 1;
nodes = (
(225,110,o),
(190,230,o),
(190,360,cs),
(190,490,o),
(225,610,o),
(365,610,cs),
(505,610,o),
(540,490,o),
(540,360,cs),
(540,230,o),
(505,110,o),
(365,110,cs)
);
}
);
width = 730;
}
);
subCategory = Uppercase;
unicode = 79;
},
{
glyphname = Oslash;
kernLeft = C;
kernRight = O;
lastChange = "2026-01-08 23:02:18 +0000";
layers = (
{
hints = (
{
horizontal = 1;
origin = (0,3);
target = up;
type = BottomGhost;
},
{
horizontal = 1;
origin = (0,2);
target = down;
type = TopGhost;
}
);
layerId = "05246BF3-0764-4143-87C4-5D2B296D3790";
shapes = (
{
closed = 1;
nodes = (
(108,-10,l),
(688,730,l),
(618,730,l),
(38,-10,l)
);
},
{
ref = O;
}
);
width = 726;
},
{
hints = (
{
horizontal = 1;
origin = (0,3);
target = up;
type = BottomGhost;
},
{
horizontal = 1;
origin = (0,2);
target = down;
type = TopGhost;
}
);
layerId = "B51EB05F-9FBB-4087-814F-400611B2D4B0";
shapes = (
{
closed = 1;
nodes = (
(128,-10,l),
(728,730,l),
(618,730,l),
(18,-10,l)
);
},
{
ref = O;
}
);
width = 746;
}
);
subCategory = Uppercase;
unicode = 216;
},
{
glyphname = OE;
kernLeft = C;
kernRight = E;
lastChange = "2026-01-08 23:02:18 +0000";
layers = (
{
hints = (
{
horizontal = 1;
origin = (0,3);
target = (0,6);
type = Stem;
},
{
horizontal = 1;
origin = (0,7);
target = (0,10);
type = Stem;
},
{
horizontal = 1;
origin = (0,14);
target = (0,11);
type = Stem;
},
{
horizontal = 1;
origin = (0,24);
target = (1,11);
type = Stem;
},
{
horizontal = 1;
origin = (0,18);
target = (1,5);
type = Stem;
},
{
origin = (0,21);
target = (1,2);
type = Stem;
},
{
origin = (0,3);
target = (0,5);
type = Stem;
}
);
layerId = "05246BF3-0764-4143-87C4-5D2B296D3790";
shapes = (
{
closed = 1;
nodes = (
(475,-10,o),
(548,24,o),
(600,82,c),
(600,0,l),
(1045,0,l),
(1045,80,l),
(690,80,l),
(690,330,l),
(995,330,l),
(995,410,l),
(690,410,l),
(690,640,l),
(1045,640,l),
(1045,720,l),
(600,720,l),
(600,638,l),
(548,696,o),
(475,730,o),
(375,730,cs),
(155,730,o),
(60,560,o),
(60,360,cs),
(60,160,o),
(155,-10,o),
(375,-10,cs)
);
},
{
closed = 1;
nodes = (
(215,70,o),
(150,200,o),
(150,360,cs),
(150,520,o),
(215,650,o),
(375,650,cs),
(535,650,o),
(600,520,o),
(600,360,cs),
(600,200,o),
(535,70,o),
(375,70,cs)
);
}
);
width = 1115;
},
{
hints = (
{
horizontal = 1;
origin = (0,3);
target = (0,6);
type = Stem;
},
{
horizontal = 1;
origin = (0,7);
target = (0,10);
type = Stem;
},
{
horizontal = 1;
origin = (0,14);
target = (0,11);
type = Stem;
},
{
horizontal = 1;
origin = (0,24);
target = (1,11);
type = Stem;
},
{
horizontal = 1;
origin = (0,18);
target = (1,5);
type = Stem;
},
{
origin = (0,21);
target = (1,2);
type = Stem;
},
{
origin = (0,3);
target = (0,5);
type = Stem;
}
);
layerId = "B51EB05F-9FBB-4087-814F-400611B2D4B0";
shapes = (
{
closed = 1;
nodes = (
(435,-10,o),
(493,5,o),
(540,32,c),
(540,0,l),
(1015,0,l),
(1015,120,l),
(690,120,l),
(690,310,l),
(965,310,l),
(965,430,l),
(690,430,l),
(690,600,l),
(1015,600,l),
(1015,720,l),
(540,720,l),
(540,688,l),
(493,715,o),
(435,730,o),
(365,730,cs),
(140,730,o),
(40,575,o),
(40,360,cs),
(40,145,o),
(140,-10,o),
(365,-10,cs)
);
},
{
closed = 1;
nodes = (
(225,110,o),
(190,230,o),
(190,360,cs),
(190,490,o),
(225,610,o),
(365,610,cs),
(505,610,o),
(540,490,o),
(540,360,cs),
(540,230,o),
(505,110,o),
(365,110,cs)
);
}
);
width = 1065;
}
);
subCategory = Uppercase;
unicode = 338;
},
{
glyphname = P;
kernLeft = I;
kernRight = P;
lastChange = "2026-01-08 23:02:18 +0000";
layers = (
{
anchors = (
{
name = bottom;
pos = (313,0);
},
{
name = top;
pos = (313,700);
}
);
hints = (
{
horizontal = 1;
origin = (0,10);
target = up;
type = BottomGhost;
},
{
horizontal = 1;
origin = (0,1);
target = (1,8);
type = Stem;
},
{
horizontal = 1;
origin = (0,9);
target = (1,0);
type = Stem;
},
{
origin = (0,10);
target = (0,0);
type = Stem;
},
{
origin = (1,4);
target = (0,5);
type = Stem;
}
);
layerId = "05246BF3-0764-4143-87C4-5D2B296D3790";
shapes = (
{
closed = 1;
nodes = (
(180,0,l),
(180,260,l),
(320,260,ls),
(500,260,o),
(570,360,o),
(570,490,cs),
(570,620,o),
(500,720,o),
(320,720,cs),
(90,720,l),
(90,0,l)
);
},
{
closed = 1;
nodes = (
(180,640,l),
(320,640,ls),
(430,640,o),
(480,600,o),
(480,490,cs),
(480,380,o),
(430,340,o),
(320,340,cs),
(180,340,l)
);
}
);
width = 620;
},
{
anchors = (
{
name = bottom;
pos = (323,0);
},
{
name = top;
pos = (323,700);
}
);
hints = (
{
horizontal = 1;
origin = (0,10);
target = up;
type = BottomGhost;
},
{
horizontal = 1;
origin = (0,1);
target = (1,8);
type = Stem;
},
{
horizontal = 1;
origin = (0,9);
target = (1,0);
type = Stem;
},
{
origin = (0,10);
target = (0,0);
type = Stem;
},
{
origin = (1,4);
target = (0,5);
type = Stem;
}
);
layerId = "B51EB05F-9FBB-4087-814F-400611B2D4B0";
shapes = (
{
closed = 1;
nodes = (
(220,0,l),
(220,240,l),
(330,240,ls),
(530,240,o),
(610,335,o),
(610,480,cs),
(610,625,o),
(530,720,o),
(330,720,cs),
(70,720,l),
(70,0,l)
);
},
{
closed = 1;
nodes = (
(220,600,l),
(330,600,ls),
(415,600,o),
(460,565,o),
(460,480,cs),
(460,395,o),
(415,360,o),
(330,360,cs),
(220,360,l)
);
}
);
width = 640;
}
);
subCategory = Uppercase;
unicode = 80;
},
{
glyphname = Thorn;
kernLeft = B;
kernRight = Thorn;
lastChange = "2026-01-08 23:02:18 +0000";
layers = (
{
hints = (
{
horizontal = 1;
origin = (0,12);
target = up;
type = BottomGhost;
},
{
horizontal = 1;
origin = (0,1);
target = (1,8);
type = Stem;
},
{
horizontal = 1;
origin = (1,0);
target = (0,9);
type = Stem;
},
{
horizontal = 1;
origin = (0,11);
target = down;
type = TopGhost;
},
{
origin = (0,12);
target = (0,0);
type = Stem;
},
{
origin = (1,4);
target = (0,5);
type = Stem;
}
);
layerId = "05246BF3-0764-4143-87C4-5D2B296D3790";
shapes = (
{
closed = 1;
nodes = (
(170,0,l),
(170,170,l),
(330,170,ls),
(490,170,o),
(560,260,o),
(560,370,cs),
(560,480,o),
(490,570,o),
(330,570,cs),
(170,570,l),
(170,720,l),
(90,720,l),
(90,0,l)
);
},
{
closed = 1;
nodes = (
(170,500,l),
(330,500,ls),
(420,500,o),
(480,460,o),
(480,370,cs),
(480,280,o),
(420,240,o),
(330,240,cs),
(170,240,l)
);
}
);
width = 600;
},
{
hints = (
{
horizontal = 1;
origin = (0,12);
target = up;
type = BottomGhost;
},
{
horizontal = 1;
origin = (0,1);
target = (1,8);
type = Stem;
},
{
horizontal = 1;
origin = (1,0);
target = (0,9);
type = Stem;
},
{
horizontal = 1;
origin = (0,11);
target = down;
type = TopGhost;
},
{
origin = (0,12);
target = (0,0);
type = Stem;
},
{
origin = (1,4);
target = (0,5);
type = Stem;
}
);
layerId = "B51EB05F-9FBB-4087-814F-400611B2D4B0";
shapes = (
{
closed = 1;
nodes = (
(200,0,l),
(200,170,l),
(330,170,ls),
(505,170,o),
(590,245,o),
(590,370,cs),
(590,495,o),
(505,570,o),
(330,570,cs),
(200,570,l),
(200,720,l),
(70,720,l),
(70,0,l)
);
},
{
closed = 1;
nodes = (
(200,460,l),
(330,460,ls),
(400,460,o),
(440,440,o),
(440,370,cs),
(440,300,o),
(400,280,o),
(330,280,cs),
(200,280,l)
);
}
);
width = 610;
}
);
subCategory = Uppercase;
unicode = 222;
},
{
glyphname = Q;
kernLeft = C;
kernRight = O;
lastChange = "2026-01-08 23:02:18 +0000";
layers = (
{
anchors = (
{
name = bottom;
pos = (363,0);
},
{
name = top;
pos = (360,700);
}
);
hints = (
{
horizontal = 1;
origin = (0,11);
target = (0,2);
type = Stem;
},
{
origin = (0,7);
target = (0,0);
type = Stem;
}
);
layerId = "05246BF3-0764-4143-87C4-5D2B296D3790";
shapes = (
{
closed = 1;
nodes = (
(544,-160,l),
(544,-80,l),
(488,-80,ls),
(472,-80,o),
(453,-72,o),
(446,-54,cs),
(413,40,l),
(313,40,l),
(361,-92,ls),
(377,-135,o),
(420,-160,o),
(459,-160,cs)
);
},
{
ref = O;
}
);
width = 750;
},
{
anchors = (
{
name = bottom;
pos = (373,0);
},
{
name = top;
pos = (360,700);
}
);
hints = (
{
horizontal = 1;
origin = (0,11);
target = (0,2);
type = Stem;
},
{
origin = (0,7);
target = (0,0);
type = Stem;
}
);
layerId = "B51EB05F-9FBB-4087-814F-400611B2D4B0";
shapes = (
{
closed = 1;
nodes = (
(584,-160,l),
(584,-50,l),
(528,-50,ls),
(502,-50,o),
(487,-46,o),
(478,-24,cs),
(453,40,l),
(293,40,l),
(341,-92,ls),
(357,-135,o),
(400,-160,o),
(439,-160,cs)
);
},
{
ref = O;
}
);
width = 730;
}
);
subCategory = Uppercase;
unicode = 81;
},
{
glyphname = R;
kernLeft = I;
kernRight = R;
lastChange = "2026-01-08 23:05:23 +0000";
layers = (
{
anchors = (
{
name = bottom;
pos = (333,0);
},
{
name = top;
pos = (333,720);
}
);
hints = (
{
horizontal = 1;
origin = (0,16);
target = up;
type = BottomGhost;
},
{
horizontal = 1;
origin = (0,1);
target = (1,8);
type = Stem;
},
{
horizontal = 1;
origin = (0,15);
target = (1,0);
type = Stem;
},
{
origin = (0,16);
target = (0,0);
type = Stem;
},
{
origin = (1,4);
target = (0,11);
type = Stem;
}
);
layerId = "05246BF3-0764-4143-87C4-5D2B296D3790";
shapes = (
{
closed = 1;
nodes = (
(180,0,l),
(180,260,l),
(340,260,ls),
(351,260,o),
(361,260,o),
(371,261,c),
(515,0,l),
(615,0,l),
(461,280,l),
(553,316,o),
(590,395,o),
(590,490,cs),
(590,620,o),
(520,720,o),
(340,720,cs),
(90,720,l),
(90,0,l)
);
},
{
closed = 1;
nodes = (
(180,640,l),
(340,640,ls),
(450,640,o),
(500,600,o),
(500,490,cs),
(500,380,o),
(450,340,o),
(340,340,cs),
(180,340,l)
);
}
);
width = 665;
},
{
anchors = (
{
name = bottom;
pos = (333,0);
},
{
name = top;
pos = (333,720);
}
);
hints = (
{
horizontal = 1;
origin = (0,16);
target = up;
type = BottomGhost;
},
{
horizontal = 1;
origin = (0,1);
target = (1,8);
type = Stem;
},
{
horizontal = 1;
origin = (0,15);
target = (1,0);
type = Stem;
},
{
origin = (0,16);
target = (0,0);
type = Stem;
},
{
origin = (1,4);
target = (0,11);
type = Stem;
}
);
layerId = "B51EB05F-9FBB-4087-814F-400611B2D4B0";
shapes = (
{
closed = 1;
nodes = (
(220,0,l),
(220,240,l),
(328,240,ls),
(333,240,o),
(338,240,o),
(343,240,c),
(475,0,l),
(635,0,l),
(488,268,l),
(573,306,o),
(610,382,o),
(610,480,cs),
(610,625,o),
(530,720,o),
(330,720,cs),
(70,720,l),
(70,0,l)
);
},
{
closed = 1;
nodes = (
(220,600,l),
(330,600,ls),
(415,600,o),
(460,565,o),
(460,480,cs),
(460,395,o),
(415,360,o),
(330,360,cs),
(220,360,l)
);
}
);
width = 665;
}
);
subCategory = Uppercase;
unicode = 82;
},
{
glyphname = S;
kernLeft = S;
kernRight = S;
lastChange = "2026-01-08 23:02:18 +0000";
layers = (
{
anchors = (
{
name = bottom;
pos = (308,0);
},
{
name = top;
pos = (308,729);
}
);
hints = (
{
horizontal = 1;
origin = (0,30);
target = (0,37);
type = Stem;
},
{
horizontal = 1;
origin = (0,18);
target = (0,11);
type = Stem;
},
{
origin = (0,21);
target = (0,8);
type = Stem;
},
{
origin = (0,27);
target = (0,2);
type = Stem;
}
);
layerId = "05246BF3-0764-4143-87C4-5D2B296D3790";
shapes = (
{
closed = 1;
nodes = (
(478,-10,o),
(580,63,o),
(580,203,cs),
(580,303,o),
(542,380,o),
(318,412,cs),
(232,424,o),
(160,463,o),
(160,523,cs),
(160,593,o),
(218,649,o),
(308,649,cs),
(397,649,o),
(452,611,o),
(471,540,c),
(565,540,l),
(537,652,o),
(457,729,o),
(308,729,cs),
(178,729,o),
(70,643,o),
(70,523,cs),
(70,413,o),
(139,342,o),
(298,322,cs),
(405,309,o),
(490,283,o),
(490,203,cs),
(490,113,o),
(418,70,o),
(308,70,cs),
(216,70,o),
(141,120,o),
(132,185,c),
(40,185,l),
(58,60,o),
(167,-10,o),
(308,-10,cs)
);
}
);
width = 640;
},
{
anchors = (
{
name = bottom;
pos = (320,0);
},
{
name = top;
pos = (320,729);
}
);
hints = (
{
horizontal = 1;
origin = (0,37);
target = (0,30);
type = Stem;
},
{
horizontal = 1;
origin = (0,18);
target = (0,11);
type = Stem;
},
{
origin = (0,21);
target = (0,8);
type = Stem;
},
{
origin = (0,27);
target = (0,2);
type = Stem;
}
);
layerId = "B51EB05F-9FBB-4087-814F-400611B2D4B0";
shapes = (
{
closed = 1;
nodes = (
(510,-10,o),
(612,53,o),
(612,203,cs),
(612,323,o),
(548,403,o),
(330,432,cs),
(244,443,o),
(202,483,o),
(202,523,cs),
(202,588,o),
(255,619,o),
(320,619,cs),
(388,619,o),
(427,578,o),
(439,520,c),
(593,520,l),
(573,647,o),
(483,729,o),
(320,729,cs),
(180,729,o),
(52,663,o),
(52,523,cs),
(52,393,o),
(137,313,o),
(310,292,cs),
(398,281,o),
(462,253,o),
(462,203,cs),
(462,133,o),
(400,110,o),
(320,110,cs),
(250,110,o),
(201,135,o),
(179,205,c),
(25,205,l),
(44,74,o),
(144,-10,o),
(320,-10,cs)
);
}
);
width = 642;
}
);
subCategory = Uppercase;
unicode = 83;
},
{
glyphname = Germandbls;
lastChange = "2026-01-08 23:02:18 +0000";
layers = (
{
layerId = "05246BF3-0764-4143-87C4-5D2B296D3790";
shapes = (
{
closed = 1;
nodes = (
(155,0,l),
(155,540,ls),
(155,610,o),
(185,660,o),
(265,660,cs),
(345,660,o),
(375,610,o),
(375,540,cs),
(375,460,o),
(255,490,o),
(255,380,cs),
(255,240,o),
(434,320,o),
(434,170,cs),
(434,90,o),
(355,70,o),
(275,70,cs),
(255,70,l),
(255,0,l),
(275,0,ls),
(385,0,o),
(514,23,o),
(514,170,cs),
(514,350,o),
(335,320,o),
(335,380,cs),
(335,440,o),
(455,420,o),
(455,540,cs),
(455,650,o),
(385,730,o),
(265,730,cs),
(145,730,o),
(75,650,o),
(75,540,cs),
(75,0,l)
);
}
);
width = 564;
},
{
layerId = "B51EB05F-9FBB-4087-814F-400611B2D4B0";
shapes = (
{
closed = 1;
nodes = (
(210,0,l),
(210,540,ls),
(210,590,o),
(235,620,o),
(295,620,cs),
(355,620,o),
(375,590,o),
(375,540,cs),
(375,475,o),
(255,505,o),
(255,380,cs),
(255,225,o),
(432,305,o),
(432,170,cs),
(432,105,o),
(370,110,o),
(315,110,cs),
(255,110,l),
(255,0,l),
(315,0,ls),
(440,0,o),
(582,8,o),
(582,170,cs),
(582,365,o),
(405,335,o),
(405,380,cs),
(405,425,o),
(525,405,o),
(525,540,cs),
(525,665,o),
(430,730,o),
(295,730,cs),
(160,730,o),
(60,665,o),
(60,540,cs),
(60,0,l)
);
}
);
width = 622;
}
);
subCategory = Uppercase;
unicode = 7838;
},
{
glyphname = T;
kernLeft = T;
kernRight = T;
lastChange = "2026-01-08 23:02:18 +0000";
layers = (
{
anchors = (
{
name = bottom;
pos = (305,0);
},
{
name = center;
pos = (305,350);
},
{
name = top;
pos = (305,720);
}
);
hints = (
{
horizontal = 1;
origin = (0,7);
target = up;
type = BottomGhost;
},
{
horizontal = 1;
origin = (0,4);
target = (0,5);
type = Stem;
},
{
origin = (0,7);
target = (0,0);
type = Stem;
}
);
layerId = "05246BF3-0764-4143-87C4-5D2B296D3790";
shapes = (
{
closed = 1;
nodes = (
(350,0,l),
(350,640,l),
(580,640,l),
(580,720,l),
(30,720,l),
(30,640,l),
(260,640,l),
(260,0,l)
);
}
);
width = 610;
},
{
anchors = (
{
name = bottom;
pos = (295,0);
},
{
name = center;
pos = (295,350);
},
{
name = top;
pos = (295,720);
}
);
hints = (
{
horizontal = 1;
origin = (0,7);
target = up;
type = BottomGhost;
},
{
horizontal = 1;
origin = (0,4);
target = (0,5);
type = Stem;
},
{
origin = (0,7);
target = (0,0);
type = Stem;
}
);
layerId = "B51EB05F-9FBB-4087-814F-400611B2D4B0";
shapes = (
{
closed = 1;
nodes = (
(370,0,l),
(370,600,l),
(570,600,l),
(570,720,l),
(20,720,l),
(20,600,l),
(220,600,l),
(220,0,l)
);
}
);
width = 590;
}
);
subCategory = Uppercase;
unicode = 84;
},
{
glyphname = Tbar;
kernLeft = T;
kernRight = T;
lastChange = "2026-01-08 23:02:18 +0000";
layers = (
{
hints = (
{
horizontal = 1;
origin = (0,3);
target = (0,2);
type = Stem;
}
);
layerId = "05246BF3-0764-4143-87C4-5D2B296D3790";
shapes = (
{
closed = 1;
nodes = (
(487,315,l),
(487,385,l),
(87,385,l),
(87,315,l)
);
},
{
ref = T;
}
);
width = 574;
},
{
hints = (
{
horizontal = 1;
origin = (0,3);
target = (0,2);
type = Stem;
},
{
origin = (0,3);
target = (0,0);
type = Stem;
}
);
layerId = "B51EB05F-9FBB-4087-814F-400611B2D4B0";
shapes = (
{
closed = 1;
nodes = (
(497,296,l),
(497,406,l),
(77,406,l),
(77,296,l)
);
},
{
ref = T;
}
);
width = 574;
}
);
subCategory = Uppercase;
unicode = 358;
},
{
glyphname = Tcaron;
kernLeft = T;
kernRight = T;
lastChange = "2026-01-08 23:02:18 +0000";
layers = (
{
anchors = (
{
name = top;
pos = (305,900);
}
);
hints = (
{
horizontal = 1;
origin = (0,4);
target = (0,7);
type = Stem;
},
{
horizontal = 1;
origin = (0,7);
target = (0,6);
type = Stem;
}
);
layerId = "05246BF3-0764-4143-87C4-5D2B296D3790";
shapes = (
{
closed = 1;
nodes = (
(345,790,l),
(455,930,l),
(375,930,l),
(310,843,l),
(300,843,l),
(235,930,l),
(155,930,l),
(265,790,l)
);
},
{
ref = T;
}
);
width = 610;
},
{
anchors = (
{
name = top;
pos = (295,890);
}
);
hints = (
{
horizontal = 1;
origin = (0,7);
target = (0,4);
type = Stem;
},
{
horizontal = 1;
origin = (0,6);
target = (0,7);
type = Stem;
},
{
origin = (0,6);
target = (0,1);
type = Stem;
}
);
layerId = "B51EB05F-9FBB-4087-814F-400611B2D4B0";
shapes = (
{
closed = 1;
nodes = (
(355,780,l),
(465,920,l),
(345,920,l),
(300,859,l),
(290,859,l),
(245,920,l),
(125,920,l),
(235,780,l)
);
},
{
ref = T;
}
);
width = 590;
}
);
subCategory = Uppercase;
unicode = 356;
},
{
glyphname = U;
kernLeft = U;
kernRight = U;
lastChange = "2026-01-08 23:02:18 +0000";
layers = (
{
anchors = (
{
name = bottom;
pos = (305,-5);
},
{
name = ogonek;
pos = (587,10);
},
{
name = top;
pos = (345,720);
},
{
name = topright;
pos = (630,700);
}
);
hints = (
{
horizontal = 1;
origin = (0,8);
target = (0,17);
type = Stem;
},
{
horizontal = 1;
origin = (0,13);
target = down;
type = TopGhost;
},
{
origin = (0,14);
target = (0,11);
type = Stem;
},
{
origin = (0,5);
target = (0,2);
type = Stem;
}
);
layerId = "05246BF3-0764-4143-87C4-5D2B296D3790";
shapes = (
{
closed = 1;
nodes = (
(545,-10,o),
(610,90,o),
(610,250,cs),
(610,720,l),
(520,720,l),
(520,250,ls),
(520,120,o),
(465,70,o),
(345,70,cs),
(225,70,o),
(170,120,o),
(170,250,cs),
(170,720,l),
(80,720,l),
(80,250,ls),
(80,90,o),
(145,-10,o),
(345,-10,cs)
);
}
);
width = 690;
},
{
anchors = (
{
name = bottom;
pos = (305,1);
},
{
name = ogonek;
pos = (587,10);
},
{
name = top;
pos = (345,720);
},
{
name = topright;
pos = (630,700);
}
);
hints = (
{
horizontal = 1;
origin = (0,17);
target = (0,8);
type = Stem;
},
{
horizontal = 1;
origin = (0,13);
target = down;
type = TopGhost;
},
{
origin = (0,14);
target = (0,11);
type = Stem;
},
{
origin = (0,5);
target = (0,2);
type = Stem;
}
);
layerId = "B51EB05F-9FBB-4087-814F-400611B2D4B0";
shapes = (
{
closed = 1;
nodes = (
(555,-10,o),
(630,80,o),
(630,250,cs),
(630,720,l),
(480,720,l),
(480,250,ls),
(480,150,o),
(435,110,o),
(345,110,cs),
(255,110,o),
(210,150,o),
(210,250,cs),
(210,720,l),
(60,720,l),
(60,250,ls),
(60,80,o),
(135,-10,o),
(345,-10,cs)
);
}
);
width = 690;
}
);
subCategory = Uppercase;
unicode = 85;
},
{
glyphname = Uogonek;
kernLeft = U;
kernRight = U;
lastChange = "2026-01-08 23:02:18 +0000";
layers = (
{
anchors = (
{
name = bottom;
pos = (305,-5);
},
{
name = ogonek;
pos = (587,10);
},
{
name = top;
pos = (345,720);
},
{
name = topright;
pos = (630,700);
}
);
hints = (
{
horizontal = 1;
origin = (0,12);
target = (0,3);
type = Stem;
},
{
horizontal = 1;
origin = (0,17);
target = down;
type = TopGhost;
},
{
origin = (0,18);
target = (0,15);
type = Stem;
},
{
origin = (0,9);
target = (0,6);
type = Stem;
},
{
horizontal = 1;
place = (-200,71);
type = Stem;
},
{
place = (213,86);
type = Stem;
}
);
layerId = "05246BF3-0764-4143-87C4-5D2B296D3790";
shapes = (
{
closed = 1;
nodes = (
(379,-126,l),
(272,-148,o),
(285,-74,o),
(390,-8,c),
(554,6,o),
(610,103,o),
(610,250,cs),
(610,720,l),
(520,720,l),
(520,250,ls),
(520,120,o),
(465,70,o),
(345,70,cs),
(225,70,o),
(170,120,o),
(170,250,cs),
(170,720,l),
(80,720,l),
(80,250,ls),
(80,103,o),
(136,6,o),
(299,-8,c),
(159,-88,o),
(212,-229,o),
(379,-196,c)
);
}
);
width = 690;
},
{
anchors = (
{
name = bottom;
pos = (305,1);
},
{
name = ogonek;
pos = (587,10);
},
{
name = top;
pos = (345,720);
},
{
name = topright;
pos = (630,700);
}
);
hints = (
{
horizontal = 1;
origin = (0,21);
target = (0,12);
type = Stem;
},
{
horizontal = 1;
origin = (0,17);
target = down;
type = TopGhost;
},
{
origin = (0,18);
target = (0,15);
type = Stem;
},
{
origin = (0,9);
target = (0,6);
type = Stem;
},
{
horizontal = 1;
place = (-197,88);
type = Stem;
},
{
place = (222,146);
type = Stem;
}
);
layerId = "B51EB05F-9FBB-4087-814F-400611B2D4B0";
shapes = (
{
closed = 1;
nodes = (
(449,-104,l),
(341,-126,o),
(346,-66,o),
(454,0,c),
(582,29,o),
(630,114,o),
(630,250,cs),
(630,720,l),
(480,720,l),
(480,250,ls),
(480,150,o),
(435,110,o),
(345,110,cs),
(255,110,o),
(210,150,o),
(210,250,cs),
(210,720,l),
(60,720,l),
(60,250,ls),
(60,96,o),
(122,7,o),
(290,-8,c),
(153,-94,o),
(239,-231,o),
(449,-189,c)
);
}
);
width = 690;
}
);
subCategory = Uppercase;
unicode = 370;
},
{
glyphname = V;
kernLeft = V;
kernRight = V;
lastChange = "2026-01-08 23:02:18 +0000";
layers = (
{
anchors = (
{
name = bottom;
pos = (304,0);
},
{
name = top;
pos = (304,700);
}
);
hints = (
{
horizontal = 1;
origin = (0,7);
target = (0,4);
type = Stem;
},
{
horizontal = 1;
origin = (0,6);
target = down;
type = TopGhost;
}
);
layerId = "05246BF3-0764-4143-87C4-5D2B296D3790";
shapes = (
{
closed = 1;
nodes = (
(369,0,l),
(624,720,l),
(530,720,l),
(324,130,l),
(320,130,l),
(114,720,l),
(20,720,l),
(275,0,l)
);
}
);
width = 644;
},
{
anchors = (
{
name = bottom;
pos = (324,0);
},
{
name = top;
pos = (324,700);
}
);
hints = (
{
horizontal = 1;
origin = (0,7);
target = (0,4);
type = Stem;
},
{
horizontal = 1;
origin = (0,6);
target = down;
type = TopGhost;
}
);
layerId = "B51EB05F-9FBB-4087-814F-400611B2D4B0";
shapes = (
{
closed = 1;
nodes = (
(419,0,l),
(674,720,l),
(524,720,l),
(347,203,l),
(337,203,l),
(160,720,l),
(10,720,l),
(265,0,l)
);
}
);
width = 684;
}
);
subCategory = Uppercase;
unicode = 86;
},
{
glyphname = W;
kernLeft = W;
kernRight = V;
lastChange = "2026-01-08 23:02:18 +0000";
layers = (
{
anchors = (
{
name = bottom;
pos = (487,0);
},
{
name = top;
pos = (487,720);
}
);
hints = (
{
horizontal = 1;
origin = (0,15);
target = (0,12);
type = Stem;
},
{
horizontal = 1;
origin = (0,14);
target = down;
type = TopGhost;
},
{
horizontal = 1;
origin = (0,15);
target = up;
type = BottomGhost;
},
{
horizontal = 1;
origin = (0,14);
target = (0,1);
type = Stem;
}
);
layerId = "05246BF3-0764-4143-87C4-5D2B296D3790";
shapes = (
{
closed = 1;
nodes = (
(329,0,l),
(485,570,l),
(489,570,l),
(645,0,l),
(739,0,l),
(944,720,l),
(850,720,l),
(694,150,l),
(690,150,l),
(534,720,l),
(440,720,l),
(284,150,l),
(280,150,l),
(124,720,l),
(30,720,l),
(235,0,l)
);
}
);
width = 974;
},
{
anchors = (
{
name = bottom;
pos = (499,0);
},
{
name = top;
pos = (499,720);
}
);
hints = (
{
horizontal = 1;
origin = (0,15);
target = (0,12);
type = Stem;
},
{
horizontal = 1;
origin = (0,14);
target = down;
type = TopGhost;
}
);
layerId = "B51EB05F-9FBB-4087-814F-400611B2D4B0";
shapes = (
{
closed = 1;
nodes = (
(369,0,l),
(494,483,l),
(504,483,l),
(629,0,l),
(783,0,l),
(988,720,l),
(838,720,l),
(711,237,l),
(701,237,l),
(574,720,l),
(424,720,l),
(297,237,l),
(287,237,l),
(160,720,l),
(10,720,l),
(215,0,l)
);
}
);
width = 998;
}
);
subCategory = Uppercase;
unicode = 87;
},
{
glyphname = X;
kernLeft = X;
kernRight = X;
lastChange = "2026-01-08 23:02:18 +0000";
layers = (
{
anchors = (
{
name = bottom;
pos = (348,0);
},
{
name = top;
pos = (348,700);
}
);
hints = (
{
horizontal = 1;
origin = (0,13);
target = up;
type = BottomGhost;
},
{
horizontal = 1;
origin = (0,11);
target = down;
type = TopGhost;
}
);
layerId = "05246BF3-0764-4143-87C4-5D2B296D3790";
shapes = (
{
closed = 1;
nodes = (
(142,0,l),
(350,311,l),
(354,311,l),
(562,0,l),
(664,0,l),
(406,390,l),
(624,720,l),
(522,720,l),
(354,469,l),
(350,469,l),
(182,720,l),
(80,720,l),
(298,390,l),
(40,0,l)
);
}
);
width = 704;
},
{
anchors = (
{
name = bottom;
pos = (358,0);
},
{
name = top;
pos = (358,700);
}
);
hints = (
{
horizontal = 1;
origin = (0,13);
target = up;
type = BottomGhost;
},
{
horizontal = 1;
origin = (0,11);
target = down;
type = TopGhost;
}
);
layerId = "B51EB05F-9FBB-4087-814F-400611B2D4B0";
shapes = (
{
closed = 1;
nodes = (
(178,0,l),
(355,269,l),
(365,269,l),
(542,0,l),
(700,0,l),
(444,390,l),
(660,720,l),
(502,720,l),
(365,511,l),
(355,511,l),
(218,720,l),
(60,720,l),
(276,390,l),
(20,0,l)
);
}
);
width = 720;
}
);
subCategory = Uppercase;
unicode = 88;
},
{
glyphname = Y;
kernLeft = Y;
kernRight = Y;
lastChange = "2026-01-14 21:46:47 +0000";
layers = (
{
anchors = (
{
name = bottom;
pos = (290,0);
},
{
name = top;
pos = (290,720);
},
{
name = topleft;
pos = (20,700);
}
);
hints = (
{
horizontal = 1;
origin = (0,9);
target = up;
type = BottomGhost;
},
{
horizontal = 1;
origin = (0,7);
target = down;
type = TopGhost;
},
{
origin = (0,9);
target = (0,0);
type = Stem;
}
);
layerId = "05246BF3-0764-4143-87C4-5D2B296D3790";
shapes = (
{
closed = 1;
nodes = (
(335,0,l),
(335,300,l),
(560,720,l),
(465,720,l),
(292,390,l),
(288,390,l),
(115,720,l),
(20,720,l),
(245,300,l),
(245,0,l)
);
}
);
width = 580;
},
{
anchors = (
{
name = bottom;
pos = (310,0);
},
{
name = top;
pos = (310,720);
},
{
name = topleft;
pos = (40,700);
}
);
hints = (
{
horizontal = 1;
origin = (0,9);
target = up;
type = BottomGhost;
},
{
horizontal = 1;
origin = (0,7);
target = down;
type = TopGhost;
},
{
origin = (0,9);
target = (0,0);
type = Stem;
}
);
layerId = "B51EB05F-9FBB-4087-814F-400611B2D4B0";
shapes = (
{
closed = 1;
nodes = (
(385,0,l),
(385,300,l),
(610,720,l),
(460,720,l),
(315,444,l),
(305,444,l),
(160,720,l),
(10,720,l),
(235,300,l),
(235,0,l)
);
}
);
width = 620;
}
);
subCategory = Uppercase;
unicode = 89;
},
{
glyphname = Z;
kernLeft = Z;
kernRight = Z;
lastChange = "2026-01-08 23:02:18 +0000";
layers = (
{
anchors = (
{
name = bottom;
pos = (278,0);
},
{
name = center;
pos = (278,350);
},
{
name = top;
pos = (278,700);
}
);
hints = (
{
horizontal = 1;
origin = (0,9);
target = (0,8);
type = Stem;
},
{
horizontal = 1;
origin = (0,5);
target = (0,6);
type = Stem;
}
);
layerId = "05246BF3-0764-4143-87C4-5D2B296D3790";
shapes = (
{
closed = 1;
nodes = (
(515,0,l),
(515,80,l),
(140,80,l),
(515,640,l),
(515,720,l),
(45,720,l),
(45,640,l),
(415,640,l),
(40,80,l),
(40,0,l)
);
}
);
width = 555;
},
{
anchors = (
{
name = bottom;
pos = (298,0);
},
{
name = center;
pos = (298,350);
},
{
name = top;
pos = (300,720);
}
);
hints = (
{
horizontal = 1;
origin = (0,9);
target = (0,8);
type = Stem;
},
{
horizontal = 1;
origin = (0,5);
target = (0,6);
type = Stem;
}
);
layerId = "B51EB05F-9FBB-4087-814F-400611B2D4B0";
shapes = (
{
closed = 1;
nodes = (
(565,0,l),
(565,120,l),
(200,120,l),
(565,600,l),
(565,720,l),
(35,720,l),
(35,600,l),
(395,600,l),
(30,120,l),
(30,0,l)
);
}
);
width = 595;
}
);
subCategory = Uppercase;
unicode = 90;
},
{
glyphname = gstroke;
lastChange = "2026-01-08 23:02:18 +0000";
layers = (
{
layerId = "05246BF3-0764-4143-87C4-5D2B296D3790";
shapes = (
{
closed = 1;
nodes = (
(600,255,l),
(600,315,l),
(300,315,l),
(300,255,l)
);
},
{
ref = g;
}
);
width = 615;
},
{
layerId = "B51EB05F-9FBB-4087-814F-400611B2D4B0";
shapes = (
{
closed = 1;
nodes = (
(640,245,l),
(640,325,l),
(320,325,l),
(320,245,l)
);
},
{
ref = g;
}
);
width = 645;
}
);
unicode = 485;
},
{
glyphname = longs;
lastChange = "2026-01-08 23:02:18 +0000";
layers = (
{
anchors = (
{
name = bottom;
pos = (270,0);
},
{
name = top;
pos = (270,960);
}
);
layerId = "05246BF3-0764-4143-87C4-5D2B296D3790";
shapes = (
{
closed = 1;
nodes = (
(165,0,l),
(165,600,ls),
(165,630,o),
(185,640,o),
(205,640,cs),
(290,640,l),
(290,720,l),
(175,720,ls),
(125,720,o),
(75,680,o),
(75,610,cs),
(75,0,l)
);
}
);
width = 320;
},
{
anchors = (
{
name = bottom;
pos = (260,0);
},
{
name = top;
pos = (260,960);
}
);
layerId = "B51EB05F-9FBB-4087-814F-400611B2D4B0";
shapes = (
{
closed = 1;
nodes = (
(210,0,l),
(210,570,ls),
(210,600,o),
(220,610,o),
(250,610,cs),
(340,610,l),
(340,720,l),
(210,720,ls),
(130,720,o),
(60,670,o),
(60,580,cs),
(60,0,l)
);
}
);
width = 360;
}
);
unicode = 383;
},
{
glyphname = a;
kernLeft = a;
kernRight = a;
lastChange = "2026-01-08 23:02:18 +0000";
layers = (
{
anchors = (
{
name = bottom;
pos = (430,10);
},
{
name = top;
pos = (265,530);
}
);
hints = (
{
horizontal = 1;
origin = (0,6);
target = (0,9);
type = Stem;
},
{
horizontal = 1;
origin = (0,27);
target = (1,5);
type = Stem;
},
{
horizontal = 1;
origin = (0,16);
target = (0,23);
type = Stem;
},
{
horizontal = 1;
origin = (1,9);
target = (0,33);
type = Stem;
},
{
origin = (0,30);
target = (1,2);
type = Stem;
},
{
origin = (0,3);
target = (0,11);
type = Stem;
}
);
layerId = "05246BF3-0764-4143-87C4-5D2B296D3790";
shapes = (
{
closed = 1;
nodes = (
(295,-10,o),
(350,30,o),
(380,90,c),
(390,90,l),
(390,20,o),
(440,0,o),
(490,0,cs),
(520,0,l),
(520,80,l),
(504,80,ls),
(484,80,o),
(474,90,o),
(474,120,cs),
(474,300,ls),
(474,450,o),
(424,530,o),
(265,530,cs),
(158,530,o),
(83,475,o),
(63,385,c),
(158,385,l),
(168,425,o),
(212,450,o),
(265,450,cs),
(375,450,o),
(390,400,o),
(390,300,c),
(245,300,ls),
(95,300,o),
(40,230,o),
(40,150,cs),
(40,70,o),
(95,-10,o),
(205,-10,cs)
);
},
{
closed = 1;
nodes = (
(175,70,o),
(130,100,o),
(130,150,cs),
(130,200,o),
(165,230,o),
(255,230,cs),
(390,230,l),
(390,120,o),
(325,70,o),
(225,70,cs)
);
}
);
width = 550;
},
{
anchors = (
{
name = bottom;
pos = (409,10);
},
{
name = top;
pos = (275,540);
}
);
hints = (
{
horizontal = 1;
origin = (0,33);
target = (1,9);
type = Stem;
},
{
horizontal = 1;
origin = (1,6);
target = (0,27);
type = Stem;
},
{
horizontal = 1;
origin = (0,16);
target = (0,23);
type = Stem;
},
{
horizontal = 1;
origin = (0,7);
target = (0,9);
type = Stem;
},
{
origin = (0,30);
target = (1,2);
type = Stem;
},
{
origin = (1,6);
target = (0,13);
type = Stem;
}
);
layerId = "B51EB05F-9FBB-4087-814F-400611B2D4B0";
shapes = (
{
closed = 1;
nodes = (
(295,-10,o),
(340,20,o),
(370,70,c),
(380,70,l),
(380,30,o),
(420,0,o),
(470,0,cs),
(560,0,l),
(560,110,l),
(544,110,ls),
(524,110,o),
(514,120,o),
(514,150,cs),
(514,300,ls),
(514,449,o),
(434,540,o),
(275,540,cs),
(148,540,o),
(68,475,o),
(48,365,c),
(193,365,l),
(201,395,o),
(222,430,o),
(275,430,cs),
(355,430,o),
(380,395,o),
(380,310,c),
(255,310,ls),
(95,310,o),
(30,240,o),
(30,150,cs),
(30,60,o),
(85,-10,o),
(215,-10,cs)
);
},
{
closed = 1;
nodes = (
(195,100,o),
(170,125,o),
(170,155,cs),
(170,185,o),
(185,220,o),
(265,220,cs),
(380,220,l),
(380,160,o),
(360,100,o),
(235,100,cs)
);
}
);
width = 580;
}
);
subCategory = Lowercase;
unicode = 97;
},
{
glyphname = aogonek;
lastChange = "2026-01-08 23:02:18 +0000";
layers = (
{
anchors = (
{
name = top;
pos = (265,530);
}
);
hints = (
{
horizontal = 1;
origin = (0,3);
target = (0,5);
type = Stem;
},
{
horizontal = 1;
origin = (0,23);
target = (1,5);
type = Stem;
},
{
horizontal = 1;
origin = (0,12);
target = (0,19);
type = Stem;
},
{
horizontal = 1;
origin = (1,9);
target = (0,29);
type = Stem;
},
{
origin = (0,26);
target = (1,2);
type = Stem;
},
{
origin = (0,33);
target = (0,7);
type = Stem;
},
{
horizontal = 1;
place = (-185,71);
type = Stem;
},
{
place = (338,86);
type = Stem;
}
);
layerId = "05246BF3-0764-4143-87C4-5D2B296D3790";
shapes = (
{
closed = 1;
nodes = (
(504,-111,l),
(396,-133,o),
(410,-67,o),
(520,0,c),
(520,80,l),
(504,80,ls),
(484,80,o),
(474,90,o),
(474,120,cs),
(474,300,ls),
(474,450,o),
(424,530,o),
(265,530,cs),
(158,530,o),
(83,475,o),
(63,385,c),
(158,385,l),
(168,425,o),
(212,450,o),
(265,450,cs),
(375,450,o),
(390,400,o),
(390,300,c),
(245,300,ls),
(95,300,o),
(40,230,o),
(40,150,cs),
(40,70,o),
(95,-10,o),
(205,-10,cs),
(295,-10,o),
(350,30,o),
(380,90,c),
(390,90,l),
(390,49,o),
(407,25,o),
(432,12,c),
(287,-68,o),
(336,-214,o),
(504,-181,c)
);
},
{
closed = 1;
nodes = (
(175,70,o),
(130,100,o),
(130,150,cs),
(130,200,o),
(165,230,o),
(255,230,cs),
(390,230,l),
(390,120,o),
(325,70,o),
(225,70,cs)
);
}
);
width = 540;
},
{
anchors = (
{
name = top;
pos = (275,540);
}
);
hints = (
{
horizontal = 1;
origin = (0,3);
target = (0,5);
type = Stem;
},
{
horizontal = 1;
origin = (1,5);
target = (0,23);
type = Stem;
},
{
horizontal = 1;
origin = (0,12);
target = (0,19);
type = Stem;
},
{
horizontal = 1;
origin = (0,29);
target = (1,9);
type = Stem;
},
{
horizontal = 1;
origin = (0,12);
target = (0,15);
type = Stem;
},
{
origin = (0,33);
target = (0,7);
type = Stem;
},
{
origin = (0,26);
target = (1,2);
type = Stem;
},
{
horizontal = 1;
place = (-188,88);
type = Stem;
},
{
place = (326,146);
type = Stem;
}
);
layerId = "B51EB05F-9FBB-4087-814F-400611B2D4B0";
shapes = (
{
closed = 1;
nodes = (
(553,-95,l),
(445,-117,o),
(450,-67,o),
(560,0,c),
(560,110,l),
(544,110,ls),
(524,110,o),
(514,120,o),
(514,150,cs),
(514,300,ls),
(514,449,o),
(434,540,o),
(275,540,cs),
(148,540,o),
(68,475,o),
(48,365,c),
(193,365,l),
(201,395,o),
(222,427,o),
(275,430,cs),
(355,434,o),
(380,395,o),
(380,310,c),
(255,310,ls),
(95,310,o),
(30,240,o),
(30,150,cs),
(30,60,o),
(85,-10,o),
(215,-10,cs),
(295,-10,o),
(340,20,o),
(370,70,c),
(380,70,l),
(380,47,o),
(393,27,o),
(415,14,c),
(259,-72,o),
(337,-223,o),
(553,-180,c)
);
},
{
closed = 1;
nodes = (
(195,100,o),
(170,125,o),
(170,155,cs),
(170,185,o),
(185,220,o),
(265,220,cs),
(380,220,l),
(380,160,o),
(360,100,o),
(235,100,cs)
);
}
);
width = 570;
}
);
subCategory = Lowercase;
unicode = 261;
},
{
glyphname = ae;
kernLeft = a;
kernRight = e;
lastChange = "2026-01-08 23:04:35 +0000";
layers = (
{
anchors = (
{
name = bottom;
pos = (453,0);
},
{
name = top;
pos = (453,520);
}
);
hints = (
{
horizontal = 1;
origin = (0,46);
target = (1,9);
type = Stem;
},
{
horizontal = 1;
origin = (1,6);
target = (2,6);
type = Stem;
},
{
horizontal = 1;
origin = (0,29);
target = (2,2);
type = Stem;
},
{
origin = (0,43);
target = (1,2);
type = Stem;
},
{
origin = (1,6);
target = (2,6);
type = Stem;
},
{
origin = (2,5);
target = (0,20);
type = Stem;
},
{
origin = (1,6);
target = (0,16);
type = Stem;
}
);
layerId = "05246BF3-0764-4143-87C4-5D2B296D3790";
shapes = (
{
closed = 1;
nodes = (
(300,-10,o),
(400,30,o),
(430,90,c),
(440,90,l),
(481,27,o),
(548,-10,o),
(635,-10,cs),
(738,-10,o),
(802,51,o),
(839,135,c),
(743,135,l),
(717,94,o),
(695,70,o),
(635,70,cs),
(536,70,o),
(494,142,o),
(486,230,c),
(859,230,l),
(860,242,o),
(860,248,o),
(860,260,cs),
(860,420,o),
(785,530,o),
(635,530,cs),
(555,530,o),
(493,500,o),
(451,446,c),
(421,502,o),
(365,530,o),
(270,530,cs),
(163,530,o),
(88,475,o),
(68,385,c),
(163,385,l),
(173,425,o),
(217,450,o),
(270,450,cs),
(380,450,o),
(395,390,o),
(395,300,c),
(250,300,ls),
(100,300,o),
(45,230,o),
(45,150,cs),
(45,70,o),
(100,-10,o),
(210,-10,cs)
);
},
{
closed = 1;
nodes = (
(180,70,o),
(135,100,o),
(135,150,cs),
(135,200,o),
(170,230,o),
(260,230,cs),
(395,230,l),
(395,107,o),
(316,70,o),
(230,70,cs)
);
},
{
closed = 1;
nodes = (
(497,384,o),
(540,450,o),
(635,450,cs),
(730,450,o),
(762,382,o),
(768,300,c),
(487,300,l)
);
}
);
width = 905;
},
{
anchors = (
{
name = bottom;
pos = (463,0);
},
{
name = top;
pos = (463,530);
}
);
hints = (
{
horizontal = 1;
origin = (0,46);
target = (1,9);
type = Stem;
},
{
horizontal = 1;
origin = (1,6);
target = (2,6);
type = Stem;
},
{
horizontal = 1;
origin = (0,29);
target = (2,2);
type = Stem;
},
{
origin = (0,43);
target = (1,2);
type = Stem;
},
{
origin = (1,6);
target = (2,6);
type = Stem;
},
{
origin = (2,5);
target = (0,20);
type = Stem;
}
);
layerId = "B51EB05F-9FBB-4087-814F-400611B2D4B0";
shapes = (
{
closed = 1;
nodes = (
(295,-10,o),
(405,20,o),
(435,70,c),
(444,70,l),
(489,19,o),
(557,-10,o),
(640,-10,cs),
(763,-10,o),
(851,61,o),
(878,145,c),
(728,145,l),
(702,114,o),
(690,100,o),
(640,100,cs),
(567,100,o),
(540,155,o),
(532,220,c),
(889,220,l),
(889,220,o),
(890,250,o),
(890,265,cs),
(890,435,o),
(800,540,o),
(640,540,cs),
(564,540,o),
(501,516,o),
(457,473,c),
(417,516,o),
(356,540,o),
(275,540,cs),
(148,540,o),
(68,475,o),
(48,365,c),
(193,365,l),
(203,395,o),
(222,430,o),
(275,430,cs),
(365,430,o),
(380,380,o),
(380,310,c),
(255,310,ls),
(95,310,o),
(30,240,o),
(30,150,cs),
(30,60,o),
(85,-10,o),
(215,-10,cs)
);
},
{
closed = 1;
nodes = (
(195,100,o),
(170,125,o),
(170,155,cs),
(170,185,o),
(185,220,o),
(265,220,cs),
(380,220,l),
(380,130,o),
(315,100,o),
(235,100,cs)
);
},
{
closed = 1;
nodes = (
(540,375,o),
(567,430,o),
(640,430,cs),
(714,430,o),
(734,379,o),
(739,310,c),
(532,310,l)
);
}
);
width = 925;
}
);
subCategory = Lowercase;
unicode = 230;
},
{
glyphname = b;
kernLeft = I;
kernRight = o;
lastChange = "2026-01-08 23:02:18 +0000";
layers = (
{
anchors = (
{
name = bottom;
pos = (325,0);
},
{
name = top;
pos = (325,780);
}
);
hints = (
{
horizontal = 1;
origin = (1,11);
target = (0,18);
type = Stem;
},
{
horizontal = 1;
origin = (0,5);
target = (1,5);
type = Stem;
},
{
horizontal = 1;
origin = (0,11);
target = down;
type = TopGhost;
},
{
horizontal = 1;
origin = (0,12);
target = up;
type = BottomGhost;
},
{
origin = (0,12);
target = (0,13);
type = Stem;
},
{
origin = (1,8);
target = (0,2);
type = Stem;
}
);
layerId = "05246BF3-0764-4143-87C4-5D2B296D3790";
shapes = (
{
closed = 1;
nodes = (
(480,-10,o),
(570,100,o),
(570,260,cs),
(570,420,o),
(480,530,o),
(350,530,cs),
(270,530,o),
(205,490,o),
(175,420,c),
(165,420,l),
(165,720,l),
(75,720,l),
(75,0,l),
(165,0,l),
(165,100,l),
(175,100,l),
(205,30,o),
(270,-10,o),
(350,-10,cs)
);
},
{
closed = 1;
nodes = (
(240,70,o),
(170,130,o),
(170,260,cs),
(170,390,o),
(240,450,o),
(330,450,cs),
(420,450,o),
(480,390,o),
(480,260,cs),
(480,130,o),
(420,70,o),
(330,70,cs)
);
}
);
width = 615;
},
{
anchors = (
{
name = bottom;
pos = (325,0);
},
{
name = top;
pos = (325,780);
}
);
hints = (
{
horizontal = 1;
origin = (0,18);
target = (1,11);
type = Stem;
},
{
horizontal = 1;
origin = (0,5);
target = (1,5);
type = Stem;
},
{
horizontal = 1;
origin = (0,11);
target = down;
type = TopGhost;
},
{
origin = (0,12);
target = (0,13);
type = Stem;
},
{
origin = (1,8);
target = (0,2);
type = Stem;
},
{
horizontal = 1;
origin = (0,12);
target = up;
type = BottomGhost;
}
);
layerId = "B51EB05F-9FBB-4087-814F-400611B2D4B0";
shapes = (
{
closed = 1;
nodes = (
(515,-10,o),
(605,95,o),
(605,265,cs),
(605,435,o),
(515,540,o),
(375,540,cs),
(295,540,o),
(250,500,o),
(220,450,c),
(210,450,l),
(210,720,l),
(60,720,l),
(60,0,l),
(210,0,l),
(210,80,l),
(220,80,l),
(250,30,o),
(295,-10,o),
(375,-10,cs)
);
},
{
closed = 1;
nodes = (
(255,100,o),
(215,165,o),
(215,265,cs),
(215,365,o),
(255,430,o),
(335,430,cs),
(415,430,o),
(455,365,o),
(455,265,cs),
(455,165,o),
(415,100,o),
(335,100,cs)
);
}
);
width = 640;
}
);
subCategory = Lowercase;
unicode = 98;
},
{
glyphname = c;
kernLeft = o;
kernRight = c;
lastChange = "2026-01-08 23:02:18 +0000";
layers = (
{
anchors = (
{
name = bottom;
pos = (285,0);
},
{
name = top;
pos = (285,530);
}
);
hints = (
{
horizontal = 1;
origin = (0,6);
target = (0,25);
type = Stem;
},
{
horizontal = 1;
origin = (0,19);
target = (0,12);
type = Stem;
},
{
origin = (0,22);
target = (0,9);
type = Stem;
}
);
layerId = "05246BF3-0764-4143-87C4-5D2B296D3790";
shapes = (
{
closed = 1;
nodes = (
(395,-10,o),
(475,50,o),
(505,160,c),
(415,160,l),
(395,100,o),
(355,70,o),
(285,70,cs),
(175,70,o),
(135,160,o),
(135,260,cs),
(135,360,o),
(175,450,o),
(285,450,cs),
(355,450,o),
(395,420,o),
(415,360,c),
(505,360,l),
(475,470,o),
(395,530,o),
(285,530,cs),
(135,530,o),
(45,420,o),
(45,260,cs),
(45,100,o),
(135,-10,o),
(285,-10,cs)
);
}
);
width = 550;
},
{
anchors = (
{
name = bottom;
pos = (295,0);
},
{
name = top;
pos = (295,540);
}
);
hints = (
{
horizontal = 1;
origin = (0,25);
target = (0,6);
type = Stem;
},
{
horizontal = 1;
origin = (0,19);
target = (0,12);
type = Stem;
},
{
origin = (0,22);
target = (0,9);
type = Stem;
}
);
layerId = "B51EB05F-9FBB-4087-814F-400611B2D4B0";
shapes = (
{
closed = 1;
nodes = (
(425,-10,o),
(515,60,o),
(545,180,c),
(395,180,l),
(385,140,o),
(365,100,o),
(295,100,cs),
(205,100,o),
(185,185,o),
(185,265,cs),
(185,345,o),
(205,430,o),
(295,430,cs),
(365,430,o),
(385,390,o),
(395,350,c),
(545,350,l),
(515,470,o),
(425,540,o),
(295,540,cs),
(135,540,o),
(35,435,o),
(35,265,cs),
(35,95,o),
(135,-10,o),
(295,-10,cs)
);
}
);
width = 575;
}
);
subCategory = Lowercase;
unicode = 99;
},
{
glyphname = d;
kernLeft = o;
kernRight = I;
lastChange = "2026-01-08 23:02:18 +0000";
layers = (
{
anchors = (
{
name = bottom;
pos = (265,0);
},
{
name = center;
pos = (270,260);
},
{
name = top;
pos = (265,520);
},
{
name = topright;
pos = (550,520);
}
);
hints = (
{
horizontal = 1;
origin = (1,11);
target = (0,18);
type = Stem;
},
{
horizontal = 1;
origin = (0,12);
target = (1,5);
type = Stem;
},
{
horizontal = 1;
origin = (0,7);
target = down;
type = TopGhost;
},
{
horizontal = 1;
origin = (0,4);
target = up;
type = BottomGhost;
},
{
origin = (0,15);
target = (1,2);
type = Stem;
},
{
origin = (0,4);
target = (0,5);
type = Stem;
},
{
origin = (1,8);
target = (0,5);
type = Stem;
}
);
layerId = "05246BF3-0764-4143-87C4-5D2B296D3790";
shapes = (
{
closed = 1;
nodes = (
(345,-10,o),
(410,30,o),
(440,100,c),
(450,100,l),
(450,0,l),
(540,0,l),
(540,720,l),
(450,720,l),
(450,420,l),
(440,420,l),
(410,490,o),
(345,530,o),
(265,530,cs),
(135,530,o),
(45,420,o),
(45,260,cs),
(45,100,o),
(135,-10,o),
(265,-10,cs)
);
},
{
closed = 1;
nodes = (
(195,70,o),
(135,130,o),
(135,260,cs),
(135,390,o),
(195,450,o),
(285,450,cs),
(375,450,o),
(445,390,o),
(445,260,cs),
(445,130,o),
(375,70,o),
(285,70,cs)
);
}
);
width = 615;
},
{
anchors = (
{
name = bottom;
pos = (290,0);
},
{
name = center;
pos = (290,260);
},
{
name = top;
pos = (240,530);
},
{
name = topright;
pos = (570,520);
}
);
hints = (
{
horizontal = 1;
origin = (0,18);
target = (1,11);
type = Stem;
},
{
horizontal = 1;
origin = (0,12);
target = (1,5);
type = Stem;
},
{
horizontal = 1;
origin = (0,7);
target = down;
type = TopGhost;
},
{
horizontal = 1;
origin = (0,4);
target = (1,11);
type = Stem;
},
{
origin = (0,15);
target = (1,2);
type = Stem;
},
{
origin = (0,4);
target = (0,5);
type = Stem;
},
{
origin = (1,8);
target = (0,5);
type = Stem;
}
);
layerId = "B51EB05F-9FBB-4087-814F-400611B2D4B0";
shapes = (
{
closed = 1;
nodes = (
(345,-10,o),
(390,30,o),
(420,80,c),
(430,80,l),
(430,0,l),
(580,0,l),
(580,720,l),
(430,720,l),
(430,450,l),
(420,450,l),
(390,500,o),
(345,540,o),
(265,540,cs),
(125,540,o),
(35,435,o),
(35,265,cs),
(35,95,o),
(125,-10,o),
(265,-10,cs)
);
},
{
closed = 1;
nodes = (
(225,100,o),
(185,165,o),
(185,265,cs),
(185,365,o),
(225,430,o),
(305,430,cs),
(385,430,o),
(425,365,o),
(425,265,cs),
(425,165,o),
(385,100,o),
(305,100,cs)
);
}
);
width = 640;
}
);
subCategory = Lowercase;
unicode = 100;
},
{
glyphname = dcroat;
lastChange = "2026-01-08 23:02:18 +0000";
layers = (
{
hints = (
{
horizontal = 1;
origin = (0,3);
target = (0,2);
type = Stem;
},
{
origin = (0,3);
target = (0,0);
type = Stem;
}
);
layerId = "05246BF3-0764-4143-87C4-5D2B296D3790";
shapes = (
{
closed = 1;
nodes = (
(599,600,l),
(599,660,l),
(329,660,l),
(329,600,l)
);
},
{
ref = d;
}
);
width = 619;
},
{
hints = (
{
horizontal = 1;
origin = (0,3);
target = (0,2);
type = Stem;
},
{
origin = (0,3);
target = (0,0);
type = Stem;
}
);
layerId = "B51EB05F-9FBB-4087-814F-400611B2D4B0";
shapes = (
{
closed = 1;
nodes = (
(639,570,l),
(639,670,l),
(299,670,l),
(299,570,l)
);
},
{
ref = d;
}
);
width = 649;
}
);
subCategory = Lowercase;
unicode = 273;
},
{
glyphname = eth;
kernRight = o;
lastChange = "2026-01-08 23:02:18 +0000";
layers = (
{
hints = (
{
horizontal = 1;
origin = (0,31);
target = (1,11);
type = Stem;
},
{
horizontal = 1;
origin = (1,5);
target = (0,25);
type = Stem;
},
{
horizontal = 1;
origin = (0,10);
target = down;
type = TopGhost;
},
{
origin = (0,28);
target = (1,2);
type = Stem;
},
{
origin = (1,8);
target = (0,2);
type = Stem;
}
);
layerId = "05246BF3-0764-4143-87C4-5D2B296D3790";
shapes = (
{
closed = 1;
nodes = (
(445,-10,o),
(530,80,o),
(530,300,cs),
(530,465,o),
(455,567,o),
(369,631,c),
(445,670,l),
(445,740,l),
(308,670,l),
(216,719,o),
(130,730,o),
(130,730,c),
(130,650,l),
(130,650,o),
(168,646,o),
(221,626,c),
(150,590,l),
(150,520,l),
(291,592,l),
(356,553,o),
(423,488,o),
(450,380,c),
(440,380,l),
(410,450,o),
(345,490,o),
(265,490,cs),
(135,490,o),
(50,390,o),
(50,240,cs),
(50,90,o),
(135,-10,o),
(265,-10,cs)
);
},
{
closed = 1;
nodes = (
(195,70,o),
(140,140,o),
(140,240,cs),
(140,340,o),
(195,410,o),
(285,410,cs),
(365,410,o),
(435,340,o),
(435,240,cs),
(435,140,o),
(365,70,o),
(285,70,cs)
);
}
);
width = 580;
},
{
hints = (
{
horizontal = 1;
origin = (0,31);
target = (1,11);
type = Stem;
},
{
horizontal = 1;
origin = (1,5);
target = (0,25);
type = Stem;
},
{
horizontal = 1;
origin = (0,12);
target = (0,10);
type = Stem;
},
{
origin = (0,28);
target = (1,2);
type = Stem;
},
{
origin = (1,8);
target = (0,2);
type = Stem;
}
);
layerId = "B51EB05F-9FBB-4087-814F-400611B2D4B0";
shapes = (
{
closed = 1;
nodes = (
(455,-10,o),
(550,80,o),
(550,300,cs),
(550,465,o),
(482,568,o),
(401,633,c),
(455,660,l),
(455,740,l),
(333,678,l),
(230,733,o),
(130,740,o),
(130,740,c),
(130,630,l),
(130,630,o),
(161,626,o),
(204,612,c),
(140,580,l),
(140,500,l),
(288,575,l),
(351,539,o),
(414,481,o),
(440,390,c),
(430,390,l),
(400,460,o),
(335,490,o),
(265,490,cs),
(125,490,o),
(30,400,o),
(30,240,cs),
(30,80,o),
(125,-10,o),
(265,-10,cs)
);
},
{
closed = 1;
nodes = (
(215,100,o),
(180,150,o),
(180,240,cs),
(180,330,o),
(215,380,o),
(285,380,cs),
(345,380,o),
(395,330,o),
(395,240,cs),
(395,150,o),
(345,100,o),
(285,100,cs)
);
}
);
width = 580;
}
);
subCategory = Lowercase;
unicode = 240;
},
{
glyphname = e;
kernLeft = o;
kernRight = o;
lastChange = "2026-01-14 21:47:09 +0000";
layers = (
{
anchors = (
{
name = bottom;
pos = (278,0);
},
{
name = ogonek;
pos = (500,10);
},
{
name = top;
pos = (285,530);
}
);
hints = (
{
horizontal = 1;
origin = (0,6);
target = (0,20);
type = Stem;
},
{
horizontal = 1;
origin = (1,6);
target = (0,9);
type = Stem;
},
{
horizontal = 1;
origin = (0,14);
target = (1,2);
type = Stem;
},
{
place = (45,92);
type = Stem;
},
{
place = (419,91);
type = Stem;
}
);
layerId = "05246BF3-0764-4143-87C4-5D2B296D3790";
shapes = (
{
closed = 1;
nodes = (
(388,-10,o),
(462,41,o),
(499,135,c),
(403,135,l),
(377,89,o),
(345,70,o),
(285,70,cs),
(188,70,o),
(146,139,o),
(137,225,c),
(509,225,l),
(510,260,ls),
(510,420,o),
(435,530,o),
(285,530,cs),
(135,530,o),
(45,420,o),
(45,260,cs),
(45,100,o),
(135,-10,o),
(285,-10,cs)
);
},
{
closed = 1;
nodes = (
(146,381,o),
(188,450,o),
(285,450,cs),
(382,450,o),
(413,381,o),
(419,295,c),
(137,295,l)
);
}
);
width = 555;
},
{
anchors = (
{
name = bottom;
pos = (290,0);
},
{
name = ogonek;
pos = (522,10);
},
{
name = top;
pos = (290,530);
}
);
hints = (
{
horizontal = 1;
origin = (0,20);
target = (0,6);
type = Stem;
},
{
horizontal = 1;
origin = (0,9);
target = (1,6);
type = Stem;
},
{
horizontal = 1;
origin = (0,14);
target = (1,2);
type = Stem;
},
{
place = (30,152);
type = Stem;
},
{
place = (389,151);
type = Stem;
}
);
layerId = "B51EB05F-9FBB-4087-814F-400611B2D4B0";
shapes = (
{
closed = 1;
nodes = (
(418,-10,o),
(506,61,o),
(533,145,c),
(383,145,l),
(357,114,o),
(345,100,o),
(295,100,cs),
(222,100,o),
(195,155,o),
(187,220,c),
(544,220,l),
(545,265,ls),
(545,435,o),
(455,540,o),
(295,540,cs),
(135,540,o),
(35,435,o),
(35,265,cs),
(35,95,o),
(135,-10,o),
(295,-10,cs)
);
},
{
closed = 1;
nodes = (
(195,375,o),
(222,430,o),
(295,430,cs),
(369,430,o),
(389,379,o),
(394,310,c),
(187,310,l)
);
}
);
width = 580;
}
);
subCategory = Lowercase;
unicode = 101;
},
{
glyphname = eogonek;
kernLeft = o;
kernRight = o;
lastChange = "2026-01-08 23:02:18 +0000";
layers = (
{
anchors = (
{
name = top;
pos = (285,530);
}
);
layerId = "05246BF3-0764-4143-87C4-5D2B296D3790";
shapes = (
{
closed = 1;
nodes = (
(342,-121,l),
(234,-143,o),
(248,-67,o),
(357,0,c),
(423,19,o),
(471,64,o),
(499,135,c),
(403,135,l),
(377,89,o),
(345,70,o),
(285,70,cs),
(188,70,o),
(146,139,o),
(137,225,c),
(509,225,l),
(510,260,ls),
(510,420,o),
(435,530,o),
(285,530,cs),
(135,530,o),
(45,420,o),
(45,260,cs),
(45,111,o),
(123,6,o),
(254,-8,c),
(123,-90,o),
(179,-223,o),
(342,-191,c)
);
},
{
closed = 1;
nodes = (
(146,381,o),
(188,450,o),
(285,450,cs),
(382,450,o),
(413,381,o),
(419,295,c),
(137,295,l)
);
}
);
width = 555;
},
{
anchors = (
{
name = top;
pos = (290,540);
}
);
layerId = "B51EB05F-9FBB-4087-814F-400611B2D4B0";
shapes = (
{
closed = 1;
nodes = (
(361,-105,l),
(253,-127,o),
(257,-67,o),
(367,0,c),
(449,22,o),
(507,80,o),
(528,145,c),
(378,145,l),
(352,114,o),
(340,100,o),
(290,100,cs),
(217,100,o),
(190,155,o),
(182,220,c),
(539,220,l),
(540,265,ls),
(540,435,o),
(450,540,o),
(290,540,cs),
(130,540,o),
(30,435,o),
(30,265,cs),
(30,124,o),
(100,27,o),
(215,-1,c),
(58,-88,o),
(145,-233,o),
(361,-190,c)
);
},
{
closed = 1;
nodes = (
(190,375,o),
(217,430,o),
(290,430,cs),
(364,430,o),
(384,379,o),
(389,310,c),
(182,310,l)
);
}
);
width = 570;
}
);
subCategory = Lowercase;
unicode = 281;
},
{
glyphname = f;
kernLeft = f;
kernRight = f;
lastChange = "2026-01-08 23:02:18 +0000";
layers = (
{
anchors = (
{
name = bottom;
pos = (183,0);
},
{
name = top;
pos = (183,780);
}
);
hints = (
{
horizontal = 1;
origin = (0,19);
target = up;
type = BottomGhost;
},
{
horizontal = 1;
origin = (0,16);
target = (0,17);
type = Stem;
},
{
horizontal = 1;
origin = (0,11);
target = (0,8);
type = Stem;
},
{
origin = (0,19);
target = (0,0);
type = Stem;
}
);
layerId = "05246BF3-0764-4143-87C4-5D2B296D3790";
shapes = (
{
closed = 1;
nodes = (
(195,0,l),
(195,440,l),
(320,440,l),
(320,520,l),
(195,520,l),
(195,600,ls),
(195,630,o),
(215,640,o),
(235,640,cs),
(320,640,l),
(320,720,l),
(205,720,ls),
(155,720,o),
(105,680,o),
(105,610,cs),
(105,520,l),
(30,520,l),
(30,440,l),
(105,440,l),
(105,0,l)
);
}
);
width = 340;
},
{
anchors = (
{
name = bottom;
pos = (154,0);
},
{
name = top;
pos = (154,780);
}
);
hints = (
{
horizontal = 1;
origin = (0,19);
target = up;
type = BottomGhost;
},
{
horizontal = 1;
origin = (0,16);
target = (0,17);
type = Stem;
},
{
horizontal = 1;
origin = (0,11);
target = (0,8);
type = Stem;
},
{
origin = (0,19);
target = (0,0);
type = Stem;
}
);
layerId = "B51EB05F-9FBB-4087-814F-400611B2D4B0";
shapes = (
{
closed = 1;
nodes = (
(250,0,l),
(250,420,l),
(380,420,l),
(380,530,l),
(250,530,l),
(250,570,ls),
(250,600,o),
(260,610,o),
(290,610,cs),
(380,610,l),
(380,720,l),
(250,720,ls),
(170,720,o),
(100,670,o),
(100,580,cs),
(100,530,l),
(20,530,l),
(20,420,l),
(100,420,l),
(100,0,l)
);
}
);
width = 400;
}
);
subCategory = Lowercase;
unicode = 102;
},
{
glyphname = g;
kernLeft = g;
kernRight = g;
lastChange = "2026-01-08 23:02:18 +0000";
layers = (
{
anchors = (
{
name = bottom;
pos = (305,-210);
},
{
name = top;
pos = (295,530);
}
);
hints = (
{
horizontal = 1;
origin = (0,23);
target = (0,30);
type = Stem;
},
{
horizontal = 1;
origin = (1,11);
target = (0,15);
type = Stem;
},
{
horizontal = 1;
origin = (0,9);
target = (1,5);
type = Stem;
},
{
horizontal = 1;
origin = (0,4);
target = down;
type = TopGhost;
},
{
origin = (0,12);
target = (1,2);
type = Stem;
},
{
origin = (0,20);
target = (0,2);
type = Stem;
},
{
origin = (1,8);
target = (0,2);
type = Stem;
}
);
layerId = "05246BF3-0764-4143-87C4-5D2B296D3790";
shapes = (
{
closed = 1;
nodes = (
(448,-220,o),
(540,-143,o),
(540,0,cs),
(540,520,l),
(450,520,l),
(450,420,l),
(440,420,l),
(410,490,o),
(345,530,o),
(265,530,cs),
(125,530,o),
(45,430,o),
(45,260,cs),
(45,90,o),
(125,-10,o),
(265,-10,cs),
(345,-10,o),
(410,30,o),
(440,100,c),
(450,100,l),
(450,0,ls),
(450,-94,o),
(397,-140,o),
(305,-140,cs),
(239,-140,o),
(189,-110,o),
(169,-70,c),
(74,-70,l),
(104,-160,o),
(185,-220,o),
(305,-220,cs)
);
},
{
closed = 1;
nodes = (
(195,70,o),
(135,130,o),
(135,260,cs),
(135,390,o),
(195,450,o),
(285,450,cs),
(375,450,o),
(445,390,o),
(445,260,cs),
(445,130,o),
(375,70,o),
(285,70,cs)
);
}
);
width = 615;
},
{
anchors = (
{
name = bottom;
pos = (305,-210);
},
{
name = top;
pos = (300,540);
}
);
hints = (
{
horizontal = 1;
origin = (0,23);
target = (0,30);
type = Stem;
},
{
horizontal = 1;
origin = (1,11);
target = (0,15);
type = Stem;
},
{
horizontal = 1;
origin = (0,9);
target = (1,5);
type = Stem;
},
{
horizontal = 1;
origin = (0,4);
target = (1,5);
type = Stem;
},
{
origin = (0,12);
target = (1,2);
type = Stem;
},
{
origin = (0,20);
target = (0,2);
type = Stem;
},
{
origin = (1,8);
target = (0,2);
type = Stem;
}
);
layerId = "B51EB05F-9FBB-4087-814F-400611B2D4B0";
shapes = (
{
closed = 1;
nodes = (
(445,-220,o),
(585,-153,o),
(585,0,cs),
(585,530,l),
(435,530,l),
(435,450,l),
(425,450,l),
(395,500,o),
(350,540,o),
(270,540,cs),
(130,540,o),
(40,435,o),
(40,265,cs),
(40,95,o),
(130,-10,o),
(270,-10,cs),
(350,-10,o),
(395,30,o),
(425,80,c),
(435,80,l),
(435,0,ls),
(435,-74,o),
(387,-110,o),
(305,-110,cs),
(259,-110,o),
(234,-89,o),
(204,-50,c),
(49,-50,l),
(75,-131,o),
(165,-220,o),
(305,-220,cs)
);
},
{
closed = 1;
nodes = (
(230,100,o),
(190,165,o),
(190,265,cs),
(190,365,o),
(230,430,o),
(310,430,cs),
(390,430,o),
(430,365,o),
(430,265,cs),
(430,165,o),
(390,100,o),
(310,100,cs)
);
}
);
width = 645;
}
);
subCategory = Lowercase;
unicode = 103;
},
{
glyphname = h;
kernLeft = I;
kernRight = n;
lastChange = "2026-01-08 23:02:18 +0000";
layers = (
{
anchors = (
{
name = bottom;
pos = (308,0);
},
{
name = center;
pos = (308,390);
},
{
name = top;
pos = (308,780);
}
);
hints = (
{
horizontal = 1;
origin = (0,20);
target = up;
type = BottomGhost;
},
{
horizontal = 1;
origin = (0,13);
target = (0,4);
type = Stem;
},
{
horizontal = 1;
origin = (0,19);
target = down;
type = TopGhost;
},
{
origin = (0,20);
target = (0,0);
type = Stem;
},
{
origin = (0,8);
target = (0,9);
type = Stem;
}
);
layerId = "05246BF3-0764-4143-87C4-5D2B296D3790";
shapes = (
{
closed = 1;
nodes = (
(165,0,l),
(165,280,ls),
(165,390,o),
(230,450,o),
(300,450,cs),
(370,450,o),
(415,420,o),
(415,330,cs),
(415,0,l),
(505,0,l),
(505,330,ls),
(505,470,o),
(430,530,o),
(330,530,cs),
(250,530,o),
(205,490,o),
(175,420,c),
(165,420,l),
(165,720,l),
(75,720,l),
(75,0,l)
);
}
);
width = 570;
},
{
anchors = (
{
name = bottom;
pos = (322,0);
},
{
name = center;
pos = (322,390);
},
{
name = top;
pos = (322,780);
}
);
hints = (
{
horizontal = 1;
origin = (0,20);
target = up;
type = BottomGhost;
},
{
horizontal = 1;
origin = (0,13);
target = (0,4);
type = Stem;
},
{
horizontal = 1;
origin = (0,19);
target = down;
type = TopGhost;
},
{
origin = (0,20);
target = (0,0);
type = Stem;
},
{
origin = (0,8);
target = (0,9);
type = Stem;
}
);
layerId = "B51EB05F-9FBB-4087-814F-400611B2D4B0";
shapes = (
{
closed = 1;
nodes = (
(210,0,l),
(210,280,ls),
(210,370,o),
(245,430,o),
(305,430,cs),
(365,430,o),
(390,400,o),
(390,330,cs),
(390,0,l),
(540,0,l),
(540,330,ls),
(540,470,o),
(465,540,o),
(365,540,cs),
(295,540,o),
(250,510,o),
(220,450,c),
(210,450,l),
(210,720,l),
(60,720,l),
(60,0,l)
);
}
);
width = 590;
}
);
subCategory = Lowercase;
unicode = 104;
},
{
glyphname = hbar;
lastChange = "2026-01-08 23:02:18 +0000";
layers = (
{
hints = (
{
horizontal = 1;
origin = (0,28);
target = up;
type = BottomGhost;
},
{
horizontal = 1;
origin = (0,13);
target = (0,4);
type = Stem;
},
{
horizontal = 1;
origin = (0,23);
target = (0,26);
type = Stem;
},
{
horizontal = 1;
origin = (0,26);
target = (0,25);
type = Stem;
},
{
origin = (0,28);
target = (0,0);
type = Stem;
},
{
origin = (0,8);
target = (0,9);
type = Stem;
}
);
layerId = "05246BF3-0764-4143-87C4-5D2B296D3790";
shapes = (
{
closed = 1;
nodes = (
(165,0,l),
(165,280,ls),
(165,390,o),
(230,450,o),
(300,450,cs),
(370,450,o),
(415,420,o),
(415,330,cs),
(415,0,l),
(505,0,l),
(505,330,ls),
(505,470,o),
(430,530,o),
(330,530,cs),
(250,530,o),
(205,490,o),
(175,420,c),
(165,420,l),
(165,601,l),
(295,601,l),
(295,671,l),
(165,671,l),
(165,720,l),
(75,720,l),
(75,671,l),
(25,671,l),
(25,601,l),
(75,601,l),
(75,0,l)
);
}
);
width = 570;
},
{
hints = (
{
horizontal = 1;
origin = (0,28);
target = up;
type = BottomGhost;
},
{
horizontal = 1;
origin = (0,13);
target = (0,4);
type = Stem;
},
{
horizontal = 1;
origin = (0,23);
target = (0,26);
type = Stem;
},
{
horizontal = 1;
origin = (0,26);
target = (0,25);
type = Stem;
},
{
origin = (0,28);
target = (0,0);
type = Stem;
},
{
origin = (0,8);
target = (0,9);
type = Stem;
}
);
layerId = "B51EB05F-9FBB-4087-814F-400611B2D4B0";
shapes = (
{
closed = 1;
nodes = (
(210,0,l),
(210,280,ls),
(210,370,o),
(245,430,o),
(305,430,cs),
(365,430,o),
(390,400,o),
(390,330,cs),
(390,0,l),
(540,0,l),
(540,330,ls),
(540,470,o),
(465,540,o),
(365,540,cs),
(295,540,o),
(250,510,o),
(220,450,c),
(210,450,l),
(210,581,l),
(345,581,l),
(345,671,l),
(210,671,l),
(210,720,l),
(60,720,l),
(60,671,l),
(5,671,l),
(5,581,l),
(60,581,l),
(60,0,l)
);
}
);
width = 590;
}
);
subCategory = Lowercase;
unicode = 295;
},
{
glyphname = i;
kernLeft = i;
kernRight = i;
lastChange = "2026-01-08 23:02:18 +0000";
layers = (
{
anchors = (
{
name = bottom;
pos = (120,0);
}
);
hints = (
{
horizontal = 1;
origin = (0,3);
target = up;
type = BottomGhost;
},
{
horizontal = 1;
origin = (0,2);
target = down;
type = TopGhost;
},
{
horizontal = 1;
origin = (1,5);
target = (1,11);
type = Stem;
},
{
origin = (1,8);
target = (1,2);
type = Stem;
},
{
origin = (0,3);
target = (0,0);
type = Stem;
}
);
layerId = "05246BF3-0764-4143-87C4-5D2B296D3790";
shapes = (
{
closed = 1;
nodes = (
(165,0,l),
(165,520,l),
(75,520,l),
(75,0,l)
);
},
{
closed = 1;
nodes = (
(151,620,o),
(175,644,o),
(175,675,cs),
(175,706,o),
(151,730,o),
(120,730,cs),
(89,730,o),
(65,706,o),
(65,675,cs),
(65,644,o),
(89,620,o),
(120,620,cs)
);
}
);
width = 240;
},
{
anchors = (
{
name = bottom;
pos = (140,0);
}
);
hints = (
{
horizontal = 1;
origin = (0,3);
target = up;
type = BottomGhost;
},
{
horizontal = 1;
origin = (0,2);
target = down;
type = TopGhost;
},
{
horizontal = 1;
origin = (1,11);
target = (1,5);
type = Stem;
},
{
origin = (1,8);
target = (1,2);
type = Stem;
},
{
origin = (0,3);
target = (0,0);
type = Stem;
}
);
layerId = "B51EB05F-9FBB-4087-814F-400611B2D4B0";
shapes = (
{
closed = 1;
nodes = (
(215,0,l),
(215,530,l),
(65,530,l),
(65,0,l)
);
},
{
closed = 1;
nodes = (
(188,580,o),
(225,617,o),
(225,665,cs),
(225,713,o),
(188,750,o),
(140,750,cs),
(92,750,o),
(55,713,o),
(55,665,cs),
(55,617,o),
(92,580,o),
(140,580,cs)
);
}
);
width = 280;
}
);
subCategory = Lowercase;
unicode = 105;
},
{
glyphname = idotless;
lastChange = "2026-01-08 23:02:18 +0000";
layers = (
{
anchors = (
{
name = bottom;
pos = (110,0);
},
{
name = ogonek;
pos = (155,0);
},
{
name = top;
pos = (110,520);
}
);
hints = (
{
horizontal = 1;
origin = (0,3);
target = up;
type = BottomGhost;
},
{
horizontal = 1;
origin = (0,2);
target = down;
type = TopGhost;
},
{
origin = (0,3);
target = (0,0);
type = Stem;
}
);
layerId = "05246BF3-0764-4143-87C4-5D2B296D3790";
shapes = (
{
closed = 1;
nodes = (
(155,0,l),
(155,520,l),
(65,520,l),
(65,0,l)
);
}
);
width = 220;
},
{
anchors = (
{
name = bottom;
pos = (130,0);
},
{
name = ogonek;
pos = (205,0);
},
{
name = top;
pos = (130,530);
}
);
hints = (
{
horizontal = 1;
origin = (0,3);
target = up;
type = BottomGhost;
},
{
horizontal = 1;
origin = (0,2);
target = down;
type = TopGhost;
},
{
origin = (0,3);
target = (0,0);
type = Stem;
}
);
layerId = "B51EB05F-9FBB-4087-814F-400611B2D4B0";
shapes = (
{
closed = 1;
nodes = (
(205,0,l),
(205,530,l),
(55,530,l),
(55,0,l)
);
}
);
width = 260;
}
);
subCategory = Lowercase;
unicode = 305;
},
{
glyphname = iogonek;
lastChange = "2026-01-08 23:02:18 +0000";
layers = (
{
anchors = (
{
name = top;
pos = (131,730);
}
);
hints = (
{
horizontal = 1;
origin = (0,6);
target = up;
type = BottomGhost;
},
{
horizontal = 1;
origin = (0,5);
target = down;
type = TopGhost;
},
{
origin = (0,6);
target = (0,3);
type = Stem;
},
{
horizontal = 1;
place = (-195,71);
type = Stem;
},
{
place = (0,86);
type = Stem;
},
{
horizontal = 1;
origin = (1,5);
target = (1,11);
type = Stem;
},
{
origin = (1,8);
target = (1,2);
type = Stem;
}
);
layerId = "05246BF3-0764-4143-87C4-5D2B296D3790";
shapes = (
{
closed = 1;
nodes = (
(160,-121,l),
(52,-143,o),
(66,-67,o),
(176,0,c),
(176,520,l),
(86,520,l),
(86,0,l),
(-62,-80,o),
(-8,-224,o),
(160,-191,c)
);
},
{
closed = 1;
nodes = (
(159,630,o),
(181,652,o),
(181,680,cs),
(181,708,o),
(159,730,o),
(131,730,cs),
(103,730,o),
(81,708,o),
(81,680,cs),
(81,652,o),
(103,630,o),
(131,630,cs)
);
}
);
width = 246;
},
{
anchors = (
{
name = top;
pos = (132,770);
}
);
hints = (
{
horizontal = 1;
origin = (0,6);
target = up;
type = BottomGhost;
},
{
horizontal = 1;
origin = (0,5);
target = down;
type = TopGhost;
},
{
origin = (0,6);
target = (0,3);
type = Stem;
},
{
horizontal = 1;
origin = (1,11);
target = (1,5);
type = Stem;
},
{
origin = (1,8);
target = (1,2);
type = Stem;
},
{
horizontal = 1;
place = (-198,88);
type = Stem;
},
{
place = (-25,146);
type = Stem;
}
);
layerId = "B51EB05F-9FBB-4087-814F-400611B2D4B0";
shapes = (
{
closed = 1;
nodes = (
(201,-105,l),
(93,-127,o),
(97,-67,o),
(207,0,c),
(207,530,l),
(57,530,l),
(57,0,l),
(-102,-86,o),
(-15,-233,o),
(201,-190,c)
);
},
{
closed = 1;
nodes = (
(180,600,o),
(217,637,o),
(217,685,cs),
(217,733,o),
(180,770,o),
(132,770,cs),
(84,770,o),
(47,733,o),
(47,685,cs),
(47,637,o),
(84,600,o),
(132,600,cs)
);
}
);
width = 267;
}
);
subCategory = Lowercase;
unicode = 303;
},
{
glyphname = j;
kernLeft = j;
kernRight = j;
lastChange = "2026-01-08 23:02:18 +0000";
layers = (
{
hints = (
{
horizontal = 1;
origin = (0,10);
target = (0,11);
type = Stem;
},
{
horizontal = 1;
origin = (0,5);
target = down;
type = TopGhost;
},
{
horizontal = 1;
origin = (1,5);
target = (0,4);
type = Stem;
},
{
origin = (0,0);
target = (0,4);
type = Stem;
},
{
origin = (0,6);
target = (0,3);
type = Stem;
}
);
layerId = "05246BF3-0764-4143-87C4-5D2B296D3790";
shapes = (
{
closed = 1;
nodes = (
(80,-220,ls),
(130,-220,o),
(180,-180,o),
(180,-110,cs),
(180,520,l),
(90,520,l),
(90,-100,ls),
(90,-130,o),
(70,-140,o),
(50,-140,cs),
(-10,-140,l),
(-10,-220,l)
);
},
{
closed = 1;
nodes = (
(166,620,o),
(190,644,o),
(190,675,cs),
(190,706,o),
(166,730,o),
(135,730,cs),
(104,730,o),
(80,706,o),
(80,675,cs),
(80,644,o),
(104,620,o),
(135,620,cs)
);
}
);
width = 255;
},
{
hints = (
{
horizontal = 1;
origin = (0,10);
target = (0,11);
type = Stem;
},
{
horizontal = 1;
origin = (0,5);
target = down;
type = TopGhost;
},
{
horizontal = 1;
origin = (1,11);
target = (1,5);
type = Stem;
},
{
origin = (1,8);
target = (1,2);
type = Stem;
},
{
origin = (0,0);
target = (0,3);
type = Stem;
}
);
layerId = "B51EB05F-9FBB-4087-814F-400611B2D4B0";
shapes = (
{
closed = 1;
nodes = (
(90,-220,ls),
(170,-220,o),
(240,-170,o),
(240,-80,cs),
(240,530,l),
(90,530,l),
(90,-70,ls),
(90,-100,o),
(70,-110,o),
(50,-110,cs),
(-20,-110,l),
(-20,-220,l)
);
},
{
closed = 1;
nodes = (
(213,580,o),
(250,617,o),
(250,665,cs),
(250,713,o),
(213,750,o),
(165,750,cs),
(117,750,o),
(80,713,o),
(80,665,cs),
(80,617,o),
(117,580,o),
(165,580,cs)
);
}
);
width = 305;
}
);
subCategory = Lowercase;
unicode = 106;
},
{
glyphname = jdotless;
lastChange = "2026-01-08 23:02:18 +0000";
layers = (
{
anchors = (
{
name = bottom;
pos = (123,-240);
},
{
name = top;
pos = (135,520);
}
);
hints = (
{
horizontal = 1;
origin = (0,11);
target = (0,10);
type = Stem;
},
{
horizontal = 1;
origin = (0,5);
target = down;
type = TopGhost;
},
{
origin = (0,6);
target = (0,3);
type = Stem;
}
);
layerId = "05246BF3-0764-4143-87C4-5D2B296D3790";
shapes = (
{
closed = 1;
nodes = (
(80,-220,ls),
(130,-220,o),
(180,-180,o),
(180,-110,cs),
(180,520,l),
(90,520,l),
(90,-100,ls),
(90,-130,o),
(70,-140,o),
(50,-140,cs),
(-10,-140,l),
(-10,-220,l)
);
}
);
width = 245;
},
{
anchors = (
{
name = bottom;
pos = (148,-240);
},
{
name = top;
pos = (165,530);
}
);
hints = (
{
horizontal = 1;
origin = (0,11);
target = (0,10);
type = Stem;
},
{
horizontal = 1;
origin = (0,5);
target = down;
type = TopGhost;
},
{
origin = (0,0);
target = (0,3);
type = Stem;
}
);
layerId = "B51EB05F-9FBB-4087-814F-400611B2D4B0";
shapes = (
{
closed = 1;
nodes = (
(90,-220,ls),
(170,-220,o),
(240,-170,o),
(240,-80,cs),
(240,530,l),
(90,530,l),
(90,-70,ls),
(90,-100,o),
(70,-110,o),
(50,-110,cs),
(-20,-110,l),
(-20,-220,l)
);
}
);
width = 295;
}
);
subCategory = Lowercase;
unicode = 567;
},
{
glyphname = k;
kernLeft = I;
kernRight = k;
lastChange = "2026-01-08 23:02:18 +0000";
layers = (
{
anchors = (
{
name = bottom;
pos = (285,0);
},
{
name = top;
pos = (263,780);
}
);
hints = (
{
horizontal = 1;
origin = (0,12);
target = up;
type = BottomGhost;
},
{
horizontal = 1;
origin = (0,7);
target = down;
type = TopGhost;
},
{
horizontal = 1;
origin = (0,11);
target = down;
type = TopGhost;
},
{
origin = (0,12);
target = (0,0);
type = Stem;
}
);
layerId = "05246BF3-0764-4143-87C4-5D2B296D3790";
shapes = (
{
closed = 1;
nodes = (
(165,0,l),
(165,170,l),
(227,241,l),
(410,0,l),
(505,0,l),
(279,301,l),
(470,520,l),
(370,520,l),
(175,290,l),
(165,290,l),
(165,720,l),
(75,720,l),
(75,0,l)
);
}
);
width = 515;
},
{
anchors = (
{
name = bottom;
pos = (295,0);
},
{
name = top;
pos = (273,780);
}
);
hints = (
{
horizontal = 1;
origin = (0,12);
target = up;
type = BottomGhost;
},
{
horizontal = 1;
origin = (0,7);
target = down;
type = TopGhost;
},
{
horizontal = 1;
origin = (0,11);
target = down;
type = TopGhost;
},
{
origin = (0,12);
target = (0,0);
type = Stem;
}
);
layerId = "B51EB05F-9FBB-4087-814F-400611B2D4B0";
shapes = (
{
closed = 1;
nodes = (
(210,0,l),
(210,145,l),
(261,205,l),
(415,0,l),
(575,0,l),
(345,305,l),
(535,530,l),
(375,530,l),
(220,340,l),
(210,340,l),
(210,720,l),
(60,720,l),
(60,0,l)
);
}
);
width = 585;
}
);
subCategory = Lowercase;
unicode = 107;
},
{
glyphname = l;
kernLeft = I;
kernRight = l;
lastChange = "2026-01-08 23:02:18 +0000";
layers = (
{
anchors = (
{
name = bottom;
pos = (158,0);
},
{
name = center;
pos = (280,397);
},
{
name = top;
pos = (120,720);
}
);
hints = (
{
horizontal = 1;
origin = (0,11);
target = (0,2);
type = Stem;
},
{
origin = (0,8);
target = (0,5);
type = Stem;
}
);
layerId = "05246BF3-0764-4143-87C4-5D2B296D3790";
shapes = (
{
closed = 1;
nodes = (
(240,0,l),
(240,80,l),
(205,80,ls),
(185,80,o),
(165,90,o),
(165,120,cs),
(165,720,l),
(75,720,l),
(75,110,ls),
(75,40,o),
(125,0,o),
(175,0,cs)
);
}
);
width = 270;
},
{
anchors = (
{
name = bottom;
pos = (168,0);
},
{
name = center;
pos = (325,411);
},
{
name = top;
pos = (135,720);
}
);
hints = (
{
horizontal = 1;
origin = (0,11);
target = (0,2);
type = Stem;
},
{
origin = (0,8);
target = (0,11);
type = Stem;
}
);
layerId = "B51EB05F-9FBB-4087-814F-400611B2D4B0";
shapes = (
{
closed = 1;
nodes = (
(305,0,l),
(305,110,l),
(250,110,ls),
(230,110,o),
(210,120,o),
(210,150,cs),
(210,720,l),
(60,720,l),
(60,140,ls),
(60,50,o),
(130,0,o),
(210,0,cs)
);
}
);
width = 325;
}
);
subCategory = Lowercase;
unicode = 108;
},
{
glyphname = lslash;
kernLeft = l;
kernRight = l;
lastChange = "2026-01-08 23:02:18 +0000";
layers = (
{
hints = (
{
horizontal = 1;
origin = (0,3);
target = (0,1);
type = Stem;
},
{
origin = (0,3);
target = (0,0);
type = Stem;
}
);
layerId = "05246BF3-0764-4143-87C4-5D2B296D3790";
shapes = (
{
closed = 1;
nodes = (
(235,397,l),
(235,467,l),
(35,367,l),
(35,297,l)
);
},
{
pos = (10,0);
ref = l;
}
);
width = 285;
},
{
hints = (
{
horizontal = 1;
origin = (0,3);
target = (0,1);
type = Stem;
},
{
origin = (0,3);
target = (0,0);
type = Stem;
}
);
layerId = "B51EB05F-9FBB-4087-814F-400611B2D4B0";
shapes = (
{
closed = 1;
nodes = (
(290,397,l),
(290,497,l),
(20,357,l),
(20,257,l)
);
},
{
pos = (15,0);
ref = l;
}
);
width = 340;
}
);
subCategory = Lowercase;
unicode = 322;
},
{
glyphname = m;
kernLeft = n;
kernRight = n;
lastChange = "2026-01-08 23:02:18 +0000";
layers = (
{
anchors = (
{
name = bottom;
pos = (443,0);
},
{
name = top;
pos = (443,520);
}
);
hints = (
{
horizontal = 1;
origin = (0,36);
target = up;
type = BottomGhost;
},
{
horizontal = 1;
origin = (0,29);
target = (0,4);
type = Stem;
},
{
horizontal = 1;
origin = (0,35);
target = down;
type = TopGhost;
},
{
origin = (0,36);
target = (0,0);
type = Stem;
},
{
origin = (0,8);
target = (0,9);
type = Stem;
},
{
origin = (0,17);
target = (0,18);
type = Stem;
}
);
layerId = "05246BF3-0764-4143-87C4-5D2B296D3790";
shapes = (
{
closed = 1;
nodes = (
(165,0,l),
(165,280,ls),
(165,390,o),
(220,450,o),
(290,450,cs),
(350,450,o),
(395,410,o),
(395,330,cs),
(395,0,l),
(485,0,l),
(485,280,ls),
(485,390,o),
(540,450,o),
(610,450,cs),
(670,450,o),
(715,410,o),
(715,330,cs),
(715,0,l),
(805,0,l),
(805,330,ls),
(805,470,o),
(730,530,o),
(640,530,cs),
(560,530,o),
(513,490,o),
(483,420,c),
(472,420,l),
(447,495,o),
(388,530,o),
(320,530,cs),
(240,530,o),
(205,490,o),
(175,420,c),
(165,420,l),
(165,520,l),
(75,520,l),
(75,0,l)
);
}
);
width = 870;
},
{
anchors = (
{
name = bottom;
pos = (438,0);
},
{
name = top;
pos = (438,520);
}
);
hints = (
{
horizontal = 1;
origin = (0,36);
target = up;
type = BottomGhost;
},
{
horizontal = 1;
origin = (0,29);
target = (0,4);
type = Stem;
},
{
horizontal = 1;
origin = (0,35);
target = (0,4);
type = Stem;
},
{
origin = (0,36);
target = (0,0);
type = Stem;
},
{
origin = (0,8);
target = (0,9);
type = Stem;
},
{
origin = (0,17);
target = (0,18);
type = Stem;
}
);
layerId = "B51EB05F-9FBB-4087-814F-400611B2D4B0";
shapes = (
{
closed = 1;
nodes = (
(210,0,l),
(210,280,ls),
(210,380,o),
(235,430,o),
(295,430,cs),
(345,430,o),
(370,390,o),
(370,330,cs),
(370,0,l),
(520,0,l),
(520,280,ls),
(520,380,o),
(545,430,o),
(605,430,cs),
(655,430,o),
(680,390,o),
(680,330,cs),
(680,0,l),
(830,0,l),
(830,330,ls),
(830,470,o),
(755,540,o),
(655,540,cs),
(585,540,o),
(540,510,o),
(510,450,c),
(498,450,l),
(471,510,o),
(420,540,o),
(355,540,cs),
(285,540,o),
(250,510,o),
(220,450,c),
(210,450,l),
(210,530,l),
(60,530,l),
(60,0,l)
);
}
);
width = 880;
}
);
subCategory = Lowercase;
unicode = 109;
},
{
glyphname = n;
kernLeft = n;
kernRight = n;
lastChange = "2026-01-08 23:02:18 +0000";
layers = (
{
anchors = (
{
name = bottom;
pos = (300,0);
},
{
name = top;
pos = (300,530);
}
);
hints = (
{
horizontal = 1;
origin = (0,20);
target = up;
type = BottomGhost;
},
{
horizontal = 1;
origin = (0,13);
target = (0,4);
type = Stem;
},
{
horizontal = 1;
origin = (0,19);
target = down;
type = TopGhost;
},
{
origin = (0,20);
target = (0,0);
type = Stem;
},
{
origin = (0,8);
target = (0,9);
type = Stem;
}
);
layerId = "05246BF3-0764-4143-87C4-5D2B296D3790";
shapes = (
{
closed = 1;
nodes = (
(165,0,l),
(165,280,ls),
(165,390,o),
(230,450,o),
(300,450,cs),
(370,450,o),
(415,420,o),
(415,330,cs),
(415,0,l),
(505,0,l),
(505,330,ls),
(505,470,o),
(430,530,o),
(330,530,cs),
(250,530,o),
(205,500,o),
(175,430,c),
(165,430,l),
(165,520,l),
(75,520,l),
(75,0,l)
);
}
);
width = 570;
},
{
anchors = (
{
name = bottom;
pos = (305,0);
},
{
name = top;
pos = (305,540);
}
);
hints = (
{
horizontal = 1;
origin = (0,20);
target = up;
type = BottomGhost;
},
{
horizontal = 1;
origin = (0,13);
target = (0,4);
type = Stem;
},
{
horizontal = 1;
origin = (0,19);
target = (0,4);
type = Stem;
},
{
origin = (0,20);
target = (0,0);
type = Stem;
},
{
origin = (0,8);
target = (0,9);
type = Stem;
}
);
layerId = "B51EB05F-9FBB-4087-814F-400611B2D4B0";
shapes = (
{
closed = 1;
nodes = (
(210,0,l),
(210,280,ls),
(210,370,o),
(245,430,o),
(305,430,cs),
(365,430,o),
(390,400,o),
(390,330,cs),
(390,0,l),
(540,0,l),
(540,330,ls),
(540,470,o),
(465,540,o),
(365,540,cs),
(295,540,o),
(250,510,o),
(220,450,c),
(210,450,l),
(210,530,l),
(60,530,l),
(60,0,l)
);
}
);
width = 590;
}
);
subCategory = Lowercase;
unicode = 110;
},
{
glyphname = eng;
lastChange = "2026-01-08 23:02:18 +0000";
layers = (
{
anchors = (
{
name = bottom;
pos = (300,0);
},
{
name = top;
pos = (300,530);
}
);
hints = (
{
horizontal = 1;
origin = (0,28);
target = (0,27);
type = Stem;
},
{
origin = (0,23);
target = (0,3);
type = Stem;
},
{
horizontal = 1;
origin = (0,14);
target = up;
type = BottomGhost;
},
{
horizontal = 1;
origin = (0,7);
target = (0,19);
type = Stem;
},
{
horizontal = 1;
origin = (0,13);
target = down;
type = TopGhost;
},
{
origin = (0,14);
target = (0,15);
type = Stem;
},
{
origin = (0,24);
target = (0,4);
type = Stem;
}
);
layerId = "05246BF3-0764-4143-87C4-5D2B296D3790";
shapes = (
{
closed = 1;
nodes = (
(400,-200,ls),
(450,-200,o),
(505,-160,o),
(505,-90,cs),
(505,330,ls),
(505,470,o),
(430,530,o),
(330,530,cs),
(250,530,o),
(205,500,o),
(175,430,c),
(165,430,l),
(165,520,l),
(75,520,l),
(75,0,l),
(165,0,l),
(165,280,ls),
(165,390,o),
(230,450,o),
(300,450,cs),
(370,450,o),
(415,420,o),
(415,330,cs),
(415,-90,ls),
(415,-120,o),
(391,-130,o),
(371,-130,cs),
(315,-130,l),
(315,-200,l)
);
}
);
width = 580;
},
{
anchors = (
{
name = bottom;
pos = (305,0);
},
{
name = top;
pos = (305,540);
}
);
hints = (
{
horizontal = 1;
origin = (0,28);
target = (0,27);
type = Stem;
},
{
origin = (0,23);
target = (0,3);
type = Stem;
},
{
horizontal = 1;
origin = (0,14);
target = up;
type = BottomGhost;
},
{
horizontal = 1;
origin = (0,7);
target = (0,19);
type = Stem;
},
{
horizontal = 1;
origin = (0,13);
target = (0,19);
type = Stem;
},
{
origin = (0,14);
target = (0,15);
type = Stem;
},
{
origin = (0,24);
target = (0,4);
type = Stem;
}
);
layerId = "B51EB05F-9FBB-4087-814F-400611B2D4B0";
shapes = (
{
closed = 1;
nodes = (
(425,-200,ls),
(475,-200,o),
(540,-160,o),
(540,-90,cs),
(540,330,ls),
(540,470,o),
(465,540,o),
(365,540,cs),
(295,540,o),
(250,510,o),
(220,450,c),
(210,450,l),
(210,530,l),
(60,530,l),
(60,0,l),
(210,0,l),
(210,280,ls),
(210,370,o),
(245,430,o),
(305,430,cs),
(365,430,o),
(390,400,o),
(390,330,cs),
(390,-50,ls),
(390,-80,o),
(366,-90,o),
(346,-90,cs),
(280,-90,l),
(280,-200,l)
);
}
);
width = 600;
}
);
subCategory = Lowercase;
unicode = 331;
},
{
glyphname = o;
kernLeft = o;
kernRight = o;
lastChange = "2026-01-14 21:47:02 +0000";
layers = (
{
anchors = (
{
name = bottom;
pos = (285,0);
},
{
name = center;
pos = (285,260);
},
{
name = ogonek;
pos = (517,10);
},
{
name = top;
pos = (285,520);
},
{
name = topright;
pos = (555,520);
}
);
hints = (
{
horizontal = 1;
origin = (1,11);
target = (0,11);
type = Stem;
},
{
horizontal = 1;
origin = (0,5);
target = (1,5);
type = Stem;
},
{
origin = (0,8);
target = (1,2);
type = Stem;
},
{
origin = (1,8);
target = (0,2);
type = Stem;
}
);
layerId = "05246BF3-0764-4143-87C4-5D2B296D3790";
shapes = (
{
closed = 1;
nodes = (
(435,-10,o),
(525,100,o),
(525,260,cs),
(525,420,o),
(435,530,o),
(285,530,cs),
(135,530,o),
(45,420,o),
(45,260,cs),
(45,100,o),
(135,-10,o),
(285,-10,cs)
);
},
{
closed = 1;
nodes = (
(175,70,o),
(135,160,o),
(135,260,cs),
(135,360,o),
(175,450,o),
(285,450,cs),
(395,450,o),
(435,360,o),
(435,260,cs),
(435,160,o),
(395,70,o),
(285,70,cs)
);
}
);
width = 570;
},
{
anchors = (
{
name = bottom;
pos = (295,0);
},
{
name = center;
pos = (297,260);
},
{
name = ogonek;
pos = (529,10);
},
{
name = top;
pos = (295,540);
},
{
name = topright;
pos = (567,520);
}
);
hints = (
{
horizontal = 1;
origin = (0,11);
target = (1,11);
type = Stem;
},
{
horizontal = 1;
origin = (0,5);
target = (1,5);
type = Stem;
},
{
origin = (0,8);
target = (1,2);
type = Stem;
},
{
origin = (1,8);
target = (0,2);
type = Stem;
}
);
layerId = "B51EB05F-9FBB-4087-814F-400611B2D4B0";
shapes = (
{
closed = 1;
nodes = (
(455,-10,o),
(555,95,o),
(555,265,cs),
(555,435,o),
(455,540,o),
(295,540,cs),
(135,540,o),
(35,435,o),
(35,265,cs),
(35,95,o),
(135,-10,o),
(295,-10,cs)
);
},
{
closed = 1;
nodes = (
(205,100,o),
(185,185,o),
(185,265,cs),
(185,345,o),
(205,430,o),
(295,430,cs),
(385,430,o),
(405,345,o),
(405,265,cs),
(405,185,o),
(385,100,o),
(295,100,cs)
);
}
);
width = 590;
}
);
subCategory = Lowercase;
unicode = 111;
},
{
glyphname = oslash;
kernLeft = c;
kernRight = o;
lastChange = "2026-01-08 23:02:18 +0000";
layers = (
{
hints = (
{
horizontal = 1;
origin = (0,3);
target = up;
type = BottomGhost;
},
{
horizontal = 1;
origin = (0,2);
target = down;
type = TopGhost;
}
);
layerId = "05246BF3-0764-4143-87C4-5D2B296D3790";
shapes = (
{
closed = 1;
nodes = (
(97,-10,l),
(547,530,l),
(477,530,l),
(27,-10,l)
);
},
{
ref = o;
}
);
width = 574;
},
{
hints = (
{
horizontal = 1;
origin = (0,3);
target = up;
type = BottomGhost;
},
{
horizontal = 1;
origin = (0,2);
target = down;
type = TopGhost;
}
);
layerId = "B51EB05F-9FBB-4087-814F-400611B2D4B0";
shapes = (
{
closed = 1;
nodes = (
(130,-10,l),
(600,530,l),
(490,530,l),
(20,-10,l)
);
},
{
pos = (13,0);
ref = o;
}
);
width = 620;
}
);
subCategory = Lowercase;
unicode = 248;
},
{
glyphname = oe;
kernLeft = c;
kernRight = e;
lastChange = "2026-01-08 23:02:18 +0000";
layers = (
{
hints = (
{
horizontal = 1;
origin = (0,32);
target = (1,11);
type = Stem;
},
{
horizontal = 1;
origin = (0,15);
target = (2,6);
type = Stem;
},
{
horizontal = 1;
origin = (0,26);
target = (1,5);
type = Stem;
},
{
origin = (0,29);
target = (1,2);
type = Stem;
},
{
place = (435,102);
type = Stem;
},
{
place = (819,91);
type = Stem;
}
);
layerId = "05246BF3-0764-4143-87C4-5D2B296D3790";
shapes = (
{
closed = 1;
nodes = (
(376,-10,o),
(445,31,o),
(485,98,c),
(525,31,o),
(594,-10,o),
(685,-10,cs),
(788,-10,o),
(852,51,o),
(889,135,c),
(793,135,l),
(767,94,o),
(745,70,o),
(685,70,cs),
(588,70,o),
(546,139,o),
(537,225,c),
(909,225,l),
(910,260,ls),
(910,420,o),
(835,530,o),
(685,530,cs),
(594,530,o),
(525,489,o),
(485,422,c),
(445,489,o),
(376,530,o),
(285,530,cs),
(135,530,o),
(45,420,o),
(45,260,cs),
(45,100,o),
(135,-10,o),
(285,-10,cs)
);
},
{
closed = 1;
nodes = (
(175,70,o),
(135,160,o),
(135,260,cs),
(135,360,o),
(175,450,o),
(285,450,cs),
(395,450,o),
(435,360,o),
(435,260,cs),
(435,160,o),
(395,70,o),
(285,70,cs)
);
},
{
closed = 1;
nodes = (
(546,381,o),
(588,450,o),
(685,450,cs),
(782,450,o),
(813,381,o),
(819,295,c),
(537,295,l)
);
}
);
width = 964;
},
{
hints = (
{
horizontal = 1;
origin = (0,32);
target = (1,11);
type = Stem;
},
{
horizontal = 1;
origin = (0,15);
target = (2,6);
type = Stem;
},
{
horizontal = 1;
origin = (0,26);
target = (1,5);
type = Stem;
},
{
origin = (0,29);
target = (1,2);
type = Stem;
},
{
place = (400,172);
type = Stem;
},
{
place = (779,151);
type = Stem;
}
);
layerId = "B51EB05F-9FBB-4087-814F-400611B2D4B0";
shapes = (
{
closed = 1;
nodes = (
(378,-10,o),
(445,18,o),
(490,69,c),
(535,18,o),
(602,-10,o),
(685,-10,cs),
(808,-10,o),
(896,61,o),
(923,145,c),
(773,145,l),
(747,114,o),
(735,100,o),
(685,100,cs),
(612,100,o),
(585,155,o),
(577,220,c),
(934,220,l),
(935,265,ls),
(935,435,o),
(845,540,o),
(685,540,cs),
(602,540,o),
(535,512,o),
(490,461,c),
(445,512,o),
(378,540,o),
(295,540,cs),
(135,540,o),
(35,435,o),
(35,265,cs),
(35,95,o),
(135,-10,o),
(295,-10,cs)
);
},
{
closed = 1;
nodes = (
(205,100,o),
(185,185,o),
(185,265,cs),
(185,345,o),
(205,430,o),
(295,430,cs),
(385,430,o),
(405,345,o),
(405,265,cs),
(405,185,o),
(385,100,o),
(295,100,cs)
);
},
{
closed = 1;
nodes = (
(585,375,o),
(612,430,o),
(685,430,cs),
(759,430,o),
(779,379,o),
(784,310,c),
(577,310,l)
);
}
);
width = 970;
}
);
subCategory = Lowercase;
unicode = 339;
},
{
glyphname = p;
kernLeft = p;
kernRight = o;
lastChange = "2026-01-08 23:02:18 +0000";
layers = (
{
anchors = (
{
name = bottom;
pos = (310,0);
},
{
name = top;
pos = (310,520);
}
);
hints = (
{
horizontal = 1;
origin = (1,11);
target = (0,5);
type = Stem;
},
{
horizontal = 1;
origin = (0,11);
target = (1,5);
type = Stem;
},
{
horizontal = 1;
origin = (0,17);
target = down;
type = TopGhost;
},
{
origin = (0,18);
target = (0,0);
type = Stem;
},
{
origin = (1,8);
target = (0,8);
type = Stem;
},
{
origin = (0,18);
target = (1,2);
type = Stem;
}
);
layerId = "05246BF3-0764-4143-87C4-5D2B296D3790";
shapes = (
{
closed = 1;
nodes = (
(165,-220,l),
(165,100,l),
(175,100,l),
(205,30,o),
(270,-10,o),
(350,-10,cs),
(480,-10,o),
(570,100,o),
(570,260,cs),
(570,420,o),
(480,530,o),
(350,530,cs),
(270,530,o),
(205,490,o),
(175,420,c),
(165,420,l),
(165,520,l),
(75,520,l),
(75,-220,l)
);
},
{
closed = 1;
nodes = (
(240,70,o),
(170,130,o),
(170,260,cs),
(170,390,o),
(240,450,o),
(330,450,cs),
(420,450,o),
(480,390,o),
(480,260,cs),
(480,130,o),
(420,70,o),
(330,70,cs)
);
}
);
width = 615;
},
{
anchors = (
{
name = bottom;
pos = (325,0);
},
{
name = top;
pos = (325,520);
}
);
hints = (
{
horizontal = 1;
origin = (0,5);
target = (1,11);
type = Stem;
},
{
horizontal = 1;
origin = (0,11);
target = (1,5);
type = Stem;
},
{
horizontal = 1;
origin = (0,17);
target = (1,5);
type = Stem;
},
{
origin = (0,18);
target = (0,0);
type = Stem;
},
{
origin = (1,8);
target = (0,8);
type = Stem;
},
{
origin = (0,18);
target = (1,2);
type = Stem;
}
);
layerId = "B51EB05F-9FBB-4087-814F-400611B2D4B0";
shapes = (
{
closed = 1;
nodes = (
(210,-200,l),
(210,80,l),
(220,80,l),
(250,30,o),
(295,-10,o),
(375,-10,cs),
(515,-10,o),
(605,95,o),
(605,265,cs),
(605,435,o),
(515,540,o),
(375,540,cs),
(295,540,o),
(250,500,o),
(220,450,c),
(210,450,l),
(210,530,l),
(60,530,l),
(60,-200,l)
);
},
{
closed = 1;
nodes = (
(255,100,o),
(215,165,o),
(215,265,cs),
(215,365,o),
(255,430,o),
(335,430,cs),
(415,430,o),
(455,365,o),
(455,265,cs),
(455,165,o),
(415,100,o),
(335,100,cs)
);
}
);
width = 640;
}
);
subCategory = Lowercase;
unicode = 112;
},
{
glyphname = thorn;
kernRight = b;
lastChange = "2026-01-08 23:02:18 +0000";
layers = (
{
hints = (
{
horizontal = 1;
origin = (0,5);
target = (1,11);
type = Stem;
},
{
horizontal = 1;
origin = (0,11);
target = (1,5);
type = Stem;
},
{
horizontal = 1;
origin = (0,17);
target = down;
type = TopGhost;
},
{
origin = (0,18);
target = (0,0);
type = Stem;
},
{
origin = (1,8);
target = (0,8);
type = Stem;
},
{
origin = (0,18);
target = (1,2);
type = Stem;
}
);
layerId = "05246BF3-0764-4143-87C4-5D2B296D3790";
shapes = (
{
closed = 1;
nodes = (
(165,-220,l),
(165,100,l),
(175,100,l),
(205,30,o),
(270,-10,o),
(350,-10,cs),
(480,-10,o),
(570,100,o),
(570,260,cs),
(570,420,o),
(480,530,o),
(350,530,cs),
(270,530,o),
(205,490,o),
(175,420,c),
(165,420,l),
(165,720,l),
(75,720,l),
(75,-220,l)
);
},
{
closed = 1;
nodes = (
(240,70,o),
(170,130,o),
(170,260,cs),
(170,390,o),
(240,450,o),
(330,450,cs),
(420,450,o),
(480,390,o),
(480,260,cs),
(480,130,o),
(420,70,o),
(330,70,cs)
);
}
);
width = 615;
},
{
hints = (
{
horizontal = 1;
origin = (0,5);
target = (1,11);
type = Stem;
},
{
horizontal = 1;
origin = (0,11);
target = (1,5);
type = Stem;
},
{
horizontal = 1;
origin = (0,17);
target = down;
type = TopGhost;
},
{
origin = (0,18);
target = (0,0);
type = Stem;
},
{
origin = (1,8);
target = (0,8);
type = Stem;
},
{
origin = (0,18);
target = (1,2);
type = Stem;
}
);
layerId = "B51EB05F-9FBB-4087-814F-400611B2D4B0";
shapes = (
{
closed = 1;
nodes = (
(210,-200,l),
(210,80,l),
(220,80,l),
(250,30,o),
(295,-10,o),
(375,-10,cs),
(515,-10,o),
(605,95,o),
(605,265,cs),
(605,435,o),
(515,540,o),
(375,540,cs),
(295,540,o),
(250,500,o),
(220,450,c),
(210,450,l),
(210,720,l),
(60,720,l),
(60,-200,l)
);
},
{
closed = 1;
nodes = (
(255,100,o),
(215,165,o),
(215,265,cs),
(215,365,o),
(255,430,o),
(335,430,cs),
(415,430,o),
(455,365,o),
(455,265,cs),
(455,165,o),
(415,100,o),
(335,100,cs)
);
}
);
width = 640;
}
);
subCategory = Lowercase;
unicode = 254;
},
{
glyphname = q;
kernLeft = o;
kernRight = g;
lastChange = "2026-01-08 23:02:18 +0000";
layers = (
{
anchors = (
{
name = bottom;
pos = (295,0);
},
{
name = top;
pos = (295,520);
}
);
hints = (
{
horizontal = 1;
origin = (1,11);
target = (0,13);
type = Stem;
},
{
horizontal = 1;
origin = (0,7);
target = (1,5);
type = Stem;
},
{
horizontal = 1;
origin = (0,2);
target = down;
type = TopGhost;
},
{
origin = (0,10);
target = (1,2);
type = Stem;
},
{
origin = (0,18);
target = (0,0);
type = Stem;
},
{
origin = (1,8);
target = (0,0);
type = Stem;
}
);
layerId = "05246BF3-0764-4143-87C4-5D2B296D3790";
shapes = (
{
closed = 1;
nodes = (
(540,-220,l),
(540,520,l),
(450,520,l),
(450,420,l),
(440,420,l),
(410,490,o),
(345,530,o),
(265,530,cs),
(135,530,o),
(45,420,o),
(45,260,cs),
(45,100,o),
(135,-10,o),
(265,-10,cs),
(345,-10,o),
(410,30,o),
(440,100,c),
(450,100,l),
(450,-220,l)
);
},
{
closed = 1;
nodes = (
(195,70,o),
(135,130,o),
(135,260,cs),
(135,390,o),
(195,450,o),
(285,450,cs),
(375,450,o),
(445,390,o),
(445,260,cs),
(445,130,o),
(375,70,o),
(285,70,cs)
);
}
);
width = 615;
},
{
anchors = (
{
name = bottom;
pos = (325,0);
},
{
name = top;
pos = (325,520);
}
);
hints = (
{
horizontal = 1;
origin = (0,13);
target = (1,11);
type = Stem;
},
{
horizontal = 1;
origin = (0,7);
target = (1,5);
type = Stem;
},
{
horizontal = 1;
origin = (0,2);
target = (1,5);
type = Stem;
},
{
origin = (0,10);
target = (1,2);
type = Stem;
},
{
origin = (0,18);
target = (0,0);
type = Stem;
},
{
origin = (1,8);
target = (0,0);
type = Stem;
}
);
layerId = "B51EB05F-9FBB-4087-814F-400611B2D4B0";
shapes = (
{
closed = 1;
nodes = (
(580,-200,l),
(580,530,l),
(430,530,l),
(430,450,l),
(420,450,l),
(390,500,o),
(345,540,o),
(265,540,cs),
(125,540,o),
(35,435,o),
(35,265,cs),
(35,95,o),
(125,-10,o),
(265,-10,cs),
(345,-10,o),
(390,30,o),
(420,80,c),
(430,80,l),
(430,-200,l)
);
},
{
closed = 1;
nodes = (
(225,100,o),
(185,165,o),
(185,265,cs),
(185,365,o),
(225,430,o),
(305,430,cs),
(385,430,o),
(425,365,o),
(425,265,cs),
(425,165,o),
(385,100,o),
(305,100,cs)
);
}
);
width = 640;
}
);
subCategory = Lowercase;
unicode = 113;
},
{
glyphname = r;
kernLeft = n;
kernRight = r;
lastChange = "2026-01-08 23:02:18 +0000";
layers = (
{
anchors = (
{
name = bottom;
pos = (120,0);
},
{
name = top;
pos = (225,520);
}
);
hints = (
{
horizontal = 1;
origin = (0,14);
target = up;
type = BottomGhost;
},
{
horizontal = 1;
origin = (0,13);
target = (0,4);
type = Stem;
},
{
origin = (0,14);
target = (0,0);
type = Stem;
}
);
layerId = "05246BF3-0764-4143-87C4-5D2B296D3790";
shapes = (
{
closed = 1;
nodes = (
(165,0,l),
(165,280,ls),
(165,390,o),
(230,440,o),
(300,440,cs),
(355,440,l),
(355,520,l),
(330,520,ls),
(250,520,o),
(205,490,o),
(175,420,c),
(165,420,l),
(165,520,l),
(75,520,l),
(75,0,l)
);
}
);
width = 370;
},
{
anchors = (
{
name = bottom;
pos = (135,0);
},
{
name = top;
pos = (275,530);
}
);
hints = (
{
horizontal = 1;
origin = (0,14);
target = up;
type = BottomGhost;
},
{
horizontal = 1;
origin = (0,13);
target = (0,4);
type = Stem;
},
{
origin = (0,14);
target = (0,0);
type = Stem;
}
);
layerId = "B51EB05F-9FBB-4087-814F-400611B2D4B0";
shapes = (
{
closed = 1;
nodes = (
(210,0,l),
(210,280,ls),
(210,370,o),
(265,420,o),
(325,420,cs),
(415,420,l),
(415,530,l),
(365,530,ls),
(295,530,o),
(250,510,o),
(220,450,c),
(210,450,l),
(210,530,l),
(60,530,l),
(60,0,l)
);
}
);
width = 415;
}
);
subCategory = Lowercase;
unicode = 114;
},
{
glyphname = s;
kernLeft = s;
kernRight = s;
lastChange = "2026-01-08 23:02:18 +0000";
layers = (
{
anchors = (
{
name = bottom;
pos = (235,0);
},
{
name = top;
pos = (235,530);
}
);
hints = (
{
horizontal = 1;
origin = (0,37);
target = (0,30);
type = Stem;
},
{
horizontal = 1;
origin = (0,18);
target = (0,11);
type = Stem;
},
{
origin = (0,21);
target = (0,8);
type = Stem;
},
{
origin = (0,27);
target = (0,2);
type = Stem;
},
{
origin = (0,14);
target = (0,15);
type = Stem;
}
);
layerId = "05246BF3-0764-4143-87C4-5D2B296D3790";
shapes = (
{
closed = 1;
nodes = (
(355,-10,o),
(450,40,o),
(450,150,cs),
(450,240,o),
(385,280,o),
(255,304,cs),
(175,319,o),
(145,335,o),
(145,375,cs),
(145,425,o),
(185,450,o),
(235,450,cs),
(315,450,o),
(338,415,o),
(348,385,c),
(438,385,l),
(427,469,o),
(345,530,o),
(235,530,cs),
(125,530,o),
(55,455,o),
(55,375,cs),
(55,275,o),
(115,248,o),
(235,226,cs),
(305,213,o),
(360,200,o),
(360,150,cs),
(360,90,o),
(305,70,o),
(235,70,cs),
(175,70,o),
(135,105,o),
(125,135,c),
(35,135,l),
(45,65,o),
(115,-10,o),
(235,-10,cs)
);
}
);
width = 485;
},
{
anchors = (
{
name = bottom;
pos = (261,0);
},
{
name = top;
pos = (261,540);
}
);
hints = (
{
horizontal = 1;
origin = (0,37);
target = (0,30);
type = Stem;
},
{
horizontal = 1;
origin = (0,18);
target = (0,11);
type = Stem;
},
{
horizontal = 1;
origin = (0,18);
target = (0,14);
type = Stem;
},
{
horizontal = 1;
origin = (0,37);
target = (0,34);
type = Stem;
},
{
origin = (0,21);
target = (0,8);
type = Stem;
},
{
origin = (0,27);
target = (0,2);
type = Stem;
}
);
layerId = "B51EB05F-9FBB-4087-814F-400611B2D4B0";
shapes = (
{
closed = 1;
nodes = (
(396,-10,o),
(496,35,o),
(496,160,cs),
(496,250,o),
(431,303,o),
(261,325,cs),
(207,332,o),
(201,360,o),
(201,385,cs),
(201,410,o),
(221,430,o),
(261,430,cs),
(306,430,o),
(325,416,o),
(334,375,c),
(484,375,l),
(473,474,o),
(406,540,o),
(261,540,cs),
(146,540,o),
(51,485,o),
(51,365,cs),
(51,265,o),
(141,220,o),
(261,205,cs),
(323,197,o),
(346,180,o),
(346,150,cs),
(346,110,o),
(311,100,o),
(261,100,cs),
(216,100,o),
(195,112,o),
(180,150,c),
(30,150,l),
(42,50,o),
(126,-10,o),
(261,-10,cs)
);
}
);
width = 526;
}
);
subCategory = Lowercase;
unicode = 115;
},
{
glyphname = germandbls;
kernLeft = f;
kernRight = germandbls;
lastChange = "2026-01-08 23:02:18 +0000";
layers = (
{
hints = (
{
horizontal = 1;
origin = (0,35);
target = (0,17);
type = Stem;
},
{
horizontal = 1;
origin = (0,31);
target = (0,4);
type = Stem;
},
{
origin = (0,35);
target = (0,0);
type = Stem;
},
{
origin = (0,18);
target = (0,25);
type = Stem;
},
{
origin = (0,13);
target = (0,22);
type = Stem;
},
{
origin = (0,7);
target = (0,28);
type = Stem;
}
);
layerId = "05246BF3-0764-4143-87C4-5D2B296D3790";
shapes = (
{
closed = 1;
nodes = (
(155,0,l),
(155,540,ls),
(155,610,o),
(185,660,o),
(265,660,cs),
(345,660,o),
(375,610,o),
(375,540,cs),
(375,460,o),
(255,490,o),
(255,380,cs),
(255,240,o),
(434,320,o),
(434,170,cs),
(434,90,o),
(355,70,o),
(275,70,cs),
(255,70,l),
(255,0,l),
(275,0,ls),
(385,0,o),
(514,23,o),
(514,170,cs),
(514,350,o),
(335,320,o),
(335,380,cs),
(335,440,o),
(455,420,o),
(455,540,cs),
(455,650,o),
(385,730,o),
(265,730,cs),
(145,730,o),
(75,650,o),
(75,540,cs),
(75,0,l)
);
}
);
width = 564;
},
{
hints = (
{
horizontal = 1;
origin = (0,35);
target = (0,17);
type = Stem;
},
{
horizontal = 1;
origin = (0,31);
target = (0,4);
type = Stem;
},
{
origin = (0,35);
target = (0,0);
type = Stem;
},
{
origin = (0,13);
target = (0,22);
type = Stem;
},
{
origin = (0,7);
target = (0,28);
type = Stem;
},
{
origin = (0,18);
target = (0,25);
type = Stem;
}
);
layerId = "B51EB05F-9FBB-4087-814F-400611B2D4B0";
shapes = (
{
closed = 1;
nodes = (
(210,0,l),
(210,540,ls),
(210,590,o),
(235,620,o),
(295,620,cs),
(355,620,o),
(375,590,o),
(375,540,cs),
(375,475,o),
(255,505,o),
(255,380,cs),
(255,225,o),
(432,305,o),
(432,170,cs),
(432,105,o),
(370,110,o),
(315,110,cs),
(255,110,l),
(255,0,l),
(315,0,ls),
(440,0,o),
(582,8,o),
(582,170,cs),
(582,365,o),
(405,335,o),
(405,380,cs),
(405,425,o),
(525,405,o),
(525,540,cs),
(525,665,o),
(430,730,o),
(295,730,cs),
(160,730,o),
(60,665,o),
(60,540,cs),
(60,0,l)
);
}
);
width = 622;
}
);
subCategory = Lowercase;
unicode = 223;
},
{
glyphname = t;
kernLeft = t;
kernRight = t;
lastChange = "2026-01-08 23:02:18 +0000";
layers = (
{
anchors = (
{
name = bottom;
pos = (205,10);
},
{
name = center;
pos = (183,260);
},
{
name = top;
pos = (150,680);
},
{
name = topright;
pos = (350,520);
}
);
hints = (
{
horizontal = 1;
origin = (0,19);
target = (0,2);
type = Stem;
},
{
horizontal = 1;
origin = (0,13);
target = (0,14);
type = Stem;
},
{
origin = (0,16);
target = (0,0);
type = Stem;
},
{
origin = (0,16);
target = (0,5);
type = Stem;
}
);
layerId = "05246BF3-0764-4143-87C4-5D2B296D3790";
shapes = (
{
closed = 1;
nodes = (
(320,0,l),
(320,80,l),
(235,80,ls),
(215,80,o),
(195,90,o),
(195,120,cs),
(195,440,l),
(320,440,l),
(320,520,l),
(195,520,l),
(195,680,l),
(105,680,l),
(105,520,l),
(30,520,l),
(30,440,l),
(105,440,l),
(105,110,ls),
(105,40,o),
(155,0,o),
(205,0,cs)
);
}
);
width = 350;
},
{
anchors = (
{
name = bottom;
pos = (245,10);
},
{
name = center;
pos = (175,260);
},
{
name = top;
pos = (170,680);
},
{
name = topright;
pos = (342,525);
}
);
hints = (
{
horizontal = 1;
origin = (0,19);
target = (0,2);
type = Stem;
},
{
horizontal = 1;
origin = (0,13);
target = (0,14);
type = Stem;
},
{
origin = (0,16);
target = (0,19);
type = Stem;
}
);
layerId = "B51EB05F-9FBB-4087-814F-400611B2D4B0";
shapes = (
{
closed = 1;
nodes = (
(365,0,l),
(365,110,l),
(285,110,ls),
(265,110,o),
(245,120,o),
(245,150,cs),
(245,420,l),
(365,420,l),
(365,530,l),
(245,530,l),
(245,680,l),
(95,680,l),
(95,530,l),
(25,530,l),
(25,420,l),
(95,420,l),
(95,140,ls),
(95,50,o),
(165,0,o),
(245,0,cs)
);
}
);
width = 390;
}
);
subCategory = Lowercase;
unicode = 116;
},
{
glyphname = tbar;
lastChange = "2026-01-08 23:02:18 +0000";
layers = (
{
hints = (
{
horizontal = 1;
origin = (0,3);
target = (0,2);
type = Stem;
},
{
origin = (0,3);
target = (0,0);
type = Stem;
}
);
layerId = "05246BF3-0764-4143-87C4-5D2B296D3790";
shapes = (
{
closed = 1;
nodes = (
(300,237,l),
(300,307,l),
(30,307,l),
(30,237,l)
);
},
{
pos = (1,0);
ref = t;
}
);
width = 351;
},
{
hints = (
{
horizontal = 1;
origin = (0,3);
target = (0,2);
type = Stem;
},
{
origin = (0,3);
target = (0,0);
type = Stem;
}
);
layerId = "B51EB05F-9FBB-4087-814F-400611B2D4B0";
shapes = (
{
closed = 1;
nodes = (
(360,217,l),
(360,327,l),
(20,327,l),
(20,217,l)
);
},
{
pos = (1,0);
ref = t;
}
);
width = 386;
}
);
subCategory = Lowercase;
unicode = 359;
},
{
glyphname = u;
kernLeft = u;
kernRight = g;
lastChange = "2026-01-08 23:02:18 +0000";
layers = (
{
anchors = (
{
name = bottom;
pos = (405,0);
},
{
name = ogonek;
pos = (475,10);
},
{
name = top;
pos = (270,520);
},
{
name = topright;
pos = (510,520);
}
);
hints = (
{
horizontal = 1;
origin = (0,11);
target = (0,20);
type = Stem;
},
{
horizontal = 1;
origin = (0,16);
target = down;
type = TopGhost;
},
{
horizontal = 1;
origin = (0,4);
target = up;
type = BottomGhost;
},
{
origin = (0,17);
target = (0,14);
type = Stem;
},
{
origin = (0,4);
target = (0,5);
type = Stem;
}
);
layerId = "05246BF3-0764-4143-87C4-5D2B296D3790";
shapes = (
{
closed = 1;
nodes = (
(320,-10,o),
(365,30,o),
(395,100,c),
(405,100,l),
(405,0,l),
(495,0,l),
(495,520,l),
(405,520,l),
(405,240,ls),
(405,130,o),
(340,70,o),
(270,70,cs),
(200,70,o),
(155,100,o),
(155,190,cs),
(155,520,l),
(65,520,l),
(65,190,ls),
(65,50,o),
(140,-10,o),
(240,-10,cs)
);
}
);
width = 570;
},
{
anchors = (
{
name = bottom;
pos = (380,0);
},
{
name = ogonek;
pos = (495,10);
},
{
name = top;
pos = (285,530);
},
{
name = topright;
pos = (530,520);
}
);
hints = (
{
horizontal = 1;
origin = (0,11);
target = (0,20);
type = Stem;
},
{
horizontal = 1;
origin = (0,16);
target = down;
type = TopGhost;
},
{
horizontal = 1;
origin = (0,11);
target = (0,4);
type = Stem;
},
{
origin = (0,17);
target = (0,14);
type = Stem;
},
{
origin = (0,4);
target = (0,5);
type = Stem;
}
);
layerId = "B51EB05F-9FBB-4087-814F-400611B2D4B0";
shapes = (
{
closed = 1;
nodes = (
(295,-10,o),
(340,20,o),
(370,80,c),
(380,80,l),
(380,0,l),
(530,0,l),
(530,530,l),
(380,530,l),
(380,250,ls),
(380,160,o),
(345,100,o),
(285,100,cs),
(225,100,o),
(200,130,o),
(200,200,cs),
(200,530,l),
(50,530,l),
(50,200,ls),
(50,60,o),
(125,-10,o),
(225,-10,cs)
);
}
);
width = 590;
}
);
subCategory = Lowercase;
unicode = 117;
},
{
glyphname = uogonek;
lastChange = "2026-01-08 23:02:18 +0000";
layers = (
{
anchors = (
{
name = bottom;
pos = (405,0);
},
{
name = ogonek;
pos = (475,10);
},
{
name = top;
pos = (270,520);
},
{
name = topright;
pos = (510,520);
}
);
hints = (
{
horizontal = 1;
origin = (0,9);
target = (0,18);
type = Stem;
},
{
horizontal = 1;
origin = (0,14);
target = down;
type = TopGhost;
},
{
horizontal = 1;
origin = (0,23);
target = up;
type = BottomGhost;
},
{
origin = (0,15);
target = (0,12);
type = Stem;
},
{
origin = (0,23);
target = (0,3);
type = Stem;
},
{
horizontal = 1;
place = (-195,71);
type = Stem;
},
{
place = (313,86);
type = Stem;
}
);
layerId = "05246BF3-0764-4143-87C4-5D2B296D3790";
shapes = (
{
closed = 1;
nodes = (
(479,-121,l),
(371,-143,o),
(385,-67,o),
(495,0,c),
(495,520,l),
(405,520,l),
(405,240,ls),
(405,130,o),
(340,70,o),
(270,70,cs),
(200,70,o),
(155,100,o),
(155,190,cs),
(155,520,l),
(65,520,l),
(65,190,ls),
(65,50,o),
(140,-10,o),
(240,-10,cs),
(320,-10,o),
(365,30,o),
(395,100,c),
(405,100,l),
(405,0,l),
(257,-80,o),
(311,-224,o),
(479,-191,c)
);
}
);
width = 570;
},
{
anchors = (
{
name = bottom;
pos = (380,0);
},
{
name = ogonek;
pos = (495,10);
},
{
name = top;
pos = (285,530);
},
{
name = topright;
pos = (530,520);
}
);
hints = (
{
horizontal = 1;
origin = (0,9);
target = (0,18);
type = Stem;
},
{
horizontal = 1;
origin = (0,14);
target = down;
type = TopGhost;
},
{
horizontal = 1;
origin = (0,9);
target = (0,23);
type = Stem;
},
{
origin = (0,15);
target = (0,12);
type = Stem;
},
{
origin = (0,23);
target = (0,3);
type = Stem;
},
{
horizontal = 1;
place = (-198,88);
type = Stem;
},
{
place = (297,146);
type = Stem;
}
);
layerId = "B51EB05F-9FBB-4087-814F-400611B2D4B0";
shapes = (
{
closed = 1;
nodes = (
(524,-105,l),
(416,-127,o),
(420,-67,o),
(530,0,c),
(530,530,l),
(380,530,l),
(380,250,ls),
(380,160,o),
(345,100,o),
(285,100,cs),
(225,100,o),
(200,130,o),
(200,200,cs),
(200,530,l),
(50,530,l),
(50,200,ls),
(50,60,o),
(125,-10,o),
(225,-10,cs),
(295,-10,o),
(340,20,o),
(370,80,c),
(380,80,l),
(380,0,l),
(221,-86,o),
(308,-233,o),
(524,-190,c)
);
}
);
width = 590;
}
);
subCategory = Lowercase;
unicode = 371;
},
{
glyphname = v;
kernLeft = v;
kernRight = v;
lastChange = "2026-01-08 23:02:18 +0000";
layers = (
{
anchors = (
{
name = bottom;
pos = (240,0);
},
{
name = top;
pos = (240,520);
}
);
hints = (
{
horizontal = 1;
origin = (0,7);
target = (0,4);
type = Stem;
},
{
horizontal = 1;
origin = (0,6);
target = down;
type = TopGhost;
}
);
layerId = "05246BF3-0764-4143-87C4-5D2B296D3790";
shapes = (
{
closed = 1;
nodes = (
(314,0,l),
(504,520,l),
(410,520,l),
(267,110,l),
(257,110,l),
(114,520,l),
(20,520,l),
(210,0,l)
);
}
);
width = 524;
},
{
anchors = (
{
name = bottom;
pos = (274,0);
},
{
name = top;
pos = (274,520);
}
);
hints = (
{
horizontal = 1;
origin = (0,7);
target = (0,4);
type = Stem;
},
{
horizontal = 1;
origin = (0,6);
target = down;
type = TopGhost;
}
);
layerId = "B51EB05F-9FBB-4087-814F-400611B2D4B0";
shapes = (
{
closed = 1;
nodes = (
(363,0,l),
(557,530,l),
(403,530,l),
(291,176,l),
(281,176,l),
(169,530,l),
(15,530,l),
(209,0,l)
);
}
);
width = 572;
}
);
subCategory = Lowercase;
unicode = 118;
},
{
glyphname = w;
kernLeft = v;
kernRight = v;
lastChange = "2026-01-08 23:02:18 +0000";
layers = (
{
anchors = (
{
name = bottom;
pos = (417,0);
},
{
name = top;
pos = (417,520);
}
);
hints = (
{
horizontal = 1;
origin = (0,15);
target = (0,12);
type = Stem;
},
{
horizontal = 1;
origin = (0,14);
target = (0,1);
type = Stem;
}
);
layerId = "05246BF3-0764-4143-87C4-5D2B296D3790";
shapes = (
{
closed = 1;
nodes = (
(299,0,l),
(412,397,l),
(422,397,l),
(535,0,l),
(639,0,l),
(799,520,l),
(705,520,l),
(592,110,l),
(582,110,l),
(469,520,l),
(365,520,l),
(252,110,l),
(242,110,l),
(129,520,l),
(35,520,l),
(195,0,l)
);
}
);
width = 834;
},
{
anchors = (
{
name = bottom;
pos = (416,0);
},
{
name = top;
pos = (416,530);
}
);
hints = (
{
horizontal = 1;
origin = (0,15);
target = (0,12);
type = Stem;
},
{
horizontal = 1;
origin = (0,14);
target = down;
type = TopGhost;
},
{
horizontal = 1;
origin = (0,15);
target = up;
type = BottomGhost;
},
{
horizontal = 1;
origin = (0,14);
target = (0,1);
type = Stem;
}
);
layerId = "B51EB05F-9FBB-4087-814F-400611B2D4B0";
shapes = (
{
closed = 1;
nodes = (
(328,0,l),
(411,340,l),
(421,340,l),
(504,0,l),
(654,0,l),
(817,530,l),
(667,530,l),
(584,180,l),
(574,180,l),
(491,530,l),
(341,530,l),
(258,180,l),
(248,180,l),
(165,530,l),
(15,530,l),
(178,0,l)
);
}
);
width = 832;
}
);
subCategory = Lowercase;
unicode = 119;
},
{
glyphname = x;
kernLeft = x;
kernRight = x;
lastChange = "2026-01-08 23:02:18 +0000";
layers = (
{
anchors = (
{
name = bottom;
pos = (264,0);
},
{
name = top;
pos = (264,520);
}
);
hints = (
{
horizontal = 1;
origin = (0,13);
target = up;
type = BottomGhost;
},
{
horizontal = 1;
origin = (0,11);
target = down;
type = TopGhost;
}
);
layerId = "05246BF3-0764-4143-87C4-5D2B296D3790";
shapes = (
{
closed = 1;
nodes = (
(125,0,l),
(263,205,l),
(267,205,l),
(405,0,l),
(505,0,l),
(318,283,l),
(475,520,l),
(375,520,l),
(267,360,l),
(263,360,l),
(155,520,l),
(55,520,l),
(212,283,l),
(25,0,l)
);
}
);
width = 530;
},
{
anchors = (
{
name = bottom;
pos = (274,0);
},
{
name = top;
pos = (274,520);
}
);
hints = (
{
horizontal = 1;
origin = (0,13);
target = up;
type = BottomGhost;
},
{
horizontal = 1;
origin = (0,11);
target = down;
type = TopGhost;
}
);
layerId = "B51EB05F-9FBB-4087-814F-400611B2D4B0";
shapes = (
{
closed = 1;
nodes = (
(170,0,l),
(270,155,l),
(280,155,l),
(380,0,l),
(540,0,l),
(360,278,l),
(523,530,l),
(363,530,l),
(280,401,l),
(270,401,l),
(187,530,l),
(27,530,l),
(190,278,l),
(10,0,l)
);
}
);
width = 550;
}
);
subCategory = Lowercase;
unicode = 120;
},
{
glyphname = y;
kernLeft = y;
kernRight = y;
lastChange = "2026-01-08 23:02:18 +0000";
layers = (
{
anchors = (
{
name = bottom;
pos = (269,0);
},
{
name = top;
pos = (270,520);
}
);
hints = (
{
horizontal = 1;
origin = (0,16);
target = (0,17);
type = Stem;
},
{
horizontal = 1;
origin = (0,10);
target = down;
type = TopGhost;
}
);
layerId = "05246BF3-0764-4143-87C4-5D2B296D3790";
shapes = (
{
closed = 1;
nodes = (
(168,-220,ls),
(207,-220,o),
(251,-195,o),
(266,-152,cs),
(320,0,l),
(520,520,l),
(425,520,l),
(272,110,l),
(268,110,l),
(115,520,l),
(20,520,l),
(220,0,l),
(181,-114,ls),
(174,-132,o),
(155,-140,o),
(139,-140,cs),
(73,-140,l),
(73,-220,l)
);
}
);
width = 540;
},
{
anchors = (
{
name = bottom;
pos = (263,0);
},
{
name = top;
pos = (294,530);
}
);
hints = (
{
horizontal = 1;
origin = (0,16);
target = (0,17);
type = Stem;
},
{
horizontal = 1;
origin = (0,10);
target = down;
type = TopGhost;
}
);
layerId = "B51EB05F-9FBB-4087-814F-400611B2D4B0";
shapes = (
{
closed = 1;
nodes = (
(228,-220,ls),
(267,-220,o),
(310,-195,o),
(326,-152,c),
(374,0,l),
(578,530,l),
(423,530,l),
(299,178,l),
(289,178,l),
(165,530,l),
(10,530,l),
(214,0,l),
(189,-84,l),
(180,-106,o),
(165,-110,o),
(139,-110,cs),
(83,-110,l),
(83,-220,l)
);
}
);
width = 588;
}
);
subCategory = Lowercase;
unicode = 121;
},
{
glyphname = z;
kernLeft = z;
kernRight = z;
lastChange = "2026-01-08 23:02:18 +0000";
layers = (
{
anchors = (
{
name = bottom;
pos = (232,0);
},
{
name = center;
pos = (230,260);
},
{
name = top;
pos = (232,520);
}
);
hints = (
{
horizontal = 1;
origin = (0,9);
target = (0,8);
type = Stem;
},
{
horizontal = 1;
origin = (0,5);
target = (0,6);
type = Stem;
}
);
layerId = "05246BF3-0764-4143-87C4-5D2B296D3790";
shapes = (
{
closed = 1;
nodes = (
(420,0,l),
(420,80,l),
(145,80,l),
(420,440,l),
(420,520,l),
(45,520,l),
(45,440,l),
(315,440,l),
(40,80,l),
(40,0,l)
);
}
);
width = 460;
},
{
anchors = (
{
name = bottom;
pos = (252,0);
},
{
name = center;
pos = (250,260);
},
{
name = top;
pos = (252,530);
}
);
hints = (
{
horizontal = 1;
origin = (0,9);
target = (0,8);
type = Stem;
},
{
horizontal = 1;
origin = (0,5);
target = (0,6);
type = Stem;
},
{
origin = (0,9);
target = (0,0);
type = Stem;
}
);
layerId = "B51EB05F-9FBB-4087-814F-400611B2D4B0";
shapes = (
{
closed = 1;
nodes = (
(470,0,l),
(470,110,l),
(215,110,l),
(470,420,l),
(470,530,l),
(35,530,l),
(35,420,l),
(285,420,l),
(30,110,l),
(30,0,l)
);
}
);
width = 500;
}
);
subCategory = Lowercase;
unicode = 122;
},
{
glyphname = iogonek.dotless;
lastChange = "2026-01-08 23:02:18 +0000";
layers = (
{
anchors = (
{
name = top;
pos = (131,520);
}
);
hints = (
{
horizontal = 1;
origin = (0,6);
target = up;
type = BottomGhost;
},
{
horizontal = 1;
origin = (0,5);
target = down;
type = TopGhost;
},
{
origin = (0,6);
target = (0,3);
type = Stem;
},
{
horizontal = 1;
place = (-195,71);
type = Stem;
},
{
place = (0,86);
type = Stem;
},
{
horizontal = 1;
place = (730,100);
type = Stem;
},
{
origin = (0,5);
target = (0,4);
type = Stem;
}
);
layerId = "05246BF3-0764-4143-87C4-5D2B296D3790";
shapes = (
{
closed = 1;
nodes = (
(160,-121,l),
(52,-143,o),
(66,-67,o),
(176,0,c),
(176,520,l),
(86,520,l),
(86,0,l),
(-62,-80,o),
(-8,-224,o),
(160,-191,c)
);
}
);
width = 246;
},
{
anchors = (
{
name = top;
pos = (132,530);
}
);
hints = (
{
horizontal = 1;
origin = (0,6);
target = up;
type = BottomGhost;
},
{
horizontal = 1;
origin = (0,5);
target = down;
type = TopGhost;
},
{
origin = (0,6);
target = (0,3);
type = Stem;
},
{
horizontal = 1;
origin = (0,4);
place = (530,170);
type = Stem;
},
{
origin = (0,5);
target = (0,4);
type = Stem;
},
{
horizontal = 1;
place = (-198,88);
type = Stem;
},
{
place = (-25,146);
type = Stem;
}
);
layerId = "B51EB05F-9FBB-4087-814F-400611B2D4B0";
shapes = (
{
closed = 1;
nodes = (
(201,-105,l),
(93,-127,o),
(97,-67,o),
(207,0,c),
(207,530,l),
(57,530,l),
(57,0,l),
(-102,-86,o),
(-15,-233,o),
(201,-190,c)
);
}
);
width = 267;
}
);
subCategory = Lowercase;
},
{
glyphname = f_f_i;
lastChange = "2026-01-08 23:02:18 +0000";
layers = (
{
anchors = (
{
name = caret_1;
pos = (345,0);
},
{
name = caret_2;
pos = (640,0);
}
);
layerId = "05246BF3-0764-4143-87C4-5D2B296D3790";
shapes = (
{
closed = 1;
nodes = (
(195,0,l),
(195,440,l),
(395,440,l),
(395,0,l),
(485,0,l),
(485,440,l),
(690,440,l),
(690,0,l),
(780,0,l),
(780,520,l),
(485,520,l),
(485,600,ls),
(485,630,o),
(505,640,o),
(525,640,cs),
(610,640,l),
(610,720,l),
(495,720,ls),
(445,720,o),
(395,680,o),
(395,610,cs),
(395,520,l),
(195,520,l),
(195,600,ls),
(195,630,o),
(215,640,o),
(235,640,cs),
(320,640,l),
(320,720,l),
(205,720,ls),
(155,720,o),
(105,680,o),
(105,610,cs),
(105,520,l),
(30,520,l),
(30,440,l),
(105,440,l),
(105,0,l)
);
},
{
closed = 1;
nodes = (
(766,620,o),
(790,644,o),
(790,675,cs),
(790,706,o),
(766,730,o),
(735,730,cs),
(704,730,o),
(680,706,o),
(680,675,cs),
(680,644,o),
(704,620,o),
(735,620,cs)
);
}
);
width = 855;
},
{
anchors = (
{
name = caret_1;
pos = (410,0);
},
{
name = caret_2;
pos = (760,0);
}
);
layerId = "B51EB05F-9FBB-4087-814F-400611B2D4B0";
shapes = (
{
closed = 1;
nodes = (
(250,0,l),
(250,420,l),
(460,420,l),
(460,0,l),
(610,0,l),
(610,420,l),
(810,420,l),
(810,0,l),
(960,0,l),
(960,530,l),
(610,530,l),
(610,570,ls),
(610,600,o),
(620,610,o),
(650,610,cs),
(740,610,l),
(740,720,l),
(610,720,ls),
(530,720,o),
(460,670,o),
(460,580,cs),
(460,530,l),
(250,530,l),
(250,570,ls),
(250,600,o),
(260,610,o),
(290,610,cs),
(380,610,l),
(380,720,l),
(250,720,ls),
(170,720,o),
(100,670,o),
(100,580,cs),
(100,530,l),
(20,530,l),
(20,420,l),
(100,420,l),
(100,0,l)
);
},
{
closed = 1;
nodes = (
(933,580,o),
(970,617,o),
(970,665,cs),
(970,713,o),
(933,750,o),
(885,750,cs),
(837,750,o),
(800,713,o),
(800,665,cs),
(800,617,o),
(837,580,o),
(885,580,cs)
);
}
);
width = 1025;
}
);
subCategory = Ligature;
},
{
glyphname = f_f_l;
lastChange = "2026-01-08 23:02:18 +0000";
layers = (
{
anchors = (
{
name = caret_1;
pos = (345,0);
},
{
name = caret_2;
pos = (670,0);
}
);
layerId = "05246BF3-0764-4143-87C4-5D2B296D3790";
shapes = (
{
closed = 1;
nodes = (
(195,0,l),
(195,440,l),
(395,440,l),
(395,0,l),
(485,0,l),
(485,440,l),
(610,440,l),
(610,520,l),
(485,520,l),
(485,600,ls),
(485,630,o),
(505,640,o),
(525,640,cs),
(700,640,l),
(700,110,ls),
(700,40,o),
(750,0,o),
(800,0,cs),
(865,0,l),
(865,80,l),
(830,80,ls),
(810,80,o),
(790,90,o),
(790,120,cs),
(790,720,l),
(495,720,ls),
(445,720,o),
(395,680,o),
(395,610,cs),
(395,520,l),
(195,520,l),
(195,600,ls),
(195,630,o),
(215,640,o),
(235,640,cs),
(320,640,l),
(320,720,l),
(205,720,ls),
(155,720,o),
(105,680,o),
(105,610,cs),
(105,520,l),
(30,520,l),
(30,440,l),
(105,440,l),
(105,0,l)
);
}
);
width = 895;
},
{
anchors = (
{
name = caret_1;
pos = (410,0);
},
{
name = caret_2;
pos = (780,0);
}
);
layerId = "B51EB05F-9FBB-4087-814F-400611B2D4B0";
shapes = (
{
closed = 1;
nodes = (
(250,0,l),
(250,420,l),
(460,420,l),
(460,0,l),
(610,0,l),
(610,420,l),
(740,420,l),
(740,530,l),
(610,530,l),
(610,570,ls),
(610,600,o),
(620,610,o),
(650,610,cs),
(810,610,l),
(810,140,ls),
(810,50,o),
(880,0,o),
(960,0,cs),
(1055,0,l),
(1055,110,l),
(1000,110,ls),
(980,110,o),
(960,120,o),
(960,150,cs),
(960,720,l),
(610,720,ls),
(530,720,o),
(460,670,o),
(460,580,cs),
(460,530,l),
(250,530,l),
(250,570,ls),
(250,600,o),
(260,610,o),
(290,610,cs),
(380,610,l),
(380,720,l),
(250,720,ls),
(170,720,o),
(100,670,o),
(100,580,cs),
(100,530,l),
(20,530,l),
(20,420,l),
(100,420,l),
(100,0,l)
);
}
);
width = 1075;
}
);
subCategory = Ligature;
},
{
glyphname = fi;
kernLeft = f;
kernRight = i;
lastChange = "2026-01-08 23:02:18 +0000";
layers = (
{
anchors = (
{
name = bottom;
pos = (168,0);
},
{
name = caret_1;
pos = (350,0);
},
{
name = top;
pos = (168,780);
}
);
hints = (
{
horizontal = 1;
origin = (0,21);
target = up;
type = BottomGhost;
},
{
horizontal = 1;
origin = (0,18);
target = (0,19);
type = Stem;
},
{
horizontal = 1;
origin = (1,5);
target = (1,11);
type = Stem;
},
{
horizontal = 1;
origin = (0,13);
target = (0,10);
type = Stem;
},
{
origin = (0,21);
target = (0,0);
type = Stem;
},
{
origin = (1,8);
target = (1,2);
type = Stem;
},
{
origin = (0,3);
target = (0,4);
type = Stem;
}
);
layerId = "05246BF3-0764-4143-87C4-5D2B296D3790";
shapes = (
{
closed = 1;
nodes = (
(195,0,l),
(195,440,l),
(400,440,l),
(400,0,l),
(490,0,l),
(490,520,l),
(195,520,l),
(195,600,ls),
(195,630,o),
(215,640,o),
(235,640,cs),
(320,640,l),
(320,720,l),
(205,720,ls),
(155,720,o),
(105,680,o),
(105,610,cs),
(105,520,l),
(30,520,l),
(30,440,l),
(105,440,l),
(105,0,l)
);
},
{
closed = 1;
nodes = (
(476,620,o),
(500,644,o),
(500,675,cs),
(500,706,o),
(476,730,o),
(445,730,cs),
(414,730,o),
(390,706,o),
(390,675,cs),
(390,644,o),
(414,620,o),
(445,620,cs)
);
}
);
width = 565;
},
{
anchors = (
{
name = bottom;
pos = (175,0);
},
{
name = caret_1;
pos = (400,0);
},
{
name = top;
pos = (175,780);
}
);
hints = (
{
horizontal = 1;
origin = (0,21);
target = up;
type = BottomGhost;
},
{
horizontal = 1;
origin = (0,18);
target = (0,19);
type = Stem;
},
{
horizontal = 1;
origin = (1,5);
target = (0,16);
type = Stem;
},
{
horizontal = 1;
origin = (0,13);
target = (0,10);
type = Stem;
},
{
origin = (0,21);
target = (0,0);
type = Stem;
},
{
origin = (1,8);
target = (1,2);
type = Stem;
},
{
origin = (0,3);
target = (0,4);
type = Stem;
}
);
layerId = "B51EB05F-9FBB-4087-814F-400611B2D4B0";
shapes = (
{
closed = 1;
nodes = (
(250,0,l),
(250,420,l),
(450,420,l),
(450,0,l),
(600,0,l),
(600,530,l),
(250,530,l),
(250,570,ls),
(250,600,o),
(260,610,o),
(290,610,cs),
(380,610,l),
(380,720,l),
(250,720,ls),
(170,720,o),
(100,670,o),
(100,580,cs),
(100,530,l),
(20,530,l),
(20,420,l),
(100,420,l),
(100,0,l)
);
},
{
closed = 1;
nodes = (
(573,580,o),
(610,617,o),
(610,665,cs),
(610,713,o),
(573,750,o),
(525,750,cs),
(477,750,o),
(440,713,o),
(440,665,cs),
(440,617,o),
(477,580,o),
(525,580,cs)
);
}
);
width = 665;
}
);
subCategory = Ligature;
unicode = 64257;
},
{
glyphname = fl;
kernLeft = f;
kernRight = l;
lastChange = "2026-01-08 23:02:18 +0000";
layers = (
{
anchors = (
{
name = caret_1;
pos = (380,0);
}
);
hints = (
{
horizontal = 1;
origin = (0,29);
target = (0,16);
type = Stem;
},
{
horizontal = 1;
origin = (0,26);
target = (0,27);
type = Stem;
},
{
horizontal = 1;
origin = (0,21);
target = (0,8);
type = Stem;
},
{
origin = (0,29);
target = (0,0);
type = Stem;
},
{
origin = (0,10);
target = (0,19);
type = Stem;
}
);
layerId = "05246BF3-0764-4143-87C4-5D2B296D3790";
shapes = (
{
closed = 1;
nodes = (
(195,0,l),
(195,440,l),
(320,440,l),
(320,520,l),
(195,520,l),
(195,600,ls),
(195,630,o),
(215,640,o),
(235,640,cs),
(410,640,l),
(410,110,ls),
(410,40,o),
(460,0,o),
(510,0,cs),
(575,0,l),
(575,80,l),
(540,80,ls),
(520,80,o),
(500,90,o),
(500,120,cs),
(500,720,l),
(205,720,ls),
(155,720,o),
(105,680,o),
(105,610,cs),
(105,520,l),
(30,520,l),
(30,440,l),
(105,440,l),
(105,0,l)
);
}
);
width = 605;
},
{
anchors = (
{
name = caret_1;
pos = (430,0);
}
);
hints = (
{
horizontal = 1;
origin = (0,29);
target = (0,16);
type = Stem;
},
{
horizontal = 1;
origin = (0,26);
target = (0,27);
type = Stem;
},
{
horizontal = 1;
origin = (0,21);
target = (0,8);
type = Stem;
},
{
origin = (0,29);
target = (0,0);
type = Stem;
},
{
origin = (0,10);
target = (0,13);
type = Stem;
}
);
layerId = "B51EB05F-9FBB-4087-814F-400611B2D4B0";
shapes = (
{
closed = 1;
nodes = (
(260,0,l),
(260,420,l),
(390,420,l),
(390,530,l),
(260,530,l),
(260,570,ls),
(260,600,o),
(270,610,o),
(300,610,cs),
(460,610,l),
(460,140,ls),
(460,50,o),
(530,0,o),
(610,0,cs),
(705,0,l),
(705,110,l),
(650,110,ls),
(630,110,o),
(610,120,o),
(610,150,cs),
(610,720,l),
(260,720,ls),
(180,720,o),
(110,670,o),
(110,580,cs),
(110,530,l),
(30,530,l),
(30,420,l),
(110,420,l),
(110,0,l)
);
}
);
width = 725;
}
);
subCategory = Ligature;
unicode = 64258;
},
{
glyphname = Delta;
kernLeft = Delta;
kernRight = Delta;
lastChange = "2026-01-08 23:02:18 +0000";
layers = (
{
hints = (
{
horizontal = 1;
origin = (0,5);
target = (0,4);
type = Stem;
},
{
horizontal = 1;
origin = (0,3);
target = down;
type = TopGhost;
},
{
horizontal = 1;
origin = (0,3);
target = (1,0);
type = Stem;
}
);
layerId = "05246BF3-0764-4143-87C4-5D2B296D3790";
shapes = (
{
closed = 1;
nodes = (
(594,0,l),
(594,90,l),
(359,720,l),
(265,720,l),
(30,90,l),
(30,0,l)
);
},
{
closed = 1;
nodes = (
(310,610,l),
(314,610,l),
(500,90,l),
(124,90,l)
);
}
);
width = 624;
},
{
hints = (
{
horizontal = 1;
origin = (0,5);
target = (0,4);
type = Stem;
},
{
horizontal = 1;
origin = (0,3);
target = (1,0);
type = Stem;
},
{
origin = (0,5);
target = (1,3);
type = Stem;
},
{
origin = (1,2);
target = (0,0);
type = Stem;
}
);
layerId = "B51EB05F-9FBB-4087-814F-400611B2D4B0";
shapes = (
{
closed = 1;
nodes = (
(644,0,l),
(644,130,l),
(409,720,l),
(255,720,l),
(20,130,l),
(20,0,l)
);
},
{
closed = 1;
nodes = (
(327,557,l),
(337,557,l),
(494,130,l),
(170,130,l)
);
}
);
width = 664;
}
);
subCategory = Uppercase;
unicode = 916;
},
{
glyphname = Omega;
kernLeft = Omega;
kernRight = Omega;
lastChange = "2026-01-08 23:02:18 +0000";
layers = (
{
hints = (
{
horizontal = 1;
origin = (0,33);
target = (0,32);
type = Stem;
},
{
horizontal = 1;
origin = (0,24);
target = (0,7);
type = Stem;
},
{
origin = (0,33);
target = (0,4);
type = Stem;
},
{
origin = (0,10);
target = (0,15);
type = Stem;
}
);
layerId = "05246BF3-0764-4143-87C4-5D2B296D3790";
shapes = (
{
closed = 1;
nodes = (
(300,0,l),
(300,100,l),
(240,150,o),
(140,250,o),
(140,400,cs),
(140,550,o),
(220,650,o),
(370,650,cs),
(520,650,o),
(600,550,o),
(600,400,cs),
(600,250,o),
(500,150,o),
(440,100,c),
(440,0,l),
(690,0,l),
(690,80,l),
(520,80,l),
(520,90,l),
(580,140,o),
(690,220,o),
(690,400,cs),
(690,580,o),
(570,730,o),
(370,730,cs),
(170,730,o),
(50,580,o),
(50,400,cs),
(50,220,o),
(160,140,o),
(220,90,c),
(220,80,l),
(50,80,l),
(50,0,l)
);
}
);
width = 740;
},
{
hints = (
{
horizontal = 1;
origin = (0,33);
target = (0,32);
type = Stem;
},
{
horizontal = 1;
origin = (0,24);
target = (0,7);
type = Stem;
},
{
origin = (0,33);
target = (0,4);
type = Stem;
},
{
origin = (0,30);
target = (0,0);
type = Stem;
},
{
origin = (0,14);
target = (0,18);
type = Stem;
},
{
origin = (0,10);
target = (0,15);
type = Stem;
}
);
layerId = "B51EB05F-9FBB-4087-814F-400611B2D4B0";
shapes = (
{
closed = 1;
nodes = (
(320,0,l),
(320,130,l),
(260,180,o),
(190,260,o),
(190,400,cs),
(190,540,o),
(250,620,o),
(380,620,cs),
(510,620,o),
(570,540,o),
(570,400,cs),
(570,260,o),
(500,180,o),
(440,130,c),
(440,0,l),
(720,0,l),
(720,110,l),
(520,110,l),
(520,120,l),
(580,160,o),
(720,220,o),
(720,400,cs),
(720,590,o),
(590,730,o),
(380,730,cs),
(170,730,o),
(40,590,o),
(40,400,cs),
(40,220,o),
(180,160,o),
(240,120,c),
(240,110,l),
(40,110,l),
(40,0,l)
);
}
);
width = 760;
}
);
subCategory = Uppercase;
unicode = 937;
},
{
glyphname = mu;
kernLeft = mu;
lastChange = "2026-01-08 23:02:18 +0000";
layers = (
{
hints = (
{
horizontal = 1;
origin = (0,12);
target = (0,15);
type = Stem;
},
{
horizontal = 1;
origin = (0,29);
target = down;
type = TopGhost;
},
{
horizontal = 1;
origin = (0,4);
target = (0,24);
type = Stem;
},
{
origin = (0,30);
target = (0,0);
type = Stem;
},
{
origin = (0,9);
target = (0,18);
type = Stem;
}
);
layerId = "05246BF3-0764-4143-87C4-5D2B296D3790";
shapes = (
{
closed = 1;
nodes = (
(165,-160,l),
(165,34,l),
(184,8,o),
(213,-10,o),
(250,-10,cs),
(330,-10,o),
(375,30,o),
(405,100,c),
(415,100,l),
(415,90,ls),
(415,20,o),
(465,0,o),
(515,0,cs),
(551,0,l),
(551,80,l),
(535,80,ls),
(515,80,o),
(505,90,o),
(505,120,cs),
(505,520,l),
(415,520,l),
(415,240,ls),
(415,130,o),
(350,70,o),
(280,70,cs),
(210,70,o),
(165,100,o),
(165,190,cs),
(165,520,l),
(75,520,l),
(75,-160,l)
);
}
);
width = 571;
},
{
hints = (
{
horizontal = 1;
origin = (0,12);
target = (0,15);
type = Stem;
},
{
horizontal = 1;
origin = (0,29);
target = down;
type = TopGhost;
},
{
horizontal = 1;
origin = (0,4);
target = (0,24);
type = Stem;
},
{
origin = (0,30);
target = (0,0);
type = Stem;
},
{
origin = (0,9);
target = (0,18);
type = Stem;
}
);
layerId = "B51EB05F-9FBB-4087-814F-400611B2D4B0";
shapes = (
{
closed = 1;
nodes = (
(210,-160,l),
(210,15,l),
(229,-2,o),
(250,-10,o),
(275,-10,cs),
(345,-10,o),
(370,20,o),
(400,80,c),
(410,80,l),
(410,70,ls),
(410,30,o),
(450,0,o),
(500,0,cs),
(606,0,l),
(606,110,l),
(590,110,ls),
(570,110,o),
(560,120,o),
(560,150,cs),
(560,530,l),
(410,530,l),
(410,250,ls),
(410,160,o),
(365,100,o),
(305,100,cs),
(245,100,o),
(210,130,o),
(210,200,cs),
(210,530,l),
(60,530,l),
(60,-160,l)
);
}
);
width = 626;
}
);
subCategory = Lowercase;
unicode = 956;
},
{
glyphname = pi;
kernLeft = pi;
kernRight = pi;
lastChange = "2026-01-08 23:02:18 +0000";
layers = (
{
hints = (
{
horizontal = 1;
origin = (0,19);
target = (0,9);
type = Stem;
},
{
horizontal = 1;
origin = (0,16);
target = (0,17);
type = Stem;
},
{
origin = (0,19);
target = (0,0);
type = Stem;
},
{
origin = (0,3);
target = (0,12);
type = Stem;
}
);
layerId = "05246BF3-0764-4143-87C4-5D2B296D3790";
shapes = (
{
closed = 1;
nodes = (
(210,0,l),
(210,440,l),
(390,440,l),
(390,110,ls),
(390,40,o),
(440,0,o),
(490,0,cs),
(560,0,l),
(560,80,l),
(520,80,ls),
(500,80,o),
(480,90,o),
(480,120,cs),
(480,440,l),
(580,440,l),
(580,520,l),
(20,520,l),
(20,440,l),
(120,440,l),
(120,0,l)
);
}
);
width = 600;
},
{
hints = (
{
horizontal = 1;
origin = (0,19);
target = (0,3);
type = Stem;
},
{
horizontal = 1;
origin = (0,16);
target = (0,17);
type = Stem;
},
{
origin = (0,19);
target = (0,0);
type = Stem;
},
{
origin = (0,3);
target = (0,12);
type = Stem;
}
);
layerId = "B51EB05F-9FBB-4087-814F-400611B2D4B0";
shapes = (
{
closed = 1;
nodes = (
(265,0,l),
(265,420,l),
(385,420,l),
(385,110,ls),
(385,40,o),
(435,0,o),
(485,0,cs),
(615,0,l),
(615,110,l),
(575,110,ls),
(555,110,o),
(535,120,o),
(535,150,cs),
(535,420,l),
(635,420,l),
(635,530,l),
(15,530,l),
(15,420,l),
(115,420,l),
(115,0,l)
);
}
);
width = 650;
}
);
subCategory = Lowercase;
unicode = 960;
},
{
glyphname = zero;
kernLeft = C;
kernRight = "0";
lastChange = "2026-01-08 23:02:18 +0000";
layers = (
{
hints = (
{
horizontal = 1;
origin = (1,11);
target = (0,11);
type = Stem;
},
{
horizontal = 1;
origin = (0,5);
target = (1,5);
type = Stem;
},
{
origin = (0,8);
target = (1,2);
type = Stem;
},
{
origin = (1,8);
target = (0,2);
type = Stem;
}
);
layerId = "05246BF3-0764-4143-87C4-5D2B296D3790";
shapes = (
{
closed = 1;
nodes = (
(535,-10,o),
(610,160,o),
(610,360,cs),
(610,560,o),
(535,730,o),
(335,730,cs),
(135,730,o),
(60,560,o),
(60,360,cs),
(60,170,o),
(135,-10,o),
(335,-10,cs)
);
},
{
closed = 1;
nodes = (
(185,70,o),
(150,210,o),
(150,360,cs),
(150,520,o),
(185,650,o),
(335,650,cs),
(485,650,o),
(520,520,o),
(520,360,cs),
(520,200,o),
(485,70,o),
(335,70,cs)
);
}
);
width = 670;
},
{
hints = (
{
horizontal = 1;
origin = (0,11);
target = (1,11);
type = Stem;
},
{
horizontal = 1;
origin = (0,5);
target = (1,5);
type = Stem;
},
{
origin = (0,8);
target = (1,2);
type = Stem;
},
{
origin = (1,8);
target = (0,2);
type = Stem;
}
);
layerId = "B51EB05F-9FBB-4087-814F-400611B2D4B0";
shapes = (
{
closed = 1;
nodes = (
(555,-10,o),
(640,150,o),
(640,360,cs),
(640,570,o),
(555,730,o),
(345,730,cs),
(135,730,o),
(50,570,o),
(50,360,cs),
(50,160,o),
(135,-10,o),
(345,-10,cs)
);
},
{
closed = 1;
nodes = (
(215,100,o),
(200,230,o),
(200,360,cs),
(200,500,o),
(215,620,o),
(345,620,cs),
(475,620,o),
(490,500,o),
(490,360,cs),
(490,220,o),
(475,100,o),
(345,100,cs)
);
}
);
width = 690;
}
);
unicode = 48;
},
{
glyphname = one;
kernLeft = "1";
kernRight = "1";
lastChange = "2026-01-08 23:02:18 +0000";
layers = (
{
hints = (
{
horizontal = 1;
origin = (0,6);
target = up;
type = BottomGhost;
},
{
horizontal = 1;
origin = (0,2);
target = (0,5);
type = Stem;
},
{
origin = (0,6);
target = (0,0);
type = Stem;
}
);
layerId = "05246BF3-0764-4143-87C4-5D2B296D3790";
shapes = (
{
closed = 1;
nodes = (
(295,0,l),
(295,720,l),
(205,720,l),
(30,620,l),
(30,530,l),
(205,630,l),
(205,0,l)
);
}
);
width = 385;
},
{
hints = (
{
horizontal = 1;
origin = (0,6);
target = up;
type = BottomGhost;
},
{
horizontal = 1;
origin = (0,2);
target = (0,5);
type = Stem;
},
{
origin = (0,6);
target = (0,0);
type = Stem;
}
);
layerId = "B51EB05F-9FBB-4087-814F-400611B2D4B0";
shapes = (
{
closed = 1;
nodes = (
(345,0,l),
(345,720,l),
(195,720,l),
(20,620,l),
(20,500,l),
(195,600,l),
(195,0,l)
);
}
);
width = 425;
}
);
unicode = 49;
},
{
glyphname = two;
kernLeft = "2";
kernRight = "2";
lastChange = "2026-01-08 23:02:18 +0000";
layers = (
{
hints = (
{
horizontal = 1;
origin = (0,23);
target = (0,24);
type = Stem;
},
{
horizontal = 1;
origin = (0,9);
target = (0,16);
type = Stem;
},
{
origin = (0,12);
target = (0,13);
type = Stem;
},
{
origin = (0,19);
target = (0,6);
type = Stem;
}
);
layerId = "05246BF3-0764-4143-87C4-5D2B296D3790";
shapes = (
{
closed = 1;
nodes = (
(525,0,l),
(525,80,l),
(185,80,l),
(395,300,ls),
(475,380,o),
(535,450,o),
(535,530,cs),
(535,640,o),
(433,730,o),
(293,730,cs),
(163,730,o),
(65,640,o),
(65,520,c),
(155,520,l),
(155,590,o),
(203,650,o),
(293,650,cs),
(383,650,o),
(445,600,o),
(445,530,cs),
(445,470,o),
(408,427,o),
(338,357,cs),
(75,80,l),
(75,0,l)
);
}
);
width = 600;
},
{
hints = (
{
horizontal = 1;
origin = (0,24);
target = (0,23);
type = Stem;
},
{
horizontal = 1;
origin = (0,9);
target = (0,16);
type = Stem;
},
{
origin = (0,12);
target = (0,13);
type = Stem;
},
{
origin = (0,19);
target = (0,0);
type = Stem;
}
);
layerId = "B51EB05F-9FBB-4087-814F-400611B2D4B0";
shapes = (
{
closed = 1;
nodes = (
(575,0,l),
(575,110,l),
(260,110,l),
(475,335,ls),
(543,407,o),
(575,460,o),
(575,530,cs),
(575,650,o),
(453,730,o),
(313,730,cs),
(173,730,o),
(55,640,o),
(55,510,c),
(205,510,l),
(205,560,o),
(243,620,o),
(313,620,cs),
(383,620,o),
(425,580,o),
(425,530,cs),
(425,490,o),
(414,449,o),
(345,380,cs),
(65,100,l),
(65,0,l)
);
}
);
width = 630;
}
);
unicode = 50;
},
{
glyphname = three;
kernLeft = "3";
kernRight = "3";
lastChange = "2026-01-08 23:02:18 +0000";
layers = (
{
hints = (
{
horizontal = 1;
origin = (0,34);
target = (0,41);
type = Stem;
},
{
horizontal = 1;
origin = (0,26);
target = (0,27);
type = Stem;
},
{
horizontal = 1;
origin = (0,12);
target = (0,19);
type = Stem;
},
{
origin = (0,38);
target = (0,37);
type = Stem;
},
{
origin = (0,27);
target = (0,5);
type = Stem;
},
{
origin = (0,31);
target = (0,2);
type = Stem;
},
{
origin = (0,15);
target = (0,16);
type = Stem;
},
{
origin = (0,22);
target = (0,9);
type = Stem;
}
);
layerId = "05246BF3-0764-4143-87C4-5D2B296D3790";
shapes = (
{
closed = 1;
nodes = (
(465,-10,o),
(570,75,o),
(570,205,cs),
(570,291,o),
(521,353,o),
(435,380,c),
(435,391,l),
(504,415,o),
(545,466,o),
(545,540,cs),
(545,660,o),
(445,730,o),
(315,730,cs),
(185,730,o),
(85,655,o),
(85,535,c),
(175,535,l),
(175,605,o),
(225,650,o),
(315,650,cs),
(405,650,o),
(455,610,o),
(455,540,cs),
(455,470,o),
(405,425,o),
(315,425,cs),
(245,425,l),
(245,345,l),
(315,345,ls),
(425,345,o),
(480,285,o),
(480,205,cs),
(480,125,o),
(425,70,o),
(315,70,cs),
(205,70,o),
(150,125,o),
(150,205,c),
(60,205,l),
(60,75,o),
(165,-10,o),
(315,-10,cs)
);
}
);
width = 630;
},
{
hints = (
{
horizontal = 1;
origin = (0,41);
target = (0,34);
type = Stem;
},
{
horizontal = 1;
origin = (0,27);
target = (0,26);
type = Stem;
},
{
horizontal = 1;
origin = (0,12);
target = (0,19);
type = Stem;
},
{
origin = (0,38);
target = (0,37);
type = Stem;
},
{
origin = (0,31);
target = (0,2);
type = Stem;
},
{
origin = (0,15);
target = (0,16);
type = Stem;
},
{
origin = (0,22);
target = (0,9);
type = Stem;
}
);
layerId = "B51EB05F-9FBB-4087-814F-400611B2D4B0";
shapes = (
{
closed = 1;
nodes = (
(495,-10,o),
(620,65,o),
(620,205,cs),
(620,301,o),
(551,353,o),
(465,380,c),
(465,391,l),
(534,415,o),
(596,446,o),
(596,540,cs),
(596,660,o),
(475,730,o),
(335,730,cs),
(205,730,o),
(75,655,o),
(75,515,c),
(225,515,l),
(225,585,o),
(265,620,o),
(335,620,cs),
(405,620,o),
(445,590,o),
(445,540,cs),
(445,490,o),
(425,440,o),
(335,440,cs),
(235,440,l),
(235,330,l),
(335,330,ls),
(445,330,o),
(470,275,o),
(470,205,cs),
(470,145,o),
(435,100,o),
(335,100,cs),
(235,100,o),
(200,140,o),
(200,220,c),
(50,220,l),
(50,80,o),
(175,-10,o),
(335,-10,cs)
);
}
);
width = 670;
}
);
unicode = 51;
},
{
glyphname = four;
kernLeft = "4";
kernRight = "4";
lastChange = "2026-01-08 23:02:18 +0000";
layers = (
{
hints = (
{
horizontal = 1;
origin = (0,10);
target = up;
type = BottomGhost;
},
{
horizontal = 1;
origin = (0,7);
target = (0,8);
type = Stem;
},
{
horizontal = 1;
origin = (0,6);
target = down;
type = TopGhost;
},
{
horizontal = 1;
place = (601,119);
type = Stem;
},
{
origin = (0,10);
target = (0,0);
type = Stem;
}
);
layerId = "05246BF3-0764-4143-87C4-5D2B296D3790";
shapes = (
{
closed = 1;
nodes = (
(490,0,l),
(490,150,l),
(590,150,l),
(590,230,l),
(490,230,l),
(490,720,l),
(380,720,l),
(50,230,l),
(50,150,l),
(405,150,l),
(405,0,l)
);
},
{
closed = 1;
nodes = (
(405,616,l),
(405,230,l),
(145,230,l)
);
}
);
width = 650;
},
{
hints = (
{
horizontal = 1;
origin = (0,10);
target = up;
type = BottomGhost;
},
{
horizontal = 1;
origin = (0,8);
target = (0,7);
type = Stem;
},
{
horizontal = 1;
origin = (0,6);
target = down;
type = TopGhost;
},
{
origin = (0,10);
target = (0,0);
type = Stem;
}
);
layerId = "B51EB05F-9FBB-4087-814F-400611B2D4B0";
shapes = (
{
closed = 1;
nodes = (
(540,0,l),
(540,140,l),
(620,140,l),
(620,240,l),
(540,240,l),
(540,720,l),
(360,720,l),
(40,240,l),
(40,140,l),
(400,140,l),
(400,0,l)
);
},
{
closed = 1;
nodes = (
(400,573,l),
(400,240,l),
(180,240,l)
);
}
);
width = 670;
}
);
unicode = 52;
},
{
glyphname = five;
kernLeft = "5";
kernRight = "5";
lastChange = "2026-01-08 23:02:18 +0000";
layers = (
{
hints = (
{
horizontal = 1;
origin = (0,24);
target = (0,31);
type = Stem;
},
{
horizontal = 1;
origin = (0,5);
target = (0,18);
type = Stem;
},
{
horizontal = 1;
origin = (0,13);
target = (0,10);
type = Stem;
},
{
horizontal = 1;
origin = (0,9);
target = (0,14);
type = Stem;
},
{
origin = (0,28);
target = (0,27);
type = Stem;
},
{
origin = (0,21);
target = (0,2);
type = Stem;
}
);
layerId = "05246BF3-0764-4143-87C4-5D2B296D3790";
shapes = (
{
closed = 1;
nodes = (
(470,-10,o),
(580,100,o),
(580,230,cs),
(580,370,o),
(470,470,o),
(330,470,cs),
(246,470,o),
(190,431,o),
(172,391,c),
(162,391,l),
(187,640,l),
(541,640,l),
(541,720,l),
(115,720,l),
(75,320,l),
(155,320,l),
(185,360,o),
(240,390,o),
(320,390,cs),
(420,390,o),
(490,320,o),
(490,230,cs),
(490,140,o),
(420,70,o),
(320,70,cs),
(210,70,o),
(160,130,o),
(150,170,c),
(60,170,l),
(70,80,o),
(160,-10,o),
(320,-10,cs)
);
}
);
width = 640;
},
{
hints = (
{
horizontal = 1;
origin = (0,31);
target = (0,24);
type = Stem;
},
{
horizontal = 1;
origin = (0,18);
target = (0,5);
type = Stem;
},
{
horizontal = 1;
origin = (0,13);
target = (0,10);
type = Stem;
},
{
horizontal = 1;
origin = (0,14);
target = (0,9);
type = Stem;
},
{
origin = (0,28);
target = (0,27);
type = Stem;
},
{
origin = (0,21);
target = (0,2);
type = Stem;
}
);
layerId = "B51EB05F-9FBB-4087-814F-400611B2D4B0";
shapes = (
{
closed = 1;
nodes = (
(490,-10,o),
(610,90,o),
(610,230,cs),
(610,380,o),
(490,470,o),
(350,470,cs),
(276,470,o),
(222,431,o),
(212,391,c),
(204,391,l),
(225,610,l),
(571,610,l),
(571,720,l),
(105,720,l),
(65,300,l),
(195,300,l),
(215,340,o),
(250,360,o),
(330,360,cs),
(410,360,o),
(460,300,o),
(460,230,cs),
(460,160,o),
(410,100,o),
(330,100,cs),
(250,100,o),
(200,130,o),
(200,190,c),
(50,190,l),
(50,80,o),
(170,-10,o),
(330,-10,cs)
);
}
);
width = 660;
}
);
unicode = 53;
},
{
glyphname = six;
kernLeft = "6";
kernRight = "6";
lastChange = "2026-01-08 23:02:18 +0000";
layers = (
{
hints = (
{
horizontal = 1;
origin = (1,11);
target = (0,25);
type = Stem;
},
{
horizontal = 1;
origin = (0,5);
target = (1,5);
type = Stem;
},
{
horizontal = 1;
origin = (0,19);
target = (0,12);
type = Stem;
},
{
origin = (0,22);
target = (0,9);
type = Stem;
},
{
origin = (1,8);
target = (0,2);
type = Stem;
},
{
origin = (0,15);
target = (0,16);
type = Stem;
},
{
origin = (0,22);
target = (1,2);
type = Stem;
}
);
layerId = "05246BF3-0764-4143-87C4-5D2B296D3790";
shapes = (
{
closed = 1;
nodes = (
(495,-10,o),
(590,100,o),
(590,230,cs),
(590,360,o),
(495,470,o),
(335,470,cs),
(246,470,o),
(178,411,o),
(158,341,c),
(147,341,l),
(141,532,o),
(198,650,o),
(335,650,cs),
(445,650,o),
(480,590,o),
(490,540,c),
(580,540,l),
(570,640,o),
(495,730,o),
(335,730,cs),
(175,730,o),
(60,620,o),
(60,350,cs),
(60,70,o),
(185,-10,o),
(335,-10,cs)
);
},
{
closed = 1;
nodes = (
(235,70,o),
(170,130,o),
(170,230,cs),
(170,330,o),
(235,390,o),
(335,390,cs),
(435,390,o),
(500,330,o),
(500,230,cs),
(500,130,o),
(435,70,o),
(335,70,cs)
);
}
);
width = 650;
},
{
hints = (
{
horizontal = 1;
origin = (0,25);
target = (1,11);
type = Stem;
},
{
horizontal = 1;
origin = (1,5);
target = (0,5);
type = Stem;
},
{
horizontal = 1;
origin = (0,19);
target = (0,12);
type = Stem;
},
{
origin = (0,22);
target = (0,9);
type = Stem;
},
{
origin = (1,8);
target = (0,2);
type = Stem;
},
{
origin = (0,15);
target = (0,16);
type = Stem;
},
{
origin = (0,22);
target = (1,2);
type = Stem;
}
);
layerId = "B51EB05F-9FBB-4087-814F-400611B2D4B0";
shapes = (
{
closed = 1;
nodes = (
(530,-10,o),
(630,100,o),
(630,230,cs),
(630,380,o),
(510,470,o),
(370,470,cs),
(291,470,o),
(233,431,o),
(203,351,c),
(192,351,l),
(192,529,o),
(241,620,o),
(350,620,cs),
(450,620,o),
(470,580,o),
(470,520,c),
(620,520,l),
(620,640,o),
(520,730,o),
(350,730,cs),
(190,730,o),
(50,630,o),
(50,350,cs),
(50,60,o),
(180,-10,o),
(350,-10,cs)
);
},
{
closed = 1;
nodes = (
(280,100,o),
(220,140,o),
(220,230,cs),
(220,320,o),
(280,360,o),
(350,360,cs),
(420,360,o),
(480,320,o),
(480,230,cs),
(480,140,o),
(420,100,o),
(350,100,cs)
);
}
);
width = 680;
}
);
unicode = 54;
},
{
glyphname = seven;
kernLeft = "7";
kernRight = "7";
lastChange = "2026-01-08 23:02:18 +0000";
layers = (
{
hints = (
{
horizontal = 1;
origin = (0,6);
target = up;
type = BottomGhost;
},
{
horizontal = 1;
origin = (0,3);
target = (0,4);
type = Stem;
},
{
origin = (0,5);
target = (0,1);
type = Stem;
}
);
layerId = "05246BF3-0764-4143-87C4-5D2B296D3790";
shapes = (
{
closed = 1;
nodes = (
(225,0,l),
(520,640,l),
(520,720,l),
(45,720,l),
(45,640,l),
(430,640,l),
(130,0,l)
);
}
);
width = 565;
},
{
hints = (
{
horizontal = 1;
origin = (0,6);
target = up;
type = BottomGhost;
},
{
horizontal = 1;
origin = (0,3);
target = (0,4);
type = Stem;
}
);
layerId = "B51EB05F-9FBB-4087-814F-400611B2D4B0";
shapes = (
{
closed = 1;
nodes = (
(245,0,l),
(560,610,l),
(560,720,l),
(35,720,l),
(35,610,l),
(405,610,l),
(85,0,l)
);
}
);
width = 595;
}
);
unicode = 55;
},
{
glyphname = eight;
kernLeft = "8";
kernRight = "8";
lastChange = "2026-01-08 23:02:18 +0000";
layers = (
{
hints = (
{
horizontal = 1;
origin = (1,11);
target = (0,25);
type = Stem;
},
{
horizontal = 1;
origin = (2,11);
target = (1,5);
type = Stem;
},
{
horizontal = 1;
origin = (0,12);
target = (2,5);
type = Stem;
},
{
origin = (0,22);
target = (1,2);
type = Stem;
},
{
origin = (1,8);
target = (0,2);
type = Stem;
},
{
origin = (0,15);
target = (2,2);
type = Stem;
},
{
origin = (2,8);
target = (0,9);
type = Stem;
}
);
layerId = "05246BF3-0764-4143-87C4-5D2B296D3790";
shapes = (
{
closed = 1;
nodes = (
(475,-10,o),
(590,75,o),
(590,205,cs),
(590,291,o),
(531,353,o),
(445,380,c),
(445,391,l),
(514,415,o),
(560,466,o),
(560,540,cs),
(560,660,o),
(455,730,o),
(325,730,cs),
(195,730,o),
(90,660,o),
(90,540,cs),
(90,466,o),
(136,415,o),
(205,391,c),
(205,381,l),
(119,353,o),
(60,301,o),
(60,205,cs),
(60,75,o),
(175,-10,o),
(325,-10,cs)
);
},
{
closed = 1;
nodes = (
(205,70,o),
(150,135,o),
(150,205,cs),
(150,275,o),
(205,345,o),
(325,345,cs),
(445,345,o),
(500,275,o),
(500,205,cs),
(500,135,o),
(445,70,o),
(325,70,cs)
);
},
{
closed = 1;
nodes = (
(235,425,o),
(180,470,o),
(180,540,cs),
(180,610,o),
(235,650,o),
(325,650,cs),
(415,650,o),
(470,610,o),
(470,540,cs),
(470,470,o),
(415,425,o),
(325,425,cs)
);
}
);
width = 650;
},
{
hints = (
{
horizontal = 1;
origin = (0,25);
target = (1,11);
type = Stem;
},
{
horizontal = 1;
origin = (1,5);
target = (2,11);
type = Stem;
},
{
horizontal = 1;
origin = (0,12);
target = (2,5);
type = Stem;
},
{
origin = (0,22);
target = (1,2);
type = Stem;
},
{
origin = (1,8);
target = (0,2);
type = Stem;
},
{
origin = (0,15);
target = (2,2);
type = Stem;
},
{
origin = (2,8);
target = (0,9);
type = Stem;
}
);
layerId = "B51EB05F-9FBB-4087-814F-400611B2D4B0";
shapes = (
{
closed = 1;
nodes = (
(485,-10,o),
(620,75,o),
(620,215,cs),
(620,295,o),
(562,356,o),
(479,380,c),
(479,390,l),
(546,411,o),
(595,460,o),
(595,530,cs),
(595,660,o),
(475,730,o),
(335,730,cs),
(195,730,o),
(75,660,o),
(75,530,cs),
(75,460,o),
(124,411,o),
(191,390,c),
(191,380,l),
(108,356,o),
(50,295,o),
(50,215,cs),
(50,75,o),
(185,-10,o),
(335,-10,cs)
);
},
{
closed = 1;
nodes = (
(255,100,o),
(200,145,o),
(200,215,cs),
(200,285,o),
(255,330,o),
(335,330,cs),
(415,330,o),
(470,285,o),
(470,215,cs),
(470,145,o),
(415,100,o),
(335,100,cs)
);
},
{
closed = 1;
nodes = (
(265,440,o),
(225,480,o),
(225,530,cs),
(225,580,o),
(265,620,o),
(335,620,cs),
(405,620,o),
(445,580,o),
(445,530,cs),
(445,480,o),
(405,440,o),
(335,440,cs)
);
}
);
width = 670;
}
);
unicode = 56;
},
{
glyphname = nine;
kernLeft = "9";
kernRight = "9";
lastChange = "2026-01-08 23:02:18 +0000";
layers = (
{
hints = (
{
horizontal = 1;
origin = (0,18);
target = (0,25);
type = Stem;
},
{
horizontal = 1;
origin = (1,11);
target = (0,11);
type = Stem;
},
{
horizontal = 1;
origin = (0,5);
target = (1,5);
type = Stem;
},
{
origin = (0,8);
target = (1,2);
type = Stem;
},
{
origin = (0,15);
target = (0,2);
type = Stem;
},
{
origin = (0,22);
target = (0,21);
type = Stem;
},
{
origin = (1,8);
target = (0,2);
type = Stem;
}
);
layerId = "05246BF3-0764-4143-87C4-5D2B296D3790";
shapes = (
{
closed = 1;
nodes = (
(475,-10,o),
(590,100,o),
(590,370,cs),
(590,650,o),
(465,730,o),
(315,730,cs),
(155,730,o),
(60,620,o),
(60,490,cs),
(60,360,o),
(155,250,o),
(315,250,cs),
(404,250,o),
(472,309,o),
(492,379,c),
(503,379,l),
(509,188,o),
(452,70,o),
(315,70,cs),
(205,70,o),
(170,130,o),
(160,180,c),
(70,180,l),
(80,80,o),
(155,-10,o),
(315,-10,cs)
);
},
{
closed = 1;
nodes = (
(215,330,o),
(150,390,o),
(150,490,cs),
(150,590,o),
(215,650,o),
(315,650,cs),
(415,650,o),
(480,590,o),
(480,490,cs),
(480,390,o),
(415,330,o),
(315,330,cs)
);
}
);
width = 650;
},
{
hints = (
{
horizontal = 1;
origin = (0,25);
target = (0,18);
type = Stem;
},
{
horizontal = 1;
origin = (0,11);
target = (1,11);
type = Stem;
},
{
horizontal = 1;
origin = (0,5);
target = (1,5);
type = Stem;
},
{
origin = (0,8);
target = (1,2);
type = Stem;
},
{
origin = (0,15);
target = (0,2);
type = Stem;
},
{
origin = (0,22);
target = (0,21);
type = Stem;
},
{
origin = (1,8);
target = (0,2);
type = Stem;
}
);
layerId = "B51EB05F-9FBB-4087-814F-400611B2D4B0";
shapes = (
{
closed = 1;
nodes = (
(490,-10,o),
(630,90,o),
(630,370,cs),
(630,660,o),
(500,730,o),
(330,730,cs),
(150,730,o),
(50,620,o),
(50,490,cs),
(50,340,o),
(170,250,o),
(310,250,cs),
(389,250,o),
(447,289,o),
(477,369,c),
(488,369,l),
(492,191,o),
(439,100,o),
(330,100,cs),
(230,100,o),
(210,140,o),
(210,200,c),
(60,200,l),
(60,80,o),
(160,-10,o),
(330,-10,cs)
);
},
{
closed = 1;
nodes = (
(260,360,o),
(200,400,o),
(200,490,cs),
(200,580,o),
(260,620,o),
(330,620,cs),
(400,620,o),
(460,580,o),
(460,490,cs),
(460,400,o),
(400,360,o),
(330,360,cs)
);
}
);
width = 680;
}
);
unicode = 57;
},
{
glyphname = fraction;
lastChange = "2026-01-08 23:02:18 +0000";
layers = (
{
hints = (
{
horizontal = 1;
origin = (0,3);
target = up;
type = BottomGhost;
},
{
horizontal = 1;
origin = (0,2);
target = down;
type = TopGhost;
}
);
layerId = "05246BF3-0764-4143-87C4-5D2B296D3790";
shapes = (
{
closed = 1;
nodes = (
(120,0,l),
(575,720,l),
(485,720,l),
(30,0,l)
);
}
);
width = 610;
},
{
hints = (
{
horizontal = 1;
origin = (0,3);
target = up;
type = BottomGhost;
},
{
horizontal = 1;
origin = (0,2);
target = down;
type = TopGhost;
}
);
layerId = "B51EB05F-9FBB-4087-814F-400611B2D4B0";
shapes = (
{
closed = 1;
nodes = (
(170,0,l),
(625,720,l),
(485,720,l),
(30,0,l)
);
}
);
width = 655;
}
);
unicode = 8260;
},
{
glyphname = onesuperior;
kernLeft = onesuperior;
kernRight = onesuperior;
lastChange = "2026-01-08 23:02:18 +0000";
layers = (
{
hints = (
{
origin = (0,6);
target = (0,0);
type = Stem;
}
);
layerId = "05246BF3-0764-4143-87C4-5D2B296D3790";
shapes = (
{
closed = 1;
nodes = (
(200,410,l),
(200,750,l),
(130,750,l),
(30,690,l),
(30,630,l),
(130,690,l),
(130,410,l)
);
}
);
width = 270;
},
{
hints = (
{
origin = (0,6);
target = (0,0);
type = Stem;
}
);
layerId = "B51EB05F-9FBB-4087-814F-400611B2D4B0";
shapes = (
{
closed = 1;
nodes = (
(224,410,l),
(224,750,l),
(130,750,l),
(30,690,l),
(30,610,l),
(130,670,l),
(130,410,l)
);
}
);
width = 289;
}
);
unicode = 185;
},
{
glyphname = twosuperior;
kernLeft = twosuperior;
kernRight = twosuperior;
lastChange = "2026-01-08 23:02:18 +0000";
layers = (
{
hints = (
{
horizontal = 1;
origin = (0,23);
target = (0,24);
type = Stem;
},
{
horizontal = 1;
origin = (0,9);
target = (0,16);
type = Stem;
},
{
origin = (0,24);
target = (0,13);
type = Stem;
},
{
origin = (0,19);
target = (0,6);
type = Stem;
},
{
origin = (0,24);
target = (0,0);
type = Stem;
}
);
layerId = "05246BF3-0764-4143-87C4-5D2B296D3790";
shapes = (
{
closed = 1;
nodes = (
(279,410,l),
(279,470,l),
(131,470,l),
(231,563,ls),
(263,592,o),
(273,621,o),
(273,655,cs),
(273,703,o),
(231,756,o),
(154,756,cs),
(87,756,o),
(35,718,o),
(35,646,c),
(105,646,l),
(105,669,o),
(120,696,o),
(154,696,cs),
(198,696,o),
(203,660,o),
(203,645,cs),
(203,635,o),
(204,618,o),
(169,588,cs),
(35,470,l),
(35,410,l)
);
}
);
width = 319;
},
{
hints = (
{
horizontal = 1;
origin = (0,24);
target = (0,23);
type = Stem;
},
{
horizontal = 1;
origin = (0,12);
target = (0,9);
type = Stem;
},
{
horizontal = 1;
origin = (0,16);
target = (0,9);
type = Stem;
},
{
origin = (0,12);
target = (0,13);
type = Stem;
},
{
origin = (0,19);
target = (0,6);
type = Stem;
},
{
origin = (0,24);
target = (0,0);
type = Stem;
}
);
layerId = "B51EB05F-9FBB-4087-814F-400611B2D4B0";
shapes = (
{
closed = 1;
nodes = (
(299,410,l),
(299,490,l),
(156,490,l),
(246,563,ls),
(279,589,o),
(288,621,o),
(288,655,cs),
(288,713,o),
(246,756,o),
(159,756,cs),
(82,756,o),
(30,718,o),
(30,641,c),
(120,641,l),
(120,664,o),
(135,686,o),
(159,686,cs),
(193,686,o),
(198,660,o),
(198,645,cs),
(198,635,o),
(199,615,o),
(164,588,cs),
(35,490,l),
(35,410,l)
);
}
);
width = 334;
}
);
unicode = 178;
},
{
glyphname = threesuperior;
kernLeft = threesuperior;
kernRight = threesuperior;
lastChange = "2026-01-08 23:02:18 +0000";
layers = (
{
hints = (
{
horizontal = 1;
origin = (0,41);
target = (0,34);
type = Stem;
},
{
horizontal = 1;
origin = (0,28);
target = (0,26);
type = Stem;
},
{
horizontal = 1;
origin = (0,19);
target = (0,12);
type = Stem;
},
{
origin = (0,38);
target = (0,37);
type = Stem;
},
{
origin = (0,31);
target = (0,2);
type = Stem;
},
{
origin = (0,27);
target = (0,6);
type = Stem;
},
{
origin = (0,15);
target = (0,16);
type = Stem;
},
{
origin = (0,22);
target = (0,9);
type = Stem;
}
);
layerId = "05246BF3-0764-4143-87C4-5D2B296D3790";
shapes = (
{
closed = 1;
nodes = (
(234,400,o),
(296,445,o),
(296,507,cs),
(296,547,o),
(270,577,o),
(220,589,c),
(220,595,l),
(262,606,o),
(284,630,o),
(284,665,cs),
(284,722,o),
(224,756,o),
(163,756,cs),
(102,756,o),
(39,725,o),
(39,658,c),
(109,658,l),
(109,681,o),
(126,696,o),
(163,696,cs),
(196,696,o),
(214,683,o),
(214,660,cs),
(214,637,o),
(196,617,o),
(163,617,cs),
(130,617,l),
(130,567,l),
(163,567,ls),
(215,567,o),
(226,525,o),
(226,507,cs),
(226,479,o),
(205,460,o),
(163,460,cs),
(121,460,o),
(100,474,o),
(100,507,c),
(30,507,l),
(30,435,o),
(92,400,o),
(163,400,cs)
);
}
);
width = 336;
},
{
hints = (
{
horizontal = 1;
origin = (0,41);
target = (0,34);
type = Stem;
},
{
horizontal = 1;
origin = (0,28);
target = (0,26);
type = Stem;
},
{
horizontal = 1;
origin = (0,19);
target = (0,12);
type = Stem;
},
{
horizontal = 1;
origin = (0,28);
target = (0,5);
type = Stem;
},
{
horizontal = 1;
origin = (0,6);
target = (0,26);
type = Stem;
},
{
horizontal = 1;
origin = (0,16);
target = (0,12);
type = Stem;
},
{
origin = (0,38);
target = (0,37);
type = Stem;
},
{
origin = (0,31);
target = (0,2);
type = Stem;
},
{
origin = (0,28);
target = (0,6);
type = Stem;
},
{
origin = (0,22);
target = (0,9);
type = Stem;
},
{
origin = (0,15);
target = (0,16);
type = Stem;
}
);
layerId = "B51EB05F-9FBB-4087-814F-400611B2D4B0";
shapes = (
{
closed = 1;
nodes = (
(253,400,o),
(321,442,o),
(321,512,cs),
(321,562,o),
(270,589,o),
(230,589,c),
(230,595,l),
(270,595,o),
(309,620,o),
(309,665,cs),
(309,725,o),
(244,756,o),
(173,756,cs),
(102,756,o),
(34,717,o),
(34,650,c),
(134,650,l),
(134,678,o),
(150,686,o),
(173,686,cs),
(196,686,o),
(209,676,o),
(209,660,cs),
(209,642,o),
(201,622,o),
(173,622,cs),
(130,622,l),
(130,562,l),
(173,562,ls),
(210,562,o),
(221,530,o),
(221,512,cs),
(221,494,o),
(210,475,o),
(173,475,cs),
(136,475,o),
(125,502,o),
(125,525,c),
(25,525,l),
(25,453,o),
(93,400,o),
(173,400,cs)
);
}
);
width = 356;
}
);
unicode = 179;
},
{
glyphname = foursuperior;
lastChange = "2026-01-08 23:02:18 +0000";
layers = (
{
layerId = "05246BF3-0764-4143-87C4-5D2B296D3790";
shapes = (
{
closed = 1;
nodes = (
(247,410,l),
(247,476,l),
(290,476,l),
(290,526,l),
(247,526,l),
(247,750,l),
(167,750,l),
(20,526,l),
(20,476,l),
(177,476,l),
(177,410,l)
);
},
{
closed = 1;
nodes = (
(177,666,l),
(177,526,l),
(85,526,l)
);
}
);
width = 330;
},
{
layerId = "B51EB05F-9FBB-4087-814F-400611B2D4B0";
shapes = (
{
closed = 1;
nodes = (
(277,410,l),
(277,471,l),
(320,471,l),
(320,536,l),
(277,536,l),
(277,750,l),
(167,750,l),
(20,536,l),
(20,471,l),
(197,471,l),
(197,410,l)
);
},
{
closed = 1;
nodes = (
(197,670,l),
(197,536,l),
(105,536,l)
);
}
);
width = 355;
}
);
unicode = 8308;
},
{
glyphname = .notdef;
lastChange = "2026-01-08 23:02:18 +0000";
layers = (
{
hints = (
{
horizontal = 1;
origin = (8,6);
place = (660,30);
type = Stem;
},
{
horizontal = 1;
origin = (0,2);
place = (720,30);
type = Stem;
},
{
horizontal = 1;
origin = (8,6);
place = (660,54);
type = Stem;
},
{
place = (40,30);
type = Stem;
},
{
place = (410,30);
type = Stem;
}
);
layerId = "05246BF3-0764-4143-87C4-5D2B296D3790";
shapes = (
{
closed = 1;
nodes = (
(360,0,l),
(360,720,l),
(80,720,l),
(80,0,l)
);
},
{
closed = 1;
nodes = (
(160,70,l),
(180,70,l),
(180,90,l),
(200,90,l),
(200,110,l),
(220,110,l),
(220,130,l),
(160,130,l),
(160,150,l),
(280,150,l),
(280,130,l),
(240,130,l),
(240,110,l),
(220,110,l),
(220,90,l),
(200,90,l),
(200,70,l),
(280,70,l),
(280,50,l),
(160,50,l)
);
},
{
closed = 1;
nodes = (
(180,190,l),
(160,190,l),
(160,240,l),
(180,240,l),
(180,260,l),
(260,260,l),
(260,240,l),
(280,240,l),
(280,190,l),
(260,190,l),
(260,170,l),
(180,170,l)
);
},
{
closed = 1;
nodes = (
(260,190,l),
(260,240,l),
(180,240,l),
(180,190,l)
);
},
{
closed = 1;
nodes = (
(160,320,l),
(180,320,l),
(180,340,l),
(160,340,l),
(160,380,l),
(180,380,l),
(180,340,l),
(280,340,l),
(280,320,l),
(180,320,l),
(180,280,l),
(160,280,l)
);
},
{
closed = 1;
nodes = (
(160,460,l),
(180,460,l),
(180,480,l),
(260,480,l),
(260,460,l),
(280,460,l),
(280,400,l),
(160,400,l)
);
},
{
closed = 1;
nodes = (
(260,420,l),
(260,460,l),
(180,460,l),
(180,420,l)
);
},
{
closed = 1;
nodes = (
(180,520,l),
(160,520,l),
(160,580,l),
(180,580,l),
(180,520,l),
(210,520,l),
(210,560,l),
(230,560,l),
(230,520,l),
(260,520,l),
(260,580,l),
(280,580,l),
(280,520,l),
(260,520,l),
(260,500,l),
(180,500,l)
);
},
{
closed = 1;
nodes = (
(180,620,l),
(160,620,l),
(160,670,l),
(180,670,l),
(180,620,l),
(210,620,l),
(210,660,l),
(230,660,l),
(230,620,l),
(280,620,l),
(280,600,l),
(230,600,l),
(230,620,l),
(210,620,l),
(210,600,l),
(180,600,l)
);
}
);
width = 440;
},
{
hints = (
{
horizontal = 1;
place = (0,30);
type = Stem;
},
{
horizontal = 1;
place = (720,30);
type = Stem;
},
{
horizontal = 1;
place = (666,54);
type = Stem;
},
{
place = (40,30);
type = Stem;
},
{
place = (410,30);
type = Stem;
}
);
layerId = "B51EB05F-9FBB-4087-814F-400611B2D4B0";
shapes = (
{
closed = 1;
nodes = (
(360,0,l),
(360,720,l),
(80,720,l),
(80,0,l)
);
},
{
closed = 1;
nodes = (
(160,70,l),
(180,70,l),
(180,90,l),
(200,90,l),
(200,110,l),
(220,110,l),
(220,130,l),
(160,130,l),
(160,150,l),
(280,150,l),
(280,130,l),
(240,130,l),
(240,110,l),
(220,110,l),
(220,90,l),
(200,90,l),
(200,70,l),
(280,70,l),
(280,50,l),
(160,50,l)
);
},
{
closed = 1;
nodes = (
(180,190,l),
(160,190,l),
(160,240,l),
(180,240,l),
(180,260,l),
(260,260,l),
(260,240,l),
(280,240,l),
(280,190,l),
(260,190,l),
(260,170,l),
(180,170,l)
);
},
{
closed = 1;
nodes = (
(260,190,l),
(260,240,l),
(180,240,l),
(180,190,l)
);
},
{
closed = 1;
nodes = (
(160,320,l),
(180,320,l),
(180,340,l),
(160,340,l),
(160,380,l),
(180,380,l),
(180,340,l),
(280,340,l),
(280,320,l),
(180,320,l),
(180,280,l),
(160,280,l)
);
},
{
closed = 1;
nodes = (
(160,460,l),
(180,460,l),
(180,480,l),
(260,480,l),
(260,460,l),
(280,460,l),
(280,400,l),
(160,400,l)
);
},
{
closed = 1;
nodes = (
(260,420,l),
(260,460,l),
(180,460,l),
(180,420,l)
);
},
{
closed = 1;
nodes = (
(180,520,l),
(160,520,l),
(160,580,l),
(180,580,l),
(180,520,l),
(210,520,l),
(210,560,l),
(230,560,l),
(230,520,l),
(260,520,l),
(260,580,l),
(280,580,l),
(280,520,l),
(260,520,l),
(260,500,l),
(180,500,l)
);
},
{
closed = 1;
nodes = (
(180,620,l),
(160,620,l),
(160,670,l),
(180,670,l),
(180,620,l),
(210,620,l),
(210,660,l),
(230,660,l),
(230,620,l),
(280,620,l),
(280,600,l),
(230,600,l),
(230,620,l),
(210,620,l),
(210,600,l),
(180,600,l)
);
}
);
width = 440;
}
);
},
{
glyphname = period;
kernLeft = period;
kernRight = period;
lastChange = "2026-01-08 23:02:18 +0000";
layers = (
{
hints = (
{
horizontal = 1;
origin = (0,5);
target = (0,11);
type = Stem;
},
{
origin = (0,8);
target = (0,2);
type = Stem;
}
);
layerId = "05246BF3-0764-4143-87C4-5D2B296D3790";
shapes = (
{
closed = 1;
nodes = (
(161,-10,o),
(190,19,o),
(190,55,cs),
(190,91,o),
(161,120,o),
(125,120,cs),
(89,120,o),
(60,91,o),
(60,55,cs),
(60,19,o),
(89,-10,o),
(125,-10,cs)
);
}
);
width = 250;
},
{
hints = (
{
horizontal = 1;
origin = (0,11);
target = (0,5);
type = Stem;
},
{
origin = (0,8);
target = (0,2);
type = Stem;
}
);
layerId = "B51EB05F-9FBB-4087-814F-400611B2D4B0";
shapes = (
{
closed = 1;
nodes = (
(191,-15,o),
(230,24,o),
(230,70,cs),
(230,116,o),
(191,155,o),
(145,155,cs),
(99,155,o),
(60,116,o),
(60,70,cs),
(60,24,o),
(99,-15,o),
(145,-15,cs)
);
}
);
width = 290;
}
);
unicode = 46;
},
{
glyphname = comma;
kernLeft = period;
kernRight = period;
lastChange = "2026-01-08 23:02:18 +0000";
layers = (
{
hints = (
{
origin = (0,3);
target = (0,1);
type = Stem;
}
);
layerId = "05246BF3-0764-4143-87C4-5D2B296D3790";
shapes = (
{
closed = 1;
nodes = (
(115,-165,l),
(185,100,l),
(90,100,l),
(40,-165,l)
);
}
);
width = 245;
},
{
hints = (
{
horizontal = 1;
origin = (0,3);
target = (0,2);
type = Stem;
},
{
origin = (0,3);
target = (0,1);
type = Stem;
}
);
layerId = "B51EB05F-9FBB-4087-814F-400611B2D4B0";
shapes = (
{
closed = 1;
nodes = (
(165,-140,l),
(225,135,l),
(70,135,l),
(40,-140,l)
);
}
);
width = 285;
}
);
unicode = 44;
},
{
glyphname = colon;
kernLeft = colon;
kernRight = colon;
lastChange = "2026-01-08 23:02:18 +0000";
layers = (
{
hints = (
{
horizontal = 1;
origin = (1,5);
target = (1,11);
type = Stem;
},
{
horizontal = 1;
origin = (0,5);
target = (0,11);
type = Stem;
},
{
origin = (1,8);
target = (1,2);
type = Stem;
}
);
layerId = "05246BF3-0764-4143-87C4-5D2B296D3790";
shapes = (
{
closed = 1;
nodes = (
(171,390,o),
(200,419,o),
(200,455,cs),
(200,491,o),
(171,520,o),
(135,520,cs),
(99,520,o),
(70,491,o),
(70,455,cs),
(70,419,o),
(99,390,o),
(135,390,cs)
);
},
{
closed = 1;
nodes = (
(171,-10,o),
(200,18,o),
(200,55,cs),
(200,91,o),
(171,120,o),
(135,120,cs),
(98,120,o),
(70,91,o),
(70,55,cs),
(70,18,o),
(98,-10,o),
(135,-10,cs)
);
}
);
width = 270;
},
{
hints = (
{
horizontal = 1;
origin = (1,11);
target = (1,5);
type = Stem;
},
{
horizontal = 1;
origin = (0,5);
target = (0,11);
type = Stem;
},
{
origin = (1,8);
target = (1,2);
type = Stem;
}
);
layerId = "B51EB05F-9FBB-4087-814F-400611B2D4B0";
shapes = (
{
closed = 1;
nodes = (
(192,360,o),
(230,398,o),
(230,445,cs),
(230,492,o),
(192,530,o),
(145,530,cs),
(98,530,o),
(60,492,o),
(60,445,cs),
(60,398,o),
(98,360,o),
(145,360,cs)
);
},
{
closed = 1;
nodes = (
(192,-15,o),
(230,22,o),
(230,70,cs),
(230,117,o),
(192,155,o),
(145,155,cs),
(97,155,o),
(60,117,o),
(60,70,cs),
(60,22,o),
(97,-15,o),
(145,-15,cs)
);
}
);
width = 290;
}
);
unicode = 58;
},
{
glyphname = semicolon;
kernLeft = colon;
kernRight = colon;
lastChange = "2026-01-08 23:02:18 +0000";
layers = (
{
hints = (
{
horizontal = 1;
origin = (1,5);
target = (1,11);
type = Stem;
},
{
origin = (1,8);
target = (1,2);
type = Stem;
}
);
layerId = "05246BF3-0764-4143-87C4-5D2B296D3790";
shapes = (
{
closed = 1;
nodes = (
(115,-165,l),
(185,100,l),
(90,100,l),
(40,-165,l)
);
},
{
closed = 1;
nodes = (
(172,390,o),
(200,418,o),
(200,455,cs),
(200,492,o),
(172,520,o),
(135,520,cs),
(98,520,o),
(70,492,o),
(70,455,cs),
(70,418,o),
(98,390,o),
(135,390,cs)
);
}
);
width = 260;
},
{
hints = (
{
horizontal = 1;
origin = (0,3);
target = (0,2);
type = Stem;
},
{
horizontal = 1;
origin = (1,5);
target = (1,11);
type = Stem;
},
{
origin = (1,8);
target = (1,2);
type = Stem;
}
);
layerId = "B51EB05F-9FBB-4087-814F-400611B2D4B0";
shapes = (
{
closed = 1;
nodes = (
(165,-140,l),
(225,135,l),
(70,135,l),
(40,-140,l)
);
},
{
closed = 1;
nodes = (
(188,360,o),
(226,398,o),
(226,445,cs),
(226,492,o),
(188,530,o),
(141,530,cs),
(94,530,o),
(56,492,o),
(56,445,cs),
(56,398,o),
(94,360,o),
(141,360,cs)
);
}
);
width = 286;
}
);
unicode = 59;
},
{
glyphname = ellipsis;
kernLeft = period;
kernRight = period;
lastChange = "2026-01-08 23:02:18 +0000";
layers = (
{
hints = (
{
horizontal = 1;
origin = (1,5);
target = (1,11);
type = Stem;
},
{
origin = (1,8);
target = (1,2);
type = Stem;
},
{
origin = (2,8);
target = (2,2);
type = Stem;
},
{
origin = (0,8);
target = (0,2);
type = Stem;
}
);
layerId = "05246BF3-0764-4143-87C4-5D2B296D3790";
shapes = (
{
closed = 1;
nodes = (
(591,-10,o),
(620,19,o),
(620,55,cs),
(620,91,o),
(591,120,o),
(555,120,cs),
(519,120,o),
(490,91,o),
(490,55,cs),
(490,19,o),
(519,-10,o),
(555,-10,cs)
);
},
{
closed = 1;
nodes = (
(151,-10,o),
(180,19,o),
(180,55,cs),
(180,91,o),
(151,120,o),
(115,120,cs),
(79,120,o),
(50,91,o),
(50,55,cs),
(50,19,o),
(79,-10,o),
(115,-10,cs)
);
},
{
closed = 1;
nodes = (
(371,-10,o),
(400,19,o),
(400,55,cs),
(400,91,o),
(371,120,o),
(335,120,cs),
(299,120,o),
(270,91,o),
(270,55,cs),
(270,19,o),
(299,-10,o),
(335,-10,cs)
);
}
);
width = 670;
},
{
hints = (
{
horizontal = 1;
origin = (1,11);
target = (1,5);
type = Stem;
},
{
origin = (1,8);
target = (1,2);
type = Stem;
},
{
origin = (2,8);
target = (2,2);
type = Stem;
},
{
origin = (0,8);
target = (0,2);
type = Stem;
}
);
layerId = "B51EB05F-9FBB-4087-814F-400611B2D4B0";
shapes = (
{
closed = 1;
nodes = (
(601,-10,o),
(640,29,o),
(640,75,cs),
(640,121,o),
(601,160,o),
(555,160,cs),
(509,160,o),
(470,121,o),
(470,75,cs),
(470,29,o),
(509,-10,o),
(555,-10,cs)
);
},
{
closed = 1;
nodes = (
(161,-10,o),
(200,29,o),
(200,75,cs),
(200,121,o),
(161,160,o),
(115,160,cs),
(69,160,o),
(30,121,o),
(30,75,cs),
(30,29,o),
(69,-10,o),
(115,-10,cs)
);
},
{
closed = 1;
nodes = (
(381,-10,o),
(420,29,o),
(420,75,cs),
(420,121,o),
(381,160,o),
(335,160,cs),
(289,160,o),
(250,121,o),
(250,75,cs),
(250,29,o),
(289,-10,o),
(335,-10,cs)
);
}
);
width = 670;
}
);
unicode = 8230;
},
{
glyphname = exclam;
kernLeft = exclam;
lastChange = "2026-01-08 23:02:18 +0000";
layers = (
{
hints = (
{
horizontal = 1;
origin = (1,5);
target = (1,11);
type = Stem;
},
{
horizontal = 1;
origin = (0,2);
target = down;
type = TopGhost;
},
{
place = (90,90);
type = Stem;
},
{
origin = (1,8);
target = (1,2);
type = Stem;
}
);
layerId = "05246BF3-0764-4143-87C4-5D2B296D3790";
shapes = (
{
closed = 1;
nodes = (
(175,225,l),
(185,720,l),
(85,720,l),
(95,225,l)
);
},
{
closed = 1;
nodes = (
(171,-10,o),
(200,19,o),
(200,55,cs),
(200,91,o),
(171,120,o),
(135,120,cs),
(99,120,o),
(70,91,o),
(70,55,cs),
(70,19,o),
(99,-10,o),
(135,-10,cs)
);
}
);
width = 270;
},
{
hints = (
{
horizontal = 1;
origin = (1,11);
target = (1,5);
type = Stem;
},
{
horizontal = 1;
origin = (0,2);
target = down;
type = TopGhost;
},
{
place = (73.5,135);
type = Stem;
},
{
origin = (1,8);
target = (1,2);
type = Stem;
}
);
layerId = "B51EB05F-9FBB-4087-814F-400611B2D4B0";
shapes = (
{
closed = 1;
nodes = (
(195,215,l),
(210,720,l),
(60,720,l),
(75,215,l)
);
},
{
closed = 1;
nodes = (
(183,-15,o),
(220,22,o),
(220,70,cs),
(220,118,o),
(183,155,o),
(135,155,cs),
(87,155,o),
(50,118,o),
(50,70,cs),
(50,22,o),
(87,-15,o),
(135,-15,cs)
);
}
);
width = 270;
}
);
unicode = 33;
},
{
glyphname = exclamdown;
kernRight = exclamdown;
lastChange = "2026-01-08 23:02:18 +0000";
layers = (
{
hints = (
{
horizontal = 1;
origin = (1,5);
target = (1,11);
type = Stem;
},
{
origin = (1,8);
target = (1,2);
type = Stem;
},
{
place = (90,90);
type = Stem;
}
);
layerId = "05246BF3-0764-4143-87C4-5D2B296D3790";
shapes = (
{
closed = 1;
nodes = (
(185,-200,l),
(175,295,l),
(95,295,l),
(85,-200,l)
);
},
{
closed = 1;
nodes = (
(171,400,o),
(200,429,o),
(200,465,cs),
(200,501,o),
(171,530,o),
(135,530,cs),
(99,530,o),
(70,501,o),
(70,465,cs),
(70,429,o),
(99,400,o),
(135,400,cs)
);
}
);
width = 270;
},
{
hints = (
{
horizontal = 1;
origin = (1,5);
target = (1,11);
type = Stem;
},
{
origin = (1,8);
target = (1,2);
type = Stem;
},
{
place = (73.5,135);
type = Stem;
}
);
layerId = "B51EB05F-9FBB-4087-814F-400611B2D4B0";
shapes = (
{
closed = 1;
nodes = (
(210,-200,l),
(195,305,l),
(75,305,l),
(60,-200,l)
);
},
{
closed = 1;
nodes = (
(183,365,o),
(220,402,o),
(220,450,cs),
(220,498,o),
(183,535,o),
(135,535,cs),
(87,535,o),
(50,498,o),
(50,450,cs),
(50,402,o),
(87,365,o),
(135,365,cs)
);
}
);
width = 270;
}
);
unicode = 161;
},
{
glyphname = question;
kernLeft = question;
kernRight = question;
lastChange = "2026-01-08 23:02:18 +0000";
layers = (
{
hints = (
{
horizontal = 1;
origin = (1,5);
target = (1,11);
type = Stem;
},
{
horizontal = 1;
origin = (0,10);
target = (0,17);
type = Stem;
},
{
origin = (0,13);
target = (0,14);
type = Stem;
},
{
origin = (0,27);
target = (0,0);
type = Stem;
},
{
origin = (0,20);
target = (0,7);
type = Stem;
},
{
origin = (1,8);
target = (1,2);
type = Stem;
}
);
layerId = "05246BF3-0764-4143-87C4-5D2B296D3790";
shapes = (
{
closed = 1;
nodes = (
(313,225,l),
(313,245,ls),
(313,305,o),
(355,327,o),
(395,357,cs),
(475,417,o),
(490,478,o),
(490,540,cs),
(490,650,o),
(398,730,o),
(268,730,cs),
(138,730,o),
(50,650,o),
(50,540,c),
(140,540,l),
(140,600,o),
(188,650,o),
(268,650,cs),
(348,650,o),
(400,600,o),
(400,540,cs),
(400,496,o),
(400,454,o),
(330,404,cs),
(260,354,o),
(223,315,o),
(223,245,cs),
(223,225,l)
);
},
{
closed = 1;
nodes = (
(305,-10,o),
(333,18,o),
(333,55,cs),
(333,92,o),
(305,120,o),
(268,120,cs),
(231,120,o),
(203,92,o),
(203,55,cs),
(203,18,o),
(231,-10,o),
(268,-10,cs)
);
}
);
width = 540;
},
{
hints = (
{
horizontal = 1;
origin = (1,11);
target = (1,5);
type = Stem;
},
{
horizontal = 1;
origin = (0,10);
target = (0,17);
type = Stem;
},
{
origin = (0,27);
target = (0,0);
type = Stem;
},
{
origin = (0,13);
target = (0,14);
type = Stem;
},
{
origin = (0,20);
target = (0,7);
type = Stem;
},
{
origin = (1,8);
target = (1,2);
type = Stem;
}
);
layerId = "B51EB05F-9FBB-4087-814F-400611B2D4B0";
shapes = (
{
closed = 1;
nodes = (
(338,215,l),
(338,245,ls),
(338,310,o),
(367,316,o),
(420,360,cs),
(490,418,o),
(510,468,o),
(510,525,cs),
(510,655,o),
(393,730,o),
(268,730,cs),
(133,730,o),
(30,655,o),
(30,525,c),
(180,525,l),
(180,575,o),
(198,620,o),
(268,620,cs),
(338,620,o),
(360,580,o),
(360,525,cs),
(360,501,o),
(365,463,o),
(295,405,cs),
(219,342,o),
(188,320,o),
(188,245,cs),
(188,215,l)
);
},
{
closed = 1;
nodes = (
(311,-10,o),
(348,27,o),
(348,75,cs),
(348,123,o),
(311,160,o),
(263,160,cs),
(215,160,o),
(178,123,o),
(178,75,cs),
(178,27,o),
(215,-10,o),
(263,-10,cs)
);
}
);
width = 540;
}
);
unicode = 63;
},
{
glyphname = questiondown;
kernLeft = questiondown;
kernRight = questiondown;
lastChange = "2026-01-08 23:02:18 +0000";
layers = (
{
hints = (
{
horizontal = 1;
origin = (0,6);
target = (0,27);
type = Stem;
},
{
horizontal = 1;
origin = (1,5);
target = (1,11);
type = Stem;
},
{
origin = (0,24);
target = (0,9);
type = Stem;
},
{
origin = (1,8);
target = (1,2);
type = Stem;
},
{
origin = (0,3);
target = (0,2);
type = Stem;
},
{
origin = (0,18);
target = (0,15);
type = Stem;
}
);
layerId = "05246BF3-0764-4143-87C4-5D2B296D3790";
shapes = (
{
closed = 1;
nodes = (
(402,-210,o),
(490,-130,o),
(490,-20,c),
(400,-20,l),
(400,-80,o),
(352,-130,o),
(272,-130,cs),
(192,-130,o),
(140,-80,o),
(140,-20,cs),
(140,24,o),
(140,66,o),
(210,116,cs),
(280,166,o),
(317,205,o),
(317,275,cs),
(317,295,l),
(227,295,l),
(227,275,ls),
(227,215,o),
(185,193,o),
(145,163,cs),
(65,103,o),
(50,42,o),
(50,-20,cs),
(50,-130,o),
(142,-210,o),
(272,-210,cs)
);
},
{
closed = 1;
nodes = (
(309,400,o),
(337,428,o),
(337,465,cs),
(337,502,o),
(309,530,o),
(272,530,cs),
(235,530,o),
(207,502,o),
(207,465,cs),
(207,428,o),
(235,400,o),
(272,400,cs)
);
}
);
width = 540;
},
{
hints = (
{
horizontal = 1;
origin = (0,27);
target = (0,6);
type = Stem;
},
{
horizontal = 1;
origin = (1,5);
target = (1,11);
type = Stem;
},
{
origin = (1,8);
target = (1,2);
type = Stem;
},
{
origin = (0,18);
target = (0,15);
type = Stem;
},
{
origin = (0,24);
target = (0,9);
type = Stem;
},
{
origin = (0,3);
target = (0,2);
type = Stem;
}
);
layerId = "B51EB05F-9FBB-4087-814F-400611B2D4B0";
shapes = (
{
closed = 1;
nodes = (
(407,-200,o),
(510,-125,o),
(510,5,c),
(360,5,l),
(360,-45,o),
(342,-90,o),
(272,-90,cs),
(202,-90,o),
(180,-50,o),
(180,5,cs),
(180,29,o),
(175,67,o),
(245,125,cs),
(321,188,o),
(352,210,o),
(352,285,cs),
(352,315,l),
(202,315,l),
(202,285,ls),
(202,220,o),
(173,214,o),
(120,170,cs),
(50,112,o),
(30,62,o),
(30,5,cs),
(30,-125,o),
(147,-200,o),
(272,-200,cs)
);
},
{
closed = 1;
nodes = (
(325,370,o),
(362,407,o),
(362,455,cs),
(362,503,o),
(325,540,o),
(277,540,cs),
(229,540,o),
(192,503,o),
(192,455,cs),
(192,407,o),
(229,370,o),
(277,370,cs)
);
}
);
width = 540;
}
);
unicode = 191;
},
{
glyphname = periodcentered;
lastChange = "2026-01-08 23:02:18 +0000";
layers = (
{
anchors = (
{
name = _center;
pos = (165,260);
}
);
hints = (
{
horizontal = 1;
origin = (0,5);
target = (0,11);
type = Stem;
},
{
origin = (0,8);
target = (0,2);
type = Stem;
}
);
layerId = "05246BF3-0764-4143-87C4-5D2B296D3790";
shapes = (
{
closed = 1;
nodes = (
(200,195,o),
(230,225,o),
(230,260,cs),
(230,295,o),
(200,325,o),
(165,325,cs),
(130,325,o),
(100,295,o),
(100,260,cs),
(100,225,o),
(130,195,o),
(165,195,cs)
);
}
);
width = 330;
},
{
anchors = (
{
name = _center;
pos = (175,260);
}
);
hints = (
{
horizontal = 1;
origin = (0,11);
target = (0,5);
type = Stem;
},
{
origin = (0,8);
target = (0,2);
type = Stem;
}
);
layerId = "B51EB05F-9FBB-4087-814F-400611B2D4B0";
shapes = (
{
closed = 1;
nodes = (
(221,175,o),
(260,214,o),
(260,260,cs),
(260,306,o),
(221,345,o),
(175,345,cs),
(129,345,o),
(90,306,o),
(90,260,cs),
(90,214,o),
(129,175,o),
(175,175,cs)
);
}
);
width = 350;
}
);
unicode = 183;
},
{
glyphname = bullet;
lastChange = "2026-01-08 23:02:18 +0000";
layers = (
{
layerId = "05246BF3-0764-4143-87C4-5D2B296D3790";
shapes = (
{
closed = 1;
nodes = (
(317,120,o),
(380,183,o),
(380,260,cs),
(380,337,o),
(317,400,o),
(240,400,cs),
(163,400,o),
(100,337,o),
(100,260,cs),
(100,183,o),
(163,120,o),
(240,120,cs)
);
}
);
width = 480;
},
{
hints = (
{
origin = (0,8);
target = (0,2);
type = Stem;
}
);
layerId = "B51EB05F-9FBB-4087-814F-400611B2D4B0";
shapes = (
{
closed = 1;
nodes = (
(354,90,o),
(430,166,o),
(430,260,cs),
(430,354,o),
(354,430,o),
(260,430,cs),
(166,430,o),
(90,354,o),
(90,260,cs),
(90,166,o),
(166,90,o),
(260,90,cs)
);
}
);
width = 520;
}
);
unicode = 8226;
},
{
glyphname = asterisk;
kernLeft = quotesingle;
kernRight = quotesingle;
lastChange = "2026-01-08 23:02:18 +0000";
layers = (
{
hints = (
{
horizontal = 1;
origin = (0,9);
target = down;
type = TopGhost;
},
{
origin = (0,17);
target = (0,0);
type = Stem;
}
);
layerId = "05246BF3-0764-4143-87C4-5D2B296D3790";
shapes = (
{
closed = 1;
nodes = (
(258,390,l),
(258,502,l),
(355,446,l),
(386,500,l),
(290,555,l),
(386,611,l),
(355,664,l),
(258,608,l),
(258,720,l),
(198,720,l),
(198,608,l),
(101,664,l),
(70,610,l),
(166,555,l),
(70,499,l),
(101,446,l),
(198,502,l),
(198,390,l)
);
}
);
width = 456;
},
{
hints = (
{
horizontal = 1;
origin = (0,9);
target = down;
type = TopGhost;
},
{
origin = (0,17);
target = (0,0);
type = Stem;
}
);
layerId = "B51EB05F-9FBB-4087-814F-400611B2D4B0";
shapes = (
{
closed = 1;
nodes = (
(260,390,l),
(260,478,l),
(336,434,l),
(380,512,l),
(305,555,l),
(380,599,l),
(335,676,l),
(260,633,l),
(260,720,l),
(170,720,l),
(170,632,l),
(94,676,l),
(50,598,l),
(125,555,l),
(50,511,l),
(95,434,l),
(170,477,l),
(170,390,l)
);
}
);
width = 430;
}
);
unicode = 42;
},
